<svg width="168" height="117" viewBox="0 0 168 117" fill="none" xmlns="http://www.w3.org/2000/svg">
<path d="M122.842 70.2542C126.01 74.2046 127.13 84.003 128.791 88.573C126.203 98.6425 118.786 107.047 115.811 107.202C113.03 107.356 110.828 104.917 110.674 102.089C110.519 98.9523 113.146 95.7378 115.618 93.2204C114.421 89.851 112.451 80.8272 110.867 78.3098" fill="#002776"/>
<path d="M57.7126 48.4498C44.9262 56.2731 49.948 80.9047 39.0931 85.8232C38.7455 87.9533 38.5909 90.0447 38.5909 92.0973C38.5909 97.713 39.7498 103.135 41.1405 108.635C44.5013 110.261 48.5187 111.578 52.034 111.578C53.1543 111.578 54.2359 111.423 55.2403 111.113C55.2789 110.765 55.3175 110.416 55.3175 110.106C55.3175 105.885 52.1499 106.93 52.1499 100.075C52.1499 96.7835 52.9225 93.4141 53.5792 90.3158C71.6192 84.5839 76.7183 70.4866 76.7183 65.3356C76.7183 65.2969 76.7183 65.2582 76.7183 65.1807" fill="#002776"/>
<path d="M115.309 27.2264C111.369 32.8034 105.343 39.7746 98.235 39.7746C90.5091 39.7746 84.3284 32.997 75.7526 33.4618C63.1207 34.1976 55.6652 40.6266 46.5486 53.6782C37.4321 66.7299 25.3024 72.8491 17.6923 63.5541C12.5546 57.3188 12.6319 48.0238 15.2587 39.6584C14.4088 39.426 13.5204 39.3486 12.6705 39.3486C7.91907 39.3486 3.70844 42.5243 3.70844 45.9712C3.70844 46.5909 3.86296 47.2492 4.172 47.8689C4.71281 48.9533 6.37388 48.566 6.41251 47.3654C6.41251 47.3654 6.41251 47.3654 6.41251 47.3267V47.288C6.41251 45.6614 4.40378 44.8481 3.24489 46.0099C1.043 48.1787 0.0386353 51.432 0.0386353 54.8014C0.0386353 59.8361 2.27915 65.0645 6.06485 67.2334C6.21937 67.1172 6.258 67.0784 6.41251 66.9623C6.06485 65.568 3.28352 61.6177 1.62245 61.6177C0.54082 61.6177 0.347672 63.3605 0.347672 64.3674C0.347672 70.719 9.50288 77.8063 16.1858 77.8063C17.4219 77.8063 18.5422 77.574 19.5079 77.0705C19.392 76.993 19.3148 76.8769 19.1989 76.7994C17.4219 76.9156 13.7521 77.8451 13.7521 80.0526C13.7521 81.9891 16.997 82.0665 19.0058 82.0665C26.7317 82.0665 36.1959 79.433 39.9816 72.8103C39.9043 72.7716 39.8657 72.6941 39.7885 72.6554C38.2046 73.7785 36.6595 76.5283 36.6595 78.852C36.6595 80.0914 37.1617 81.7954 38.5523 81.7954C46.5873 81.7954 56.2447 67.3495 58.292 58.0933C58.292 58.0933 58.9101 72.8103 64.6273 80.1301C68.8765 86.9851 77.0274 89.1539 85.0623 88.6504C91.9384 88.1857 103.682 85.0487 103.952 78.6584C101.557 79.4717 98.5827 82.0665 98.7372 84.5452C98.7372 84.6226 98.7372 84.7001 98.7758 84.7775C98.7758 84.7775 98.7372 86.9464 101.673 86.8302C111.485 86.4816 127.4 74.7855 127.014 66.2264C125.623 67.5432 122.958 73.0814 123.151 76.2959C123.267 77.9225 124.078 78.4647 125.083 78.426C129.486 78.1549 137.251 67.5045 137.676 50.6961" fill="#002776"/>
<path d="M54.6995 67.8143C54.9699 67.3108 55.2017 66.8073 55.4721 66.3039C55.7039 65.8004 56.0129 65.2969 56.2447 64.7934C56.5151 64.2512 56.7469 63.7478 56.94 63.2443L57.2491 62.431C57.3263 62.1599 57.4036 61.9275 57.5195 61.6564C57.6354 61.2691 57.7899 60.9205 57.8671 60.5333L58.1762 59.4488L58.4079 58.3644C58.4466 58.2483 58.3693 58.1321 58.2534 58.0933C58.1375 58.0546 58.0603 58.1708 58.0217 58.287L57.7126 59.3327L57.365 60.3783C57.2491 60.7269 57.0945 61.0755 56.9787 61.4627C56.8628 61.6951 56.7855 61.9662 56.6696 62.1986C56.5537 62.4697 56.4378 62.7408 56.322 63.0119C56.1288 63.4767 55.897 63.9801 55.6653 64.5611C55.4721 65.0645 55.2017 65.6067 54.9699 66.1102C54.6995 66.6137 54.4291 67.1172 54.1587 67.5819L53.8497 68.0854C53.3475 69.0149 52.768 69.9444 52.15 70.7964C51.8023 71.2612 51.4933 71.7259 51.1456 72.1907C50.7979 72.6554 50.4503 73.1201 50.1026 73.5849C49.8322 73.9335 49.6004 74.282 49.33 74.6306L48.6733 75.4439C48.4415 75.715 48.2097 75.9474 47.978 76.2185C47.8234 76.4121 47.6689 76.567 47.4758 76.7607L46.935 77.2641C46.51 77.6902 46.0079 78.1162 45.5443 78.5422C45.467 78.6197 45.4284 78.7746 45.5057 78.852C45.5829 78.9295 45.6988 78.9295 45.8147 78.852C46.3169 78.4647 46.8191 78.0387 47.244 77.6127L47.7848 77.1092L48.3256 76.567C48.5574 76.3346 48.8278 76.0635 49.0596 75.8312L49.7549 75.0566C50.064 74.7468 50.3344 74.3982 50.6048 74.0884C50.9911 73.6624 51.3387 73.1589 51.6864 72.6941C52.0341 72.2294 52.3431 71.7259 52.6521 71.2612C53.2316 70.3704 53.7724 69.4022 54.3518 68.4727L54.6995 67.8143Z" fill="#005AA4"/>
<path d="M125.353 72.4618C125.932 71.4935 126.473 70.4866 126.821 69.3635C126.898 69.0924 127.014 68.8212 127.053 68.5114C127.13 68.2403 127.207 67.9305 127.207 67.6594L127.246 67.427C127.246 67.3108 127.284 67.1946 127.284 67.0784C127.284 66.8461 127.284 66.6137 127.284 66.3813V65.6842V65.6067V65.568C127.284 65.568 127.284 65.5293 127.284 65.568L127.169 65.6842L126.937 65.9166C126.744 66.1102 126.589 66.3039 126.435 66.4588C126.357 66.5362 126.28 66.6524 126.203 66.7686L126.01 67.0397C125.817 67.2721 125.701 67.5432 125.546 67.7756C125.276 68.279 125.005 68.7438 124.774 69.2473C124.503 69.7895 124.271 70.3317 124.078 70.8739C123.962 71.145 123.885 71.3774 123.808 71.6485C123.731 71.9196 123.653 72.1519 123.576 72.423C123.344 73.1589 123.151 73.9335 123.074 74.708C122.997 75.4439 122.919 76.2185 123.074 76.9543C123.151 77.3416 123.306 77.7289 123.576 78.0387C123.846 78.3486 124.233 78.5809 124.619 78.6197C124.889 78.6584 125.121 78.5422 125.121 78.426C125.121 78.3098 124.928 78.2711 124.696 78.2324C124.387 78.1936 124.078 78 123.885 77.7676C123.692 77.5353 123.576 77.1867 123.499 76.8769C123.383 76.1797 123.421 75.4826 123.537 74.7468C123.653 74.0109 123.846 73.2751 124.078 72.5779C124.155 72.3456 124.233 72.0745 124.349 71.8421C124.426 71.6097 124.542 71.3386 124.658 71.1063C124.889 70.5641 125.121 70.0606 125.392 69.5571C125.623 69.0924 125.855 68.6276 126.126 68.1629C126.28 67.9305 126.396 67.6981 126.55 67.4657C126.589 67.427 126.628 67.3496 126.666 67.3108L126.705 67.2721V67.2334V67.3108C126.705 67.3496 126.705 67.3496 126.705 67.3883V67.4657L126.666 67.6594C126.666 67.9305 126.589 68.2016 126.512 68.4727C126.473 68.7438 126.357 69.0149 126.28 69.2473C125.932 70.2929 125.392 71.2999 124.812 72.1907C124.58 72.5005 124.387 72.8103 124.155 73.1202C122.958 74.863 121.413 76.4121 119.868 77.8063C118.168 79.278 116.275 80.6723 114.344 81.9116C113.61 82.3764 112.876 82.8024 112.142 83.2284C110.944 83.8868 109.747 84.5064 108.472 85.0099C107.583 85.3585 106.656 85.707 105.691 85.9781C104.532 86.288 103.295 86.5591 102.059 86.6753C101.828 86.714 101.634 86.7915 101.634 86.9076C101.634 87.0238 101.828 87.1013 102.098 87.0626C103.373 86.9851 104.648 86.7527 105.845 86.4042C106.811 86.1331 107.738 85.8232 108.665 85.4747C109.94 84.9712 111.215 84.3903 112.412 83.7706C113.185 83.3833 113.919 82.9573 114.653 82.4925C116.661 81.292 118.554 79.859 120.254 78.3098C121.838 76.8769 123.344 75.2502 124.619 73.5074C124.928 73.1202 125.121 72.7716 125.353 72.4618Z" fill="#005AA4"/>
<path d="M99.0462 61.8113C95.7241 68.9762 88.3845 78.3098 88.3845 89.5025C88.3845 90.2771 88.5003 90.7805 88.8094 90.7805C89.3116 90.7805 92.2088 88.999 91.3976 84.2353C90.3932 85.9007 89.5433 91.9811 89.5433 96.8222C89.5433 98.7587 89.7365 102.903 91.668 102.903C93.02 102.903 93.4836 100.037 93.4836 98.3714C93.4836 97.9454 93.5222 96.3962 93.0973 97.0933C92.5951 97.9454 92.0929 99.8431 92.0929 101.354C92.0929 108.751 95.6468 113.05 98.9303 115.838C101.325 116.342 103.798 116.69 106.193 116.69C108.742 116.69 111.176 116.342 113.378 115.451C112.103 112.12 109.167 110.726 106.347 108.867C105.575 105.962 105.227 103.213 105.227 100.54C105.227 85.9394 115.425 74.5531 118.94 59.565" fill="#002776"/>
<path d="M106.502 116.961C108.356 116.923 110.249 116.69 112.064 116.148C112.296 116.071 112.528 115.993 112.76 115.916L113.107 115.799L113.648 115.606C113.648 115.606 113.687 115.606 113.687 115.567L113.648 115.49L113.571 115.335L113.455 115.064L113.301 114.676C113.185 114.444 113.069 114.25 112.953 114.018C112.451 113.166 111.794 112.43 111.099 111.81C110.365 111.152 109.592 110.61 108.781 110.106L107.583 109.332L107.004 108.944L106.695 108.751L106.54 108.673C106.54 108.673 106.502 108.673 106.502 108.635L106.347 108.054C106.309 107.821 106.231 107.589 106.193 107.357C106.077 106.892 106 106.427 105.922 105.962C105.768 105.033 105.652 104.103 105.575 103.174C105.266 99.146 105.729 95.4667 106.579 92.136C107.043 90.2771 107.622 88.4181 108.279 86.6365C108.588 85.8232 108.897 84.9712 109.244 84.1579C109.592 83.3446 109.901 82.5313 110.287 81.718C111.33 79.3555 112.412 77.0705 113.494 74.708C115.502 70.2929 117.434 65.8004 118.67 61.0755C118.902 60.2234 118.979 59.565 118.863 59.5263C118.747 59.4876 118.516 60.146 118.284 60.9593C117.048 65.6842 115.077 70.138 112.991 74.5919C111.91 76.8769 110.828 79.1619 109.785 81.4856C109.399 82.2989 109.051 83.1122 108.704 83.9255C108.356 84.7388 108.008 85.5909 107.699 86.4042C107.004 88.2244 106.386 90.0834 105.922 91.9811C105.072 95.3505 104.609 99.1073 104.957 103.29C105.034 104.219 105.188 105.149 105.343 106.078C105.42 106.543 105.536 107.008 105.613 107.473L105.768 108.17L105.961 108.944C106 109.022 106.154 109.061 106.193 109.099L106.347 109.177L106.656 109.37L107.236 109.758L108.433 110.494C109.206 110.997 109.978 111.539 110.674 112.159C111.369 112.779 111.948 113.476 112.412 114.25C112.528 114.444 112.605 114.638 112.721 114.831L112.837 115.102C112.837 115.141 112.876 115.141 112.837 115.18L112.721 115.218L112.412 115.335C112.18 115.412 111.987 115.49 111.755 115.528C109.978 116.071 108.163 116.264 106.347 116.264C105.072 116.264 103.836 116.187 102.561 116.032C101.673 115.916 100.823 115.799 99.9347 115.644L99.278 115.528L98.969 115.451C98.8531 115.412 98.9303 115.451 98.8144 115.373C98.4668 115.102 98.1577 114.792 97.8487 114.483C96.5739 113.243 95.4537 111.888 94.5652 110.339C92.7882 107.279 92.0929 103.639 92.3247 100.23C92.3633 99.7656 92.4792 99.3009 92.5564 98.8749C92.5951 98.6425 92.6723 98.4101 92.7496 98.2165C92.7882 98.1003 92.8268 97.9841 92.8655 97.9067L92.9427 97.713C92.9427 97.6743 92.9814 97.6743 92.9814 97.6356C93.02 97.6356 93.02 97.6743 93.02 97.6743V98.0228C93.02 98.2552 93.02 98.4876 93.02 98.72C92.9814 99.6495 92.8268 100.579 92.4792 101.431C92.3247 101.818 92.0543 102.244 91.7839 102.36C91.7066 102.399 91.6293 102.399 91.5521 102.399C91.4748 102.399 91.3589 102.399 91.2817 102.36C91.1271 102.322 90.9726 102.206 90.8181 102.051C90.5477 101.78 90.3546 101.354 90.2387 100.928C90.0842 100.501 90.0069 100.037 89.9296 99.572C89.7751 98.6425 89.7365 97.6743 89.7365 96.7061C89.7365 94.7696 89.8524 92.8719 90.0455 90.9355C90.2 89.5025 90.3932 88.1082 90.7022 86.714C90.7795 86.3654 90.8567 86.0169 90.934 85.6683L90.9726 85.5134C90.9726 85.4747 91.0113 85.4359 91.0113 85.3972C91.0113 85.3585 91.0499 85.3198 91.0499 85.281C91.0499 85.281 91.0499 85.3198 91.0499 85.3585C91.0499 85.4359 91.0499 85.5134 91.0885 85.6296C91.0885 85.6296 91.0885 85.6296 91.0885 85.6683V85.7845V85.9782C91.0885 86.1331 91.0885 86.2493 91.0499 86.4042C91.0113 86.6753 91.0113 86.9464 90.934 87.2175C90.8181 87.7597 90.625 88.2632 90.3546 88.7279C90.0841 89.1927 89.7365 89.6187 89.3116 89.9285C89.1957 90.006 89.0798 90.0834 89.0025 90.1609L88.848 90.2383L88.7707 90.2771H88.7321C88.6935 90.2771 88.6549 90.2771 88.6162 90.2383C88.5776 90.1996 88.539 90.0447 88.539 89.9285C88.4617 89.425 88.539 88.8441 88.539 88.2632L88.5776 87.4111C88.5776 87.14 88.6162 86.8689 88.6549 86.5591L88.7321 85.7071C88.7707 85.4359 88.8094 85.1261 88.848 84.855L89.157 83.1897C89.891 80.0139 91.0885 76.9543 92.4792 74.0109C93.3677 72.1907 94.372 70.3704 95.3764 68.5501C96.3808 66.7299 97.4238 64.9096 98.3895 63.0506C98.7758 62.2761 98.9689 61.6564 98.8917 61.6177C98.8144 61.5789 98.4281 62.1211 98.0418 62.8957C97.0761 64.7547 96.0331 66.575 94.9901 68.3952C93.9857 70.2155 92.9814 72.0745 92.0929 73.8947C90.6636 76.8381 89.4661 79.9364 88.6935 83.1509L88.3844 84.855C88.2686 85.436 88.2299 85.9782 88.1527 86.5591C88.0754 87.14 88.0368 87.721 88.0368 88.2632C88.0368 88.8441 87.9595 89.3863 88.0368 90.006C88.0368 90.0834 88.0754 90.1609 88.0754 90.2383C88.114 90.3158 88.114 90.3932 88.1913 90.5094C88.3072 90.7418 88.539 90.858 88.8094 90.7805C89.0411 90.7418 89.157 90.6643 89.3116 90.5869C89.4274 90.5094 89.582 90.432 89.6979 90.3158C90.1614 89.9285 90.5477 89.4638 90.8567 88.9603C91.1658 88.4568 91.3976 87.8759 91.5134 87.2949C91.5907 87.0238 91.6293 86.714 91.668 86.4042L91.7066 85.9782C91.7066 85.8232 91.7452 85.707 91.7066 85.4747L91.6293 84.5839C91.6293 84.429 91.5907 84.3128 91.5907 84.1579L91.5134 83.7706L91.4362 83.3833L91.3976 83.1897V83.1509C91.3976 83.1509 91.3976 83.1122 91.3976 83.1509V83.1897L91.3589 83.2671L91.0113 83.9643L90.8567 84.3128L90.7022 84.7388L90.5477 85.1648C90.5091 85.281 90.4318 85.5134 90.4318 85.5521C90.3159 85.9007 90.2387 86.2493 90.1614 86.5978C89.8524 87.9921 89.6592 89.425 89.4661 90.858C89.2343 92.7944 89.1184 94.7309 89.1184 96.7061C89.1184 97.6743 89.157 98.6812 89.3116 99.6494C89.3888 100.153 89.4661 100.618 89.6206 101.121C89.7751 101.625 89.9683 102.089 90.3932 102.515C90.5863 102.709 90.8567 102.903 91.1658 102.98C91.3203 103.019 91.4748 103.058 91.6293 103.058C91.7838 103.058 91.977 103.019 92.0929 102.941C92.2474 102.903 92.3633 102.786 92.4792 102.709C92.5951 102.593 92.711 102.515 92.7496 102.399C92.8268 102.283 92.9041 102.167 92.9814 102.051C93.0586 101.934 93.0973 101.818 93.1359 101.702C93.5222 100.734 93.6381 99.7656 93.7153 98.7587C93.7153 98.5263 93.7153 98.2552 93.7153 98.0228V97.8292V97.5968C93.7153 97.4032 93.6767 97.1321 93.6381 96.9384C93.5994 96.7448 93.5222 96.5899 93.4449 96.5124C93.4063 96.4737 93.3677 96.435 93.2904 96.3962C93.2131 96.3575 93.1359 96.3575 93.0973 96.3575C93.02 96.3575 92.9814 96.3962 92.9427 96.435L92.7882 96.5511L92.6337 96.7835C92.5951 96.861 92.5564 96.9772 92.4792 97.0546L92.4019 97.2095L92.3633 97.3257L92.286 97.5581C92.2474 97.6743 92.2088 97.7905 92.1701 97.9067C92.0929 98.139 92.0156 98.3714 91.977 98.6038C91.8611 99.0685 91.7838 99.572 91.7066 100.037C91.668 100.501 91.6293 100.966 91.668 101.392C91.7066 101.857 91.668 102.283 91.7452 102.748C91.8225 103.639 91.9384 104.529 92.1315 105.42C92.5178 107.202 93.1745 108.906 94.1016 110.494C95.0287 112.081 96.1876 113.476 97.4624 114.754C97.7714 115.064 98.1191 115.373 98.4668 115.683L98.6213 115.799C98.6599 115.877 98.8144 115.877 98.8917 115.916L99.2394 115.993L99.8961 116.109C100.785 116.264 101.673 116.419 102.561 116.535C103.914 116.923 105.227 117 106.502 116.961Z" fill="#005AA4"/>
<path d="M58.4079 50.3863C57.1332 54.2979 54.8926 57.0864 54.8926 65.142C54.8926 71.8421 56.94 78.5035 61.2665 83.3833C60.069 86.0556 57.9057 88.4181 55.6652 90.3933C56.4378 99.6882 59.1419 106.272 65.5544 112.856C68.7607 113.669 72.7009 114.134 76.4866 114.134C77.4523 114.134 78.418 114.095 79.3452 114.057C79.6542 113.166 79.7701 112.353 79.7701 111.617C79.7701 105.73 72.2759 105.265 72.2759 93.6465C85.4486 85.9007 90.0069 73.0427 88.4231 60.0298" fill="#002776"/>
<path d="M88.3072 60.6495L88.4231 62.1212C88.4617 62.6246 88.4617 63.0894 88.4617 63.5929C88.4617 64.0963 88.5004 64.5611 88.5004 65.0646L88.4617 66.5363L88.4231 67.3108L88.3458 68.0854L88.1913 69.5958L87.805 71.6872C87.6505 72.4618 87.4187 73.1976 87.2642 73.9335C87.1097 74.5919 86.8393 75.289 86.6461 75.9861C86.5689 76.1797 86.5302 76.3347 86.4916 76.5283C86.4144 76.722 86.3371 76.8769 86.2985 77.0705C86.144 77.4191 86.0281 77.8064 85.8735 78.1936C84.7533 80.9821 83.1308 83.577 81.1994 85.8232C79.3451 88.0308 77.1046 90.0447 74.7096 91.7488C74.0529 92.2135 73.3576 92.6395 72.7009 93.0655L72.4305 93.2205L72.2373 93.3366C72.16 93.3754 72.0442 93.4141 72.0828 93.5303V94.2661C72.0828 94.6922 72.1214 95.0794 72.16 95.5055C72.2373 96.3188 72.3146 97.1321 72.5077 97.9454C72.6622 98.7587 72.894 99.5333 73.1644 100.308C73.628 101.625 74.3233 102.864 75.1345 103.987C75.9457 105.11 76.9115 106.156 77.7613 107.202C78.418 108.015 78.9975 108.906 79.3065 109.913C79.6156 110.881 79.6156 111.965 79.3838 112.972C79.3451 113.205 79.2679 113.398 79.2293 113.631V113.669V113.708H79.0361C78.5726 113.708 78.109 113.747 77.6068 113.747C76.6797 113.786 75.714 113.786 74.7482 113.747C72.8554 113.669 70.9239 113.514 69.0697 113.205L68.2198 113.05C67.5631 112.933 66.9064 112.779 66.2884 112.624L65.8634 112.507L65.7862 112.43L65.6316 112.236L64.9363 111.5C64.0478 110.494 63.1594 109.448 62.3868 108.363C61.3051 106.93 60.378 105.381 59.5668 103.793C59.0646 102.748 58.5624 101.663 58.1761 100.579C57.7126 99.3396 57.3649 98.0228 57.0559 96.7061C56.94 96.0477 56.7855 95.3893 56.6696 94.7309C56.631 94.3823 56.5537 94.0725 56.5151 93.7239C56.4764 93.3754 56.4378 93.0655 56.3992 92.717C56.3606 92.3297 56.2833 91.9037 56.2833 91.5164L56.2447 90.8967L56.206 90.5869V90.5482L56.5923 90.1996L57.0559 89.7736C57.3649 89.5025 57.6353 89.1927 57.9444 88.8828C59.1033 87.6822 60.1849 86.3654 60.9961 84.9325C61.1892 84.6226 61.3438 84.2741 61.4983 83.9643L61.6142 83.6932L61.7301 83.4608C61.7301 83.422 61.7687 83.3833 61.7687 83.3446L61.6914 83.2671L61.2665 82.7637C61.0347 82.4926 60.803 82.2215 60.6098 81.9116C60.378 81.6405 60.1849 81.3307 59.9917 81.0596C59.1805 79.8977 58.4852 78.6197 57.9057 77.3416C56.6696 74.5919 55.9356 71.4935 55.588 68.434C55.4334 67.3108 55.3948 66.149 55.3948 64.9871C55.3948 63.1668 55.4721 61.3466 55.7811 59.5263C56.0129 58.2483 56.3219 56.9702 56.7855 55.7309C57.3263 54.1817 58.0603 52.6326 58.6011 51.0447C58.717 50.7349 58.717 50.425 58.6011 50.3863C58.4852 50.3476 58.3307 50.5799 58.2148 50.8898C57.6353 52.4389 56.9014 53.9881 56.3606 55.576C55.9356 56.8153 55.588 58.1321 55.3176 59.4489C54.9699 61.2691 54.8154 63.1281 54.8154 64.9871C54.8154 66.149 54.8154 67.3108 54.9313 68.4727C55.2017 71.6097 56.0515 74.7468 57.3263 77.574C57.9057 78.8908 58.6397 80.1688 59.4895 81.3694C59.6827 81.6793 59.9145 81.9503 60.1463 82.2602C60.378 82.57 60.6098 82.8411 60.8416 83.1122L61.112 83.422C61.1506 83.422 61.112 83.4608 61.112 83.4608L60.9961 83.6544C60.8416 83.9643 60.6871 84.2741 60.4939 84.5839C59.6441 85.9782 58.6011 87.2175 57.4808 88.4181C57.2104 88.7279 56.9014 88.999 56.631 89.2701L56.206 89.6961L55.7038 90.1609L55.588 90.2771C55.588 90.3158 55.588 90.3545 55.588 90.432L55.6266 90.7031L55.6652 91.0129L55.7425 91.6326C55.7811 92.0586 55.8197 92.4459 55.897 92.8332C55.9356 93.1817 55.9743 93.4916 56.0515 93.8401C56.1288 94.1887 56.1674 94.4985 56.2447 94.8471C56.3606 95.5055 56.5151 96.2026 56.631 96.861C56.94 98.2165 57.2877 99.5333 57.7512 100.811C58.1375 101.934 58.6011 103.058 59.1033 104.142C59.9145 105.807 60.8416 107.357 61.9232 108.828L62.3095 109.332L62.6958 109.835C63.0435 110.3 63.4298 110.765 63.8161 111.191L64.3955 111.849L65.0136 112.469L65.3226 112.779L65.4771 112.933L65.593 113.05L65.6703 113.127C65.7089 113.166 65.7475 113.166 65.7475 113.166L66.2111 113.282L66.636 113.359C67.2155 113.476 67.7563 113.592 68.3357 113.669L69.1469 113.786C71.0398 114.057 72.9713 114.25 74.9027 114.328C75.8685 114.366 76.8342 114.366 77.8 114.328C78.2635 114.328 78.7657 114.289 79.2293 114.289H79.7314H79.8087C79.8473 114.289 79.8473 114.25 79.8473 114.25L79.886 114.095L79.9632 113.824C80.0405 113.592 80.0791 113.359 80.1564 113.127C80.3881 112.043 80.3881 110.842 80.0791 109.758C79.7701 108.635 79.1134 107.705 78.4567 106.814C77.5682 105.73 76.6411 104.723 75.8299 103.6C75.0186 102.515 74.3619 101.315 73.8984 100.075C73.628 99.3396 73.3962 98.6038 73.2417 97.7905C73.0872 97.0159 72.9713 96.2026 72.894 95.428C72.8554 95.0407 72.8168 94.6147 72.8168 94.2274V93.7239C72.8168 93.7239 72.8168 93.6852 72.8554 93.6852L72.894 93.6465L73.1644 93.4916C73.8597 93.0655 74.5551 92.6395 75.2118 92.1748C77.7227 90.5094 79.9632 88.4181 81.8561 86.1331C83.7875 83.8093 85.41 81.137 86.6461 78.3486C86.8007 77.9613 86.9552 77.574 87.1097 77.2254C87.187 77.0318 87.2642 76.8769 87.3415 76.6832C87.4187 76.4896 87.4574 76.3347 87.5346 76.141C87.7664 75.4052 87.9982 74.708 88.1913 74.0497C88.3458 73.2751 88.539 72.5005 88.6935 71.7259C88.8094 70.9901 88.9253 70.293 89.0025 69.5958L89.1184 68.0467L89.1957 67.2721V66.4975L89.2343 65.0258C89.2343 64.5223 89.1957 64.0576 89.1957 63.5541C89.1571 63.0507 89.1571 62.5859 89.1184 62.0824L88.9639 60.6107C88.9253 60.2622 88.8094 59.9911 88.6935 59.9911C88.5776 59.9911 88.2686 60.3009 88.3072 60.6495Z" fill="#005AA4"/>
<path d="M138.912 15.6077C132.538 13.7875 122.649 6.73883 118.129 0C117.009 1.85899 114.962 4.87984 114.962 15.0268C114.962 20.139 115.734 25.4062 117.782 29.6276" fill="#002776"/>
<path d="M138.912 13.9811C142.505 13.0904 148.569 7.20358 151.698 3.25323C152.201 5.38332 152.51 8.21053 152.51 11.0377C152.51 15.6465 151.737 20.3327 149.883 22.3853" fill="#002776"/>
<path d="M135.01 54.4141C140.457 53.8332 150.694 44.4608 150.694 38.4578C150.694 38.0705 150.655 37.6832 150.539 37.2959C150.076 37.7994 149.806 38.8063 149.806 39.8133C149.806 41.3625 150.346 42.9891 151.467 42.9891C153.63 42.9891 155.909 37.3346 155.909 32.8034C155.909 25.9096 150.926 17.6991 146.445 14.2135C142.543 10.999 124.851 8.9851 120.949 14.4071C115.502 21.5333 111.369 27.6912 111.369 36.5601C111.369 38.6127 111.91 43.0278 113.725 43.0278C115.425 43.0278 116.507 37.3734 116.507 35.4369C116.507 35.0884 116.43 34.2751 116.121 34.2751H116.082C115.425 34.3913 115.232 35.2433 115.232 36.289C115.232 41.3625 121.065 50.0377 126.473 51.5482" fill="#002776"/>
<path d="M126.821 26.8004C126.821 26.7617 126.821 26.7229 126.821 26.6455C126.821 23.5859 129.023 22.0367 131.147 22.0367C133.233 22.0367 135.242 23.4697 135.281 26.3357V26.3744C135.281 29.0467 132.847 30.712 130.568 30.712C128.675 30.712 126.898 29.5501 126.821 26.8004Z" fill="#EE8D9C"/>
<path d="M144.668 27.9623C144.166 27.3039 143.934 26.4906 143.934 25.6773C143.934 23.7408 145.209 22.0367 147.295 22.0367C149.496 22.0367 150.964 23.8183 150.964 25.7547C150.964 27.8073 149.187 29.434 147.372 29.434C146.406 29.434 145.44 29.0079 144.668 27.9623Z" fill="#EE8D9C"/>
<path d="M144.397 31.6415C146.985 31.9513 149.226 34.1202 149.226 36.5988C149.226 40.5879 143.547 42.9891 139.607 42.9891C136.246 42.9891 131.804 40.7815 131.804 37.4508C131.804 34.0814 135.242 32.4935 138.796 31.7964C138.41 29.279 137.83 24.5541 137.83 23.1986C137.83 22.0755 137.985 20.9523 138.719 20.9523C139.994 20.9523 142.311 26.8391 144.397 31.6415Z" fill="#F8E9DD"/>
<path d="M144.475 32.5323C143.316 32.3386 142.195 32.2612 141.037 32.2999C140.303 32.3386 139.569 32.4548 138.835 32.6097C140.032 33.423 141.384 34.3138 142.543 34.2751C143.354 34.2363 144.011 33.7716 144.475 32.5323Z" fill="#EE8D9C"/>
<path d="M137.328 37.8381C137.289 37.7607 137.212 37.6832 137.174 37.6058C137.096 37.4896 137.058 37.3734 136.98 37.2572C136.903 37.0248 136.787 36.7925 136.787 36.5214C136.787 36.4826 136.671 36.4439 136.594 36.4439C136.478 36.4439 136.401 36.4826 136.401 36.5601C136.401 36.8699 136.44 37.141 136.517 37.4508C136.556 37.6058 136.633 37.7607 136.671 37.8769C136.71 37.9931 136.787 38.0705 136.826 38.1867C136.826 38.2254 136.865 38.2254 136.865 38.2642C137.174 38.6127 137.521 38.9225 137.946 39.1549C138.023 39.1936 138.101 39.2324 138.178 39.2711C138.217 39.2711 138.294 39.3098 138.332 39.3098C138.603 39.3873 138.873 39.426 139.182 39.426C139.375 39.426 139.569 39.426 139.8 39.3873C140.032 39.3486 140.303 39.2711 140.534 39.1549C140.573 39.1162 140.573 39.0387 140.534 38.9225C140.496 38.8451 140.418 38.7676 140.38 38.7676C140.148 38.8451 139.955 38.8838 139.762 38.9225C139.607 38.9613 139.414 38.9613 139.26 38.9225C139.028 38.8838 138.796 38.8451 138.603 38.7289C138.564 38.7289 138.526 38.6902 138.487 38.6514C138.41 38.6127 138.371 38.6127 138.294 38.574C137.946 38.4191 137.637 38.1867 137.444 37.8381C137.367 37.8769 137.328 37.8381 137.328 37.8381Z" fill="#002776"/>
<path d="M161.394 31.4866C161.974 31.5253 162.553 31.6028 163.094 31.7577C163.403 31.8352 163.674 31.8739 163.944 31.9126C164.098 31.9126 164.253 31.9513 164.407 31.9513L164.832 31.9901L165.412 32.0675L166.532 32.2224C166.609 32.2224 166.648 32.145 166.687 32.0675C166.687 31.9513 166.687 31.8739 166.609 31.8739L165.489 31.6415L164.91 31.5253L164.523 31.4091C164.369 31.3704 164.214 31.3317 164.098 31.2929C163.828 31.2542 163.558 31.2155 163.21 31.1768C162.631 31.138 162.051 31.0606 161.472 30.9444L161.163 30.9057C160.622 30.8669 160.042 30.7895 159.502 30.712C158.922 30.6346 158.304 30.5571 157.686 30.5571C157.454 30.5571 157.222 30.5571 157.029 30.5571C156.682 30.5571 156.334 30.5958 155.948 30.5958C155.677 30.5958 155.445 30.5958 155.175 30.5958C154.866 30.5958 154.518 30.5958 154.209 30.6346C154.132 30.6346 154.093 30.712 154.093 30.8282C154.093 30.9444 154.132 31.0218 154.209 31.0218C154.518 31.0218 154.866 31.0218 155.175 31.0218C155.445 31.0218 155.677 31.0218 155.948 31.0218C156.295 31.0218 156.643 31.0606 156.991 31.0993C157.222 31.138 157.416 31.138 157.647 31.1768C158.227 31.2542 158.845 31.2542 159.424 31.2929C159.965 31.3317 160.545 31.3704 161.047 31.4479L161.394 31.4866Z" fill="#7EB5D2"/>
<path d="M161.974 35.708C162.592 35.9017 163.249 36.1341 163.867 36.4439C164.214 36.5988 164.523 36.715 164.794 36.8312L165.296 36.9861L165.759 37.141L166.416 37.3734C166.841 37.5283 167.227 37.6832 167.652 37.8769C167.73 37.9156 167.807 37.8381 167.845 37.7607C167.884 37.6832 167.884 37.567 167.807 37.5283L166.609 36.9474L165.991 36.6375L165.566 36.4052C165.412 36.3277 165.257 36.2502 165.103 36.1728C164.832 36.0566 164.485 35.9404 164.137 35.8242C163.48 35.6306 162.824 35.3595 162.206 35.1271L161.897 35.0109C161.278 34.8173 160.66 34.5849 160.042 34.3913C159.386 34.1589 158.729 33.9265 158.034 33.8103C157.763 33.7716 157.531 33.6941 157.261 33.6554L156.025 33.423L155.136 33.2294C154.789 33.1519 154.402 33.0745 154.016 33.0358C153.939 33.0358 153.862 33.1132 153.862 33.1907C153.862 33.3069 153.9 33.3843 153.977 33.423C154.325 33.5005 154.711 33.578 155.059 33.6554C155.329 33.7329 155.639 33.7716 155.909 33.8491C156.295 33.9652 156.72 34.0814 157.106 34.1976C157.338 34.2751 157.609 34.3525 157.84 34.43C158.497 34.6624 159.192 34.8173 159.849 35.0109C160.467 35.1658 161.085 35.3595 161.703 35.5919L161.974 35.708Z" fill="#7EB5D2"/>
<path d="M113.378 28.3108C112.605 28.3108 111.833 28.3496 111.06 28.3108C110.635 28.3108 110.249 28.3108 109.901 28.3496C109.708 28.3496 109.515 28.3883 109.283 28.427L108.742 28.5045L107.931 28.5819L106.424 28.7368C106.347 28.7368 106.27 28.853 106.27 28.9305C106.27 29.0467 106.347 29.1241 106.463 29.1241C106.965 29.0854 107.467 29.0854 107.97 29.0467L108.742 29.0079H109.283C109.476 29.0079 109.669 29.0079 109.901 29.0079C110.249 29.0079 110.635 28.9692 111.06 28.9305C111.833 28.853 112.605 28.853 113.378 28.8918H113.764C114.498 28.8918 115.232 28.9305 115.966 29.0079C116.739 29.0854 117.55 29.1629 118.322 29.2403C118.631 29.279 118.902 29.279 119.211 29.3178C119.674 29.3565 120.138 29.434 120.602 29.5114C120.949 29.5501 121.258 29.6663 121.567 29.7438C121.992 29.8213 122.378 29.9762 122.803 30.0536C122.881 30.0924 122.997 30.0149 122.997 29.8987C123.035 29.7825 122.997 29.7051 122.919 29.6663C122.494 29.5114 122.069 29.3952 121.683 29.279C121.335 29.2016 121.026 29.1241 120.679 29.0467C120.215 28.9305 119.752 28.8143 119.288 28.7368C118.979 28.6594 118.709 28.6207 118.4 28.5819C117.588 28.427 116.777 28.3883 116.005 28.3496C115.271 28.3108 114.537 28.3108 113.764 28.2721L113.378 28.3108Z" fill="#7EB5D2"/>
<path d="M112.064 32.5323C111.253 32.6872 110.403 32.8421 109.592 32.9583C109.129 33.0357 108.742 33.1132 108.356 33.2294C108.163 33.3068 107.931 33.3456 107.738 33.423L107.158 33.6167C106.888 33.6941 106.618 33.8103 106.347 33.9265C105.845 34.1202 105.343 34.3138 104.841 34.5462C104.763 34.5849 104.725 34.7011 104.763 34.7785C104.802 34.8947 104.918 34.9335 104.995 34.8947C105.497 34.7011 106 34.5074 106.54 34.3525C106.811 34.2751 107.081 34.1976 107.352 34.1202C107.545 34.0814 107.738 34.0427 107.931 33.9652C108.124 33.9265 108.356 33.8878 108.549 33.8103C108.935 33.7329 109.322 33.6167 109.747 33.5005C110.519 33.2681 111.369 33.1519 112.18 33.0357L112.605 32.997C113.378 32.8421 114.189 32.8034 114.962 32.7259C115.811 32.6485 116.661 32.6485 117.511 32.571L118.477 32.4548C118.979 32.4161 119.481 32.3386 119.983 32.2999C120.331 32.2612 120.717 32.2224 121.065 32.2224C121.529 32.1837 121.992 32.145 122.456 32.1063C122.533 32.1063 122.61 31.9901 122.61 31.9126C122.61 31.7964 122.533 31.719 122.417 31.719C121.954 31.719 121.49 31.7577 121.026 31.7964C120.679 31.8351 120.292 31.8352 119.945 31.8739C119.443 31.9126 118.94 31.9126 118.438 31.9126C118.129 31.9126 117.782 31.9126 117.473 31.9513C116.623 31.9901 115.734 32.0288 114.884 32.145C114.112 32.2224 113.301 32.3386 112.489 32.4161L112.064 32.5323Z" fill="#7EB5D2"/>
<path d="M132.268 26.5293C132.268 26.6068 132.306 26.6842 132.306 26.7617C132.306 26.8779 132.306 26.9553 132.306 27.0715C132.306 27.2651 132.306 27.4588 132.268 27.6524C132.268 27.6912 132.422 27.7686 132.615 27.8074C132.808 27.8848 133.002 27.8848 133.002 27.8461C133.079 27.6137 133.156 27.4201 133.233 27.1877C133.272 27.0715 133.311 26.9553 133.349 26.8391C133.388 26.7617 133.388 26.6842 133.427 26.6068L133.465 26.5293C133.349 26.1807 133.388 25.7934 133.427 25.4449V25.2512L133.388 25.1351C133.311 24.9414 133.233 24.7478 133.195 24.5154C133.156 24.3605 133.117 24.2443 133.117 24.0894C133.079 23.8957 133.04 23.7408 132.963 23.5472C132.963 23.5084 132.77 23.5084 132.577 23.5472C132.384 23.5859 132.229 23.6634 132.229 23.7021C132.229 23.8957 132.268 24.0506 132.268 24.2443C132.306 24.3992 132.306 24.5154 132.306 24.6703C132.306 24.864 132.306 25.0576 132.268 25.2512L132.229 25.3674L132.268 25.5223C132.345 25.8322 132.384 26.142 132.229 26.4518L132.268 26.5293Z" fill="#002776"/>
<path d="M148.26 25.9097C148.26 25.9871 148.299 26.0259 148.299 26.1033C148.299 26.1808 148.299 26.2582 148.299 26.3744C148.299 26.5294 148.299 26.6843 148.299 26.8779C148.299 26.9166 148.453 26.9941 148.647 27.0328C148.84 27.1103 149.033 27.1103 149.033 27.1103C149.11 26.9166 149.187 26.7617 149.265 26.5681C149.303 26.4906 149.342 26.3744 149.381 26.2583C149.419 26.1808 149.419 26.1033 149.458 26.0646L149.496 26.0259C149.381 25.716 149.419 25.4062 149.458 25.1351V24.9802L149.419 24.9027C149.342 24.7478 149.303 24.5542 149.226 24.3993C149.187 24.2831 149.149 24.1669 149.149 24.0507C149.11 23.8958 149.072 23.7409 148.994 23.6247C148.994 23.586 148.801 23.6247 148.608 23.6634C148.415 23.7021 148.26 23.7796 148.26 23.8183C148.26 23.9732 148.299 24.1282 148.299 24.2443C148.338 24.3605 148.338 24.4767 148.338 24.5929C148.338 24.7478 148.338 24.9027 148.299 25.0577L148.26 25.1351L148.299 25.2513C148.376 25.4837 148.415 25.7548 148.26 25.9871V25.9097Z" fill="#002776"/>
<path d="M119.752 11.6574C119.559 11.0377 119.443 10.3793 119.443 9.75964C119.443 9.44981 119.52 9.10125 119.674 8.86887C119.829 8.6365 119.983 8.52031 120.254 8.55904C120.833 8.6365 121.336 9.10125 121.722 9.52727C121.954 9.75964 122.147 10.0307 122.34 10.3406C122.533 10.6117 122.688 10.8828 122.842 11.1539C123.074 11.5412 123.267 11.9672 123.46 12.3932C123.808 13.2065 124.078 14.0198 124.271 14.8719C124.31 15.0268 124.426 15.143 124.542 15.1042C124.658 15.0655 124.696 14.9493 124.658 14.7944C124.465 13.9036 124.233 13.0129 123.885 12.1996C123.731 11.7735 123.537 11.3088 123.306 10.8828C123.151 10.5729 122.997 10.3018 122.803 9.99201C122.61 9.68218 122.417 9.37235 122.147 9.10125C121.915 8.83015 121.683 8.59777 121.374 8.3654C121.065 8.17175 120.679 7.93938 120.215 7.93938C120.022 7.90065 119.752 7.97811 119.559 8.0943C119.365 8.21048 119.211 8.40413 119.134 8.59777C118.94 8.98506 118.902 9.33362 118.863 9.72091C118.825 10.4568 118.94 11.1539 119.134 11.851C119.211 12.0834 119.288 12.3157 119.404 12.5481C119.713 13.1678 120.099 13.7874 120.717 14.1747C121.026 14.4071 121.374 14.5233 121.76 14.6008H121.915C121.992 14.6008 122.069 14.6008 122.108 14.6008L122.533 14.562L122.726 14.5233H122.842H122.881C122.919 14.5233 122.881 14.4846 122.881 14.4846C122.842 14.3684 122.803 14.2135 122.765 14.0973C122.688 13.9424 122.688 13.8262 122.572 13.6713L122.494 13.5163C122.456 13.4776 122.456 13.4389 122.417 13.4002C122.301 13.2452 122.185 13.0903 122.069 12.9741C121.838 12.703 121.567 12.4319 121.258 12.1996C120.679 11.7348 120.061 11.3088 119.288 11.1152C118.747 10.9602 118.052 10.9215 117.511 11.3088C117.086 11.6186 116.893 12.1608 116.893 12.6256C116.932 13.1291 117.086 13.5551 117.318 13.9036C117.627 14.4458 118.052 14.9106 118.554 15.3366C119.134 15.8401 119.868 16.2274 120.64 16.421C120.795 16.4597 120.949 16.3823 120.949 16.3048C120.949 16.1886 120.872 16.0724 120.717 16.0724C120.022 15.8788 119.365 15.4915 118.786 15.0268C118.361 14.6782 117.975 14.2135 117.704 13.71C117.511 13.3614 117.395 12.9741 117.395 12.6256C117.395 12.277 117.55 11.9285 117.82 11.7735C118.168 11.5799 118.631 11.5799 119.095 11.7348C119.713 11.9285 120.293 12.3157 120.795 12.7418C121.065 12.9354 121.297 13.1678 121.529 13.4389C121.645 13.5551 121.76 13.6713 121.838 13.8262L121.954 14.0198V14.0585C121.954 14.0585 121.954 14.0585 121.915 14.0585H121.876H121.76C121.49 14.0198 121.22 13.9424 120.988 13.7487C120.524 13.4389 120.138 12.8967 119.906 12.3545C119.906 12.0834 119.829 11.8897 119.752 11.6574Z" fill="#005AA4"/>
<path d="M149.535 12.8967C149.535 13.3227 149.381 13.7875 149.11 14.136C148.956 14.3297 148.84 14.5233 148.724 14.6782C148.647 14.7557 148.569 14.8719 148.531 14.9493C148.453 15.0268 148.376 15.1043 148.299 15.1817C148.183 15.2979 148.067 15.3754 147.951 15.4916C147.719 15.6852 147.449 15.8401 147.179 15.9563C147.14 15.995 147.14 16.0725 147.179 16.1887C147.217 16.3049 147.295 16.3436 147.333 16.3436C147.642 16.2274 147.951 16.0725 148.222 15.9176C148.376 15.8401 148.531 15.7239 148.647 15.6465C148.724 15.569 148.84 15.4916 148.917 15.4141C149.033 15.3366 149.11 15.2592 149.226 15.143C149.381 14.9493 149.535 14.7557 149.651 14.4846C149.844 14.0199 150.037 13.5164 150.114 12.9742C150.114 12.8967 150.114 12.7805 150.114 12.7031C150.114 12.5869 150.076 12.432 150.037 12.2771C149.999 12.1221 149.921 11.9672 149.767 11.851C149.612 11.6961 149.381 11.6961 149.187 11.7348C148.994 11.7736 148.878 11.851 148.762 11.9672C148.299 12.3545 148.067 12.8193 147.835 13.284C147.758 13.4776 147.681 13.6326 147.642 13.8262L147.372 14.6782L147.179 15.2979C147.101 15.569 147.024 15.8014 146.985 16.1112C146.985 16.1887 147.063 16.2274 147.179 16.2274C147.295 16.2274 147.372 16.2274 147.372 16.1499C147.449 15.9176 147.526 15.6465 147.604 15.4141C147.681 15.2205 147.719 15.0268 147.797 14.8332C147.913 14.5621 148.028 14.291 148.183 14.0586C148.26 13.9037 148.338 13.7488 148.453 13.5938C148.685 13.2065 148.917 12.7418 149.187 12.4707C149.265 12.3932 149.303 12.3545 149.342 12.3545C149.381 12.3545 149.381 12.3545 149.419 12.3545C149.458 12.3932 149.535 12.5869 149.535 12.7805C149.535 12.7418 149.535 12.8193 149.535 12.8967Z" fill="#005AA4"/>
</svg>
