<svg width="123" height="154" viewBox="0 0 123 154" fill="none" xmlns="http://www.w3.org/2000/svg">
<g clip-path="url(#clip0_414_31327)">
<path d="M107.554 82.3032C102.945 82.9564 98.2676 84.2977 94.8209 85.2861C81.6495 89.0629 61.4195 100.744 45.5975 117.577C25.0451 97.0074 28.4075 98.0481 18.0251 87.3926L18.0689 82.4348L104.006 75.9696L108.004 78.2982L107.554 82.3032Z" fill="#DC8000"/>
<path d="M18.0689 82.4349C27.6233 92.5259 34.7664 102.105 44.9532 111.614C59.1093 97.7983 77.1404 86.3463 96.4666 80.8046C100.283 79.7104 104.169 78.8631 107.969 78.1747C102.179 58.4502 98.6449 49.8407 95.5843 40.5607C92.2775 41.1079 88.76 41.8493 85.1902 42.8729C62.1711 49.4735 38.6934 65.1604 24.3215 76.3651C22.1783 78.1825 20.1413 80.3704 18.0689 82.4349Z" fill="#F8B181"/>
<path d="M54.5391 51.662C55.5019 48.9801 56.0246 46.1572 55.4917 43.3696C53.0212 29.6435 18.7293 19.6959 13.5407 20.6491C12.3974 20.8433 11.9253 22.4488 12.824 23.2603C16.9487 27.4237 23.9416 31.8339 30.8621 35.062C27.466 34.8329 23.2436 34.9744 18.0549 35.9276C16.4193 36.263 14.6605 36.6337 13.0957 37.216C11.777 37.7278 11.5342 39.6686 12.8023 40.3742C19.8998 44.2197 27.5554 45.3658 35.3847 45.2593C29.6346 47.0417 24.22 49.5299 19.2827 53.2178C18.9488 53.4472 18.8089 53.8883 18.792 54.2941C18.8106 54.8233 19.2338 55.3702 19.9201 55.4408C24.7951 56.1813 39.4858 55.8448 44.9207 54.821C47.9458 54.2208 50.9878 53.2149 54.5391 51.662Z" fill="#F8E9DD"/>
<path d="M78.3192 96.0322C83.8299 98.0607 99.4313 105.081 103.15 118.049C105.558 126.446 101.315 134.88 97.0067 136.116C94.9141 136.716 93.3104 135.304 92.4605 132.34C91.2211 128.018 91.4065 123.554 91.6628 119.338C89.5955 124.207 85.9296 130.471 80.5522 134.018C79.6382 134.547 78.618 134.706 77.667 134.177C77.1915 133.912 76.839 133.612 76.6265 132.871C76.0245 130.772 78.4847 119.374 79.3767 116.445C77.9012 117.804 74.3179 121.103 71.2422 122.921C70.2052 123.486 68.7786 122.692 68.8292 121.474C69.1832 112.953 73.4392 102.243 78.3192 96.0322Z" fill="#F8E9DD"/>
<path d="M38.1185 78.0223C37.9246 77.8106 37.7306 77.5989 37.5367 77.3872C37.3074 77.052 37.078 76.7168 36.9718 76.3463C36.7593 75.6053 36.7054 74.9525 37.0561 74.3173C37.1792 74.282 36.9499 73.9468 36.7559 73.7351C36.562 73.5234 36.245 73.347 36.0342 73.5411C35.2265 74.441 35.0528 75.6936 35.3715 76.8051C35.5132 77.2991 35.6903 77.9166 35.955 78.3753C36.1843 78.7105 36.4137 79.0457 36.643 79.3809L36.8369 79.5926C37.5064 80.0689 38.3343 80.6334 39.3899 80.598C39.9177 80.5803 40.4455 80.5626 40.9025 80.298C41.3595 80.0333 41.6934 79.8039 42.1149 79.4157C42.2903 79.0981 42.5888 78.7452 42.641 78.4629C42.6933 78.1806 42.6225 77.9336 42.7102 77.7748C42.6022 76.4693 41.862 75.7459 41.3679 74.9521C40.9446 74.4052 40.4337 74.0171 39.8873 73.5055C39.5349 73.2056 39.2179 73.0291 38.6547 72.9233C38.2145 72.7822 37.6513 72.6764 36.9482 73.0117C36.7374 73.2058 36.6851 73.4881 37.0375 73.788C37.2315 73.9997 37.5485 74.1761 37.5485 74.1761C37.7947 74.1055 38.5518 74.423 39.0628 74.8111C39.5383 75.0757 39.9261 75.4991 40.1909 75.9578C40.6495 76.6282 40.9851 77.3339 40.8452 77.775C40.8806 77.8985 40.7575 77.9338 40.7575 77.9338C40.7929 78.0573 40.6698 78.0926 40.7052 78.2161C40.6175 78.3749 40.4067 78.569 40.2836 78.6043C40.0374 78.6749 39.9144 78.7102 39.6682 78.7808C39.2635 78.7632 38.7879 78.4986 38.5232 78.0399L38.1185 78.0223Z" fill="#DC8000"/>
<path d="M31.952 82.9982C31.758 82.7865 31.5641 82.5748 31.3702 82.3631C31.1409 82.0279 30.9115 81.6927 30.8053 81.3222C30.5928 80.5813 30.5388 79.9285 30.8896 79.2933C31.0127 79.258 30.7833 78.9228 30.5894 78.7111C30.3955 78.4994 30.0785 78.323 29.8677 78.5171C29.06 79.417 28.8863 80.6696 29.205 81.7811C29.3467 82.2751 29.5237 82.8926 29.7885 83.3513C30.0178 83.6865 30.2472 84.0217 30.4765 84.3569L30.6704 84.5686C31.3399 85.0449 32.1678 85.6094 33.2234 85.574C33.7866 85.6798 34.279 85.5386 34.7714 85.3975C35.2284 85.1328 35.5623 84.9034 35.9838 84.5152C36.1592 84.1976 36.4577 83.8447 36.5099 83.5624C36.5622 83.2801 36.4914 83.0331 36.5791 82.8743C36.4711 81.5687 35.7309 80.8454 35.2368 80.0515C34.8135 79.5046 34.3026 79.1165 33.7562 78.6049C33.4038 78.305 33.0868 78.1286 32.5236 78.0228C32.0834 77.8817 31.5202 77.7759 30.8171 78.1112C30.6063 78.3053 30.554 78.5876 30.9064 78.8875C31.1004 79.0992 31.4174 79.2756 31.4174 79.2756C31.6636 79.205 32.4207 79.5225 32.9316 79.9106C33.4072 80.1752 33.795 80.5986 34.0598 81.0573C34.5184 81.7277 34.854 82.4334 34.7141 82.8745C34.7495 82.998 34.6264 83.0333 34.6264 83.0333C34.6618 83.1568 34.5387 83.1921 34.5741 83.3156C34.4864 83.4744 34.2756 83.6685 34.1525 83.7038C33.9063 83.7744 33.7832 83.8097 33.5371 83.8803C33.1323 83.8626 32.6568 83.598 32.3921 83.1393L31.952 82.9982Z" fill="#DC8000"/>
<path d="M28.1764 87.0212C28.335 87.1094 28.3704 87.2329 28.5289 87.3211L29.0398 87.7092L29.9386 88.5207C29.9386 88.5207 30.3079 88.4148 30.5187 88.2207C30.7295 88.0266 30.9402 87.8325 30.9048 87.709L30.2168 86.7035L29.9167 86.1213C29.8812 85.9978 29.8458 85.8743 29.6873 85.7861L29.6519 85.6626C29.141 85.2745 28.7531 84.8511 28.453 84.2689L28.259 84.0572L28.1005 83.969C27.7835 83.7926 27.5542 83.4574 27.2372 83.281C27.0432 83.0693 26.8493 82.8576 26.6554 82.6459C26.4615 82.4342 26.2321 82.099 25.9151 81.9226C25.9151 81.9226 25.5458 82.0284 25.3351 82.2225C25.0012 82.4519 24.9135 82.6107 24.9489 82.7342C25.0551 83.1047 25.2491 83.3164 25.4784 83.6516C25.6723 83.8633 25.8662 84.075 25.9371 84.322C26.2187 84.3749 26.448 84.7101 26.6773 85.0453L26.7482 85.2923L26.9421 85.504C27.3299 85.9274 27.8409 86.3155 28.1764 87.0212Z" fill="#DC8000"/>
<path d="M67.8728 98.6267C67.694 97.0741 67.6383 95.4862 67.495 94.0572C63.2776 87.2473 51.4753 69.7817 45.865 61.3664C50.487 58.4372 55.4261 55.6845 60.5236 53.0199C63.4004 57.9421 68.2856 64.2931 80.5365 86.5753C80.6798 88.0044 80.8232 89.4334 80.9665 90.8625C76.7829 92.9977 72.3363 95.6093 67.8728 98.6267Z" fill="#F8E9DD"/>
</g>
<defs>
<clipPath id="clip0_414_31327">
<rect width="89" height="134" fill="white" transform="translate(0 24.5317) rotate(-16)"/>
</clipPath>
</defs>
</svg>
