<?xml version="1.0" encoding="utf-8"?>
<!-- Generator: Adobe Illustrator 27.5.0, SVG Export Plug-In . SVG Version: 6.00 Build 0)  -->
<svg version="1.1" id="Layer_1" xmlns="http://www.w3.org/2000/svg" xmlns:xlink="http://www.w3.org/1999/xlink" x="0px" y="0px"
	 viewBox="0 0 500 700" style="enable-background:new 0 0 500 700;" xml:space="preserve">
<style type="text/css">
	.st0{fill:#DC8000;}
	.st1{fill:#F8E9DD;}
	.st2{fill:none;}
	.st3{fill:#FFFFFF;}
	.st4{fill:#005AA4;}
	.st5{fill:#D3D3EA;}
	.st6{fill:#002776;}
	.st7{fill:#EE8D9C;}
	.st8{fill:#F8B181;}
</style>
<g>
	<g>
		<path class="st0" d="M287.64,183.46c4.76,2.2,10.01,3.44,15.27,3.44c10.26,0,18.64-4.41,18.64-14.47
			c0-11.01-10.78-24.28-24.92-24.28c-1.33,0-2.69,0.12-4.07,0.36c-0.1,0.53-0.09,0.52-0.19,1.06c4.56,2.69,10.26,4.08,15.65,4.08
			c9.19,0,17.44-4.04,17.44-12.56c0-7.32-4.94-16.33-15.79-22.45c-6.41-3.61-11.09-9.69-13.24-16.73
			c-8.94-29.3-27.67-44.51-46.5-48.19c-4.18-0.82-8.49-0.96-12.7-0.34c-21.1,3.12-33.97,21.52-40.69,43.3
			c-2.52,8.17-8.52,14.78-16.32,18.28c-9.65,4.33-19.05,11-19.05,20.99c0,6.89,7.69,10.37,15.61,10.37c4.41,0,8.88-1.08,12.14-3.23
			c-0.06-0.35-0.07-0.43-0.13-0.78c-3.47-1.02-6.81-1.48-9.98-1.48c-17.92,0-30.53,14.76-30.53,27.55c0,9.76,7.35,18.36,25.3,18.36
			c5.46,0,10.39-1.3,15.3-4.67"/>
	</g>
	<g>
		<path class="st1" d="M260.34,188.39c0-0.04,0-0.07,0-0.11c0-5.07-0.07-11.06-0.07-17.45c0-19.16,0.6-42.01,5.36-55.19
			c-1.98-2.31-43.98,1.32-43.98,1.32c-0.39,22.14-2.05,44.15-2.05,66.31c0,2.15,0.02,4.29,0.05,6.44L260.34,188.39z"/>
	</g>
	<g>
		<path class="st1" d="M212.44,100.95c-0.7,4.54-1.17,9.22-1.17,13.87c0,19.22,8.46,35.56,29.55,35.56
			c29.4,0,34.15-25.72,35.7-44.58c-15.21-3.89-25.06-19.4-27.72-34.51C243.86,85.43,228.32,97.15,212.44,100.95z"/>
	</g>
	<g>
		<g>
			<line class="st2" x1="211.53" y1="114.82" x2="209.12" y2="114.82"/>
		</g>
		<g>
			<line class="st2" x1="279.23" y1="105.89" x2="276.83" y2="105.7"/>
		</g>
		<g>
			<path class="st0" d="M256.27,148.39c5.05-2.22,9.52-5.99,12.93-10.41c1.84-2.42,3.17-4.84,4.21-7.2
				c0.57-1.31,1.06-2.66,1.51-4.02c0.4-1.25,0.76-2.51,1.1-3.76c0.47-1.82,0.9-3.65,1.23-5.5c0.64-3.49,1.06-7.01,1.33-10.53
				c0.05-0.63-0.2-1.15-0.55-1.17c-0.34-0.03-0.67,0.44-0.73,1.06c-0.36,3.5-0.89,6.97-1.64,10.39c-0.38,1.78-0.85,3.53-1.36,5.27
				c-0.37,1.22-0.79,2.41-1.24,3.59c-0.51,1.28-1.05,2.54-1.63,3.79c-1.03,2.22-2.24,4.52-3.89,6.9c-2.89,4.39-7.23,7.88-12.02,9.83
				c-0.81,0.38-1.67,0.63-2.52,0.93c-4.72,1.64-10,2.08-14.92,1.64l-1-0.07l-0.99-0.17l-1.98-0.33c-0.67-0.09-1.29-0.34-1.95-0.5
				c-0.64-0.2-1.31-0.32-1.93-0.58c-1.23-0.54-2.53-0.93-3.67-1.64c-0.58-0.33-1.2-0.61-1.76-0.98l-1.65-1.15
				c-1.6-1.18-3.06-2.57-4.36-4.1c-2.03-2.45-3.68-5.23-4.88-8.23c-0.4-1.09-0.77-2.19-1.13-3.3c-0.27-1.13-0.58-2.26-0.81-3.4
				c-0.22-1.44-0.54-2.89-0.64-4.38c-0.07-0.74-0.17-1.48-0.22-2.23L211,115.9c-0.03-0.6-0.34-1.08-0.68-1.08
				c-0.34,0-0.61,0.49-0.6,1.11l0.03,2.3c0.04,0.77,0.12,1.53,0.19,2.3c0.09,1.53,0.41,3.03,0.64,4.52
				c0.23,1.18,0.55,2.34,0.82,3.51c0.36,1.15,0.72,2.3,1.11,3.45c1.19,3.15,2.79,6.17,4.85,8.89c1.31,1.69,2.81,3.25,4.48,4.58
				l1.75,1.31c0.6,0.42,1.26,0.74,1.89,1.11c1.25,0.79,2.65,1.23,4,1.79c0.68,0.27,1.4,0.4,2.09,0.6c0.7,0.16,1.39,0.42,2.11,0.5
				c0.71,0.1,1.42,0.2,2.12,0.31l1.06,0.15l1.06,0.04c5.22,0.31,10.61-0.27,15.67-1.82C254.49,149.11,255.4,148.81,256.27,148.39z"
				/>
		</g>
	</g>
	<g>
		<path class="st3" d="M227.44,318.82c-47.26-0.91-84.33-12.36-84.33-60.09c0-28.41,14.26-64.16,28.65-87.14
			c9.89-1.85,24.93-3.59,42-4.98c-0.37-5.21-0.73-10.42-0.88-15.66c14.02,1.73,21.86,11.12,28.51,23.85
			c3.66-14.49,11.62-21.92,24.44-25.62c0.21,4.84,0.54,9.66,0.88,14.49c10.62-0.24,27.86-0.36,39.8-0.36
			c15.03,21.68,36.91,59.54,36.91,99.57c0,50.24-39.45,45.87-70.36,49"/>
	</g>
	<g>
		<g>
			<path class="st4" d="M184.28,211.54l108.47-5.29l-7.37,77.79l-73.98,3.23C211.4,287.27,181.63,265.45,184.28,211.54z"/>
		</g>
		<g>
			<g>
				<line class="st2" x1="258.54" y1="275.92" x2="260.82" y2="275.14"/>
			</g>
			<g>
				<line class="st2" x1="266" y1="246.28" x2="264.39" y2="248.07"/>
			</g>
			<g>
				<path class="st5" d="M269.09,241.55c-1.81-0.46-3.8-0.61-5.7-0.05c-1.91,0.51-3.59,1.72-4.86,3.21
					c-1.31,1.7-2.06,3.59-1.86,5.67c0.16,1.17,0.87,2.32,1.84,2.94c0.87,0.6,1.83,0.87,2.77,0.99c1.36,0.16,2.71,0.01,3.98-0.5
					c0.6-0.25,1.19-0.6,1.69-1.1c0.5-0.49,0.89-1.22,0.92-1.99c0.05-0.76-0.2-1.45-0.53-2.02c-0.33-0.57-0.74-1.05-1.17-1.48
					c-0.31-0.31-0.76-0.31-0.99-0.05c-0.23,0.26-0.19,0.67,0.07,0.95c0.72,0.76,1.3,1.72,1.18,2.5c-0.07,0.76-0.85,1.38-1.79,1.7
					c-0.97,0.33-2.08,0.4-3.1,0.22c-0.71-0.13-1.38-0.41-1.85-0.81c-0.53-0.43-0.78-0.99-0.85-1.63c-0.1-1.19,0.38-2.77,1.34-4.17
					c0.86-1.28,2.18-2.32,3.7-2.71c1.5-0.45,3.17-0.27,4.68,0.18c0.52,0.17,1.03,0.37,1.53,0.61c1.4,0.62,2.69,1.57,3.61,2.78
					c0.92,1.2,1.5,2.63,1.54,4.07c0.08,1.56-0.35,3.11-1.28,4.4c-0.9,1.32-2.22,2.43-3.61,3.49c-1.04,0.78-2.16,1.51-3.29,2.26
					c-1.78,1.18-3.61,2.37-5.28,3.87c-1.17,1.1-2.28,2.38-2.9,3.96c-0.81,1.97-0.71,4.27-0.04,6.19c0.13,0.4,0.51,0.61,0.83,0.5
					c0.32-0.11,0.49-0.49,0.4-0.86c-0.47-1.81-0.52-3.7,0.15-5.31c0.51-1.29,1.46-2.41,2.57-3.36c1.56-1.32,3.41-2.36,5.27-3.41
					c1.17-0.66,2.36-1.33,3.51-2.09c1.56-1.03,3.12-2.27,4.27-3.98c1.18-1.68,1.69-3.85,1.48-5.83c-0.14-1.88-0.97-3.66-2.12-5.1
					c-1.16-1.45-2.66-2.56-4.26-3.38C270.34,241.96,269.73,241.73,269.09,241.55z"/>
			</g>
		</g>
		<g>
			<g>
				<line class="st2" x1="274.21" y1="242.21" x2="274.91" y2="239.91"/>
			</g>
			<g>
				<line class="st2" x1="269.99" y1="224.37" x2="267.68" y2="223.71"/>
			</g>
			<g>
				<path class="st5" d="M269.31,218.52c1.19-0.15,2.48-0.02,3.64,0.38c1.15,0.4,2.19,1.16,2.6,2.12c0.47,0.99,0.32,2.05-0.07,3.04
					c-0.21,0.55-0.5,1.08-0.86,1.56c-0.34,0.44-0.74,0.84-1.19,1.15c-0.66,0.43-1.41,0.71-2.18,0.74c-0.71,0.02-1.34-0.2-1.67-0.71
					c-0.35-0.5-0.4-1.3-0.26-2.08c0.05-0.28-0.17-0.58-0.5-0.68c-0.33-0.1-0.68,0.08-0.76,0.42c-0.2,0.93-0.3,2.06,0.3,3.1
					c0.6,1.07,1.86,1.54,2.91,1.55c1.09,0.02,2.18-0.29,3.1-0.82c0.65-0.38,1.24-0.84,1.75-1.38c0.56-0.58,1.04-1.26,1.38-2.02
					c0.29-0.68,0.5-1.45,0.52-2.29c0.02-0.85-0.19-1.79-0.69-2.6c-0.95-1.45-2.38-2.28-3.79-2.79c-1.44-0.5-2.92-0.71-4.41-0.61
					c-0.51,0.04-1.03,0.1-1.53,0.22c-2.78,0.78-5.25,2.66-6.67,5.14c-0.74,1.33-1.28,2.91-1.21,4.56c0.01,1.62,0.52,3.16,1.24,4.5
					c0.51,1.02,1.18,1.92,1.86,2.78c1.12,1.34,2.39,2.51,3.72,3.58c0.96,0.77,1.97,1.47,3.01,2.13c1.31,0.8,2.74,1.52,4.26,1.97
					c0.31,0.09,0.63-0.1,0.73-0.43c0.1-0.33-0.04-0.67-0.32-0.78c-1.36-0.55-2.7-1.22-3.93-1.98c-0.97-0.63-1.93-1.29-2.79-2.07
					c-1.22-1.06-2.3-2.26-3.2-3.57c-0.54-0.83-1.05-1.67-1.42-2.55c-1.08-2.39-1.28-4.93-0.12-7.14c1-2.04,3.03-3.74,5.3-4.2
					C268.48,218.63,268.9,218.57,269.31,218.52z"/>
			</g>
		</g>
		<g>
			<g>
				<line class="st2" x1="227.47" y1="276.05" x2="229.88" y2="276.01"/>
			</g>
			<g>
				<line class="st2" x1="213.86" y1="250.75" x2="211.6" y2="249.93"/>
			</g>
			<g>
				<path class="st5" d="M211.52,245.04c1.5-0.62,3.25-0.9,4.9-0.69c1.65,0.21,3.22,0.99,4.07,2.26c0.98,1.32,1.14,3,1.06,4.43
					c-0.06,0.78-0.3,1.51-0.72,2.15c-0.38,0.59-0.93,1.1-1.58,1.45c-0.93,0.52-2.07,0.75-3.14,0.66c-1.02-0.08-2-0.5-2.56-1.24
					c-0.58-0.73-0.67-1.8-0.43-2.84c0.08-0.36-0.08-0.76-0.41-0.88c-0.32-0.12-0.72,0.12-0.84,0.57c-0.35,1.23-0.35,2.79,0.52,4.01
					c0.84,1.22,2.25,1.82,3.57,1.99c1.39,0.17,2.82-0.04,4.1-0.67c0.9-0.43,1.73-1.06,2.37-1.87c0.7-0.88,1.16-1.98,1.29-3.09
					c0.12-1,0.04-1.94-0.17-2.98c-0.23-1.02-0.7-2.08-1.46-2.98c-1.42-1.64-3.46-2.48-5.44-2.74c-1.99-0.25-3.99-0.01-5.84,0.67
					c-0.64,0.24-1.25,0.53-1.84,0.88c-1.59,1.05-3.01,2.45-3.84,4.29c-0.2,0.46-0.36,0.95-0.46,1.47c-0.1,0.52-0.11,1.07-0.08,1.5
					c0.01,0.92,0.11,1.86,0.31,2.77c0.42,1.96,1.41,3.96,2.93,5.4c1.48,1.48,3.27,2.5,5.05,3.26c1.32,0.59,2.66,1.07,3.98,1.56
					c2.08,0.76,4.13,1.52,5.97,2.62c1.31,0.78,2.48,1.78,3.33,2.99c1.1,1.5,1.65,3.4,1.83,5.33c0.04,0.39,0.35,0.7,0.69,0.7
					c0.34,0,0.6-0.35,0.59-0.78c-0.05-2.12-0.67-4.35-1.95-6.09c-0.99-1.4-2.3-2.52-3.69-3.44c-1.96-1.25-4.05-2.18-6.08-3.08
					c-1.28-0.57-2.54-1.13-3.74-1.74c-1.63-0.83-3.17-1.76-4.38-2.95c-1.25-1.16-2.05-2.65-2.49-4.27c-0.2-0.75-0.32-1.55-0.35-2.36
					c-0.04-0.43-0.03-0.77,0.02-1.1c0.05-0.35,0.16-0.69,0.3-1.04c0.58-1.38,1.76-2.57,3.11-3.35
					C210.49,245.52,211,245.26,211.52,245.04z"/>
			</g>
		</g>
		<g>
			<g>
				<line class="st2" x1="202.74" y1="241.52" x2="204.01" y2="243.57"/>
			</g>
			<g>
				<line class="st2" x1="207.14" y1="223.43" x2="207.47" y2="225.82"/>
			</g>
			<g>
				<path class="st5" d="M202.22,219.02c-1.59,0.8-3.15,1.99-4.04,3.78c-0.44,0.89-0.65,1.9-0.61,2.91c0.05,1.01,0.31,1.9,0.63,2.78
					c0.76,1.86,1.98,3.44,3.76,4.27c0.98,0.44,2.16,0.53,3.16,0.31c0.93-0.19,1.77-0.58,2.52-1.05c1.07-0.7,2-1.57,2.71-2.62
					c0.34-0.49,0.63-1.03,0.84-1.63c0.2-0.6,0.35-1.27,0.17-2.02c-0.16-0.77-0.86-1.42-1.52-1.62c-0.66-0.22-1.29-0.25-1.88-0.19
					c-0.42,0.04-0.72,0.36-0.66,0.7c0.05,0.34,0.37,0.6,0.72,0.58c0.5-0.04,0.98,0.03,1.35,0.17c0.37,0.16,0.53,0.37,0.59,0.69
					c0.11,0.68-0.35,1.66-0.94,2.41c-0.61,0.81-1.43,1.49-2.3,1.99c-0.62,0.34-1.28,0.56-1.92,0.63c-0.71,0.08-1.33-0.05-1.93-0.34
					c-1.06-0.52-2.07-1.64-2.8-3.11c-0.34-0.66-0.6-1.4-0.67-2.07c-0.05-0.67,0.07-1.37,0.38-1.99c0.63-1.26,1.9-2.22,3.27-2.83
					c0.47-0.21,0.97-0.39,1.48-0.53c1.38-0.49,2.93-0.64,4.39-0.54c1.47,0.14,2.92,0.58,4.18,1.25c1.36,0.73,2.55,1.77,3.28,3.03
					c0.36,0.63,0.57,1.31,0.67,2l0.05,0.53l-0.05,0.54c-0.02,0.18-0.02,0.36-0.04,0.54l-0.14,0.55c-0.09,0.55-0.37,1.08-0.57,1.62
					c-0.29,0.52-0.53,1.07-0.89,1.56c-1.05,1.61-2.4,3.1-3.88,4.44c-1.06,0.98-2.2,1.87-3.36,2.74c-1.46,1.07-3.02,2.11-4.55,3.15
					c-0.31,0.21-0.41,0.61-0.24,0.9c0.18,0.29,0.58,0.37,0.91,0.18c1.64-0.93,3.23-2,4.73-3.09c1.19-0.88,2.36-1.79,3.51-2.76
					c1.58-1.35,3.12-2.79,4.42-4.51c0.43-0.52,0.77-1.13,1.14-1.71c0.3-0.64,0.66-1.24,0.83-1.95l0.22-0.7
					c0.05-0.24,0.07-0.5,0.1-0.75l0.08-0.76l-0.04-0.77c-0.11-1.03-0.44-2.03-0.96-2.9c-1.05-1.74-2.64-2.95-4.29-3.75
					c-1.55-0.74-3.25-1.17-4.98-1.3c-1.74-0.09-3.45,0.08-5.11,0.54C203.36,218.5,202.78,218.74,202.22,219.02z"/>
			</g>
		</g>
	</g>
	<g>
		<path class="st6" d="M401.27,641.9C371.61,558,355.54,343.32,290.04,289c13.31-19.28,14.98-32.78,14.98-49.85
			c0-33.71-14.08-61.66-21.15-75.7c-2.93-0.47-6.82,0.09-6.82,0.09c2.94,10.84,8.33,27.69,8.33,55.9c0,21.15-4.06,40.76-10.07,60.55
			l-59.79,2.74c-13.84-18.65-22.36-32.01-22.36-63.15c0-17.28,2.98-35.21,6.17-51.43c-5.29,0.06-10.71,1.11-10.71,1.11
			c-7.16,21.93-14.93,46.31-14.93,69.18c0,20.15,6.01,37.47,20.16,50.45c-60.18,94.08-74.03,238.52-83.06,355.19
			c34.05,2.34,144.83,9.75,149.42,9.75C299.53,653.82,362.88,645.81,401.27,641.9z"/>
	</g>
	<g>
		<g>
			<g>
				<line class="st2" x1="113.09" y1="630.45" x2="113.26" y2="632.85"/>
			</g>
			<g>
				<line class="st2" x1="140.21" y1="625.74" x2="142.27" y2="624.51"/>
			</g>
			<g>
				<path class="st5" d="M146.87,626.33c-1.28,3.21-4.4,6.03-7.86,6.63c-0.93,0.16-1.81,0.2-2.61,0.07
					c-0.82-0.13-1.62-0.38-2.29-0.72c-0.76-0.36-1.4-0.87-1.66-1.43c-0.22-0.46-0.16-1.23,0.14-1.96c0.43-1.06,1.18-2.07,2.06-2.91
					c0.83-0.79,1.83-1.44,2.87-1.74c1.04-0.31,2.08-0.14,2.78,0.64c0.25,0.26,0.65,0.38,0.96,0.21c0.3-0.17,0.35-0.66,0-1.07
					c-0.48-0.56-1.16-1.01-1.91-1.2c-0.74-0.18-1.51-0.15-2.2,0.02c-1.39,0.35-2.58,1.08-3.6,1.96c-1.06,0.92-1.98,2.02-2.6,3.37
					c-0.41,0.92-0.76,2.09-0.35,3.38c0.49,1.31,1.52,2.13,2.52,2.67c0.91,0.48,1.91,0.79,2.98,0.94c1.1,0.14,2.25,0.03,3.39-0.24
					c4.05-1.22,7.42-4.13,9.16-7.87c0.3-0.65,0.52-1.34,0.7-2.04c0.19-1,0.26-2.02,0.16-3.06c-0.13-1.04-0.45-2.07-0.98-2.99
					c-1.05-1.85-2.83-3.16-4.72-3.84c-1.03-0.37-2.12-0.57-3.23-0.59c-1.17-0.03-2.36,0.29-3.38,0.8c-2.04,1.06-3.48,2.64-4.8,4.13
					c-0.99,1.12-1.94,2.24-2.92,3.31c-1.55,1.7-3.23,3.25-5.13,4.51c-1.35,0.92-2.83,1.65-4.36,2.21c-1.92,0.69-3.99,1.14-6.08,1.41
					c-0.42,0.06-0.74,0.38-0.72,0.72c0.02,0.34,0.39,0.59,0.84,0.56c2.2-0.14,4.41-0.6,6.46-1.34c1.63-0.59,3.2-1.37,4.68-2.28
					c2.06-1.28,3.94-2.82,5.66-4.48c1.08-1.03,2.11-2.11,3.13-3.15c1.39-1.39,2.76-2.78,4.27-3.58c0.76-0.39,1.53-0.62,2.35-0.63
					c0.87-0.02,1.74,0.11,2.56,0.37c1.52,0.48,2.93,1.46,3.73,2.82c0.4,0.68,0.65,1.44,0.74,2.23c0.07,0.79-0.01,1.63-0.2,2.42
					C147.27,625.19,147.11,625.77,146.87,626.33z"/>
			</g>
		</g>
		<g>
			<g>
				<line class="st2" x1="149.64" y1="621.8" x2="147.51" y2="622.9"/>
			</g>
			<g>
				<line class="st2" x1="165.19" y1="627.22" x2="162.96" y2="626.31"/>
			</g>
			<g>
				<path class="st5" d="M172.09,627.01c-0.19-1.43-0.85-2.89-1.94-3.95c-1.09-1.06-2.46-1.7-3.84-2.09
					c-1.51-0.36-2.94-0.41-4.33-0.03c-0.76,0.22-1.5,0.61-2.12,1.16c-0.57,0.5-1.03,1.17-1.29,1.9c-0.19,0.53-0.28,1.09-0.23,1.67
					c0.05,0.59,0.25,1.17,0.59,1.64c0.63,0.89,1.59,1.44,2.63,1.57c1.04,0.16,2.27-0.35,2.81-1.29c0.21-0.33,0.03-0.71-0.29-0.83
					c-0.33-0.12-0.65-0.05-0.78,0.12c-0.67,1.06-2.47,0.6-3.04-0.47c-0.31-0.52-0.28-1.15-0.02-1.75c0.18-0.41,0.49-0.76,0.87-1.01
					c0.42-0.28,0.91-0.47,1.44-0.59c0.93-0.23,2.1-0.24,3.35-0.07c1.13,0.14,2.23,0.59,3,1.36c0.78,0.76,1.19,1.8,1.28,2.89
					c0.02,0.38,0.03,0.77-0.02,1.14c0,1.06-0.38,2.05-1.07,2.82c-0.68,0.77-1.65,1.28-2.67,1.61c-2.23,0.66-4.85,0.49-7.18-0.05
					c-0.43-0.13-0.86-0.27-1.28-0.43c-0.4-0.2-0.84-0.34-1.22-0.59c-1.26-0.7-2.4-1.67-3.37-2.82c-0.71-0.82-1.31-1.74-1.89-2.68
					c-0.71-1.18-1.38-2.46-2.1-3.7c-0.15-0.25-0.51-0.32-0.81-0.17c-0.3,0.16-0.45,0.49-0.32,0.76c0.6,1.31,1.28,2.62,2.01,3.85
					c0.6,0.98,1.23,1.95,1.94,2.88c1,1.29,2.16,2.51,3.56,3.47c0.42,0.32,0.91,0.55,1.37,0.83c0.48,0.23,0.97,0.44,1.47,0.63
					c2.75,0.92,5.76,0.97,8.5-0.01c1.25-0.48,2.5-1.21,3.44-2.32c0.95-1.1,1.49-2.54,1.6-3.92
					C172.18,628.01,172.14,627.51,172.09,627.01z"/>
			</g>
		</g>
		<g>
			<g>
				<line class="st2" x1="166.14" y1="632.81" x2="165.85" y2="635.2"/>
			</g>
			<g>
				<line class="st2" x1="198.1" y1="631.05" x2="200.29" y2="630.04"/>
			</g>
			<g>
				<path class="st5" d="M205.54,631.48c-1.42,3.51-5.01,6.46-8.85,7.01c-2.08,0.36-3.88-0.02-5.41-0.85
					c-0.83-0.43-1.59-1.03-1.95-1.69c-0.16-0.31-0.23-0.61-0.22-0.94c0.05-0.37,0.13-0.76,0.32-1.15c0.5-1.13,1.43-2.18,2.47-3.01
					c0.99-0.8,2.14-1.41,3.32-1.66c1.18-0.22,2.34,0.03,3.01,0.98c0.24,0.31,0.64,0.51,0.97,0.37c0.31-0.13,0.41-0.66,0.07-1.13
					c-0.46-0.66-1.15-1.21-1.94-1.47c-0.79-0.28-1.61-0.26-2.38-0.16c-1.53,0.26-2.88,0.94-4.07,1.82
					c-1.23,0.91-2.33,2.03-3.08,3.49c-0.27,0.51-0.45,1.09-0.56,1.71c-0.09,0.67,0.02,1.38,0.28,1.99c0.59,1.32,1.64,2.16,2.7,2.78
					c0.96,0.54,2.02,0.92,3.21,1.12c1.19,0.14,2.43,0.13,3.67-0.18c4.42-1.14,8.29-4.14,10.2-8.26c0.33-0.71,0.57-1.47,0.74-2.24
					c0.45-2.17-0.02-4.66-1.37-6.51c-1.33-1.87-3.32-3.12-5.42-3.72c-0.57-0.16-1.15-0.28-1.76-0.34c-0.63-0.06-1.26-0.05-1.89,0.06
					c-1.25,0.2-2.4,0.71-3.41,1.32c-2.02,1.24-3.63,2.78-5.23,4.24c-1.19,1.09-2.37,2.15-3.61,3.13c-1.96,1.55-4.08,2.87-6.41,3.78
					c-1.66,0.67-3.41,1.1-5.19,1.35c-2.22,0.31-4.55,0.32-6.86,0.16c-0.47-0.03-0.87,0.22-0.91,0.56c-0.04,0.34,0.3,0.65,0.79,0.71
					c2.38,0.31,4.84,0.31,7.19-0.02c1.87-0.25,3.73-0.71,5.52-1.35c2.49-0.9,4.85-2.18,7-3.7c1.36-0.94,2.64-1.97,3.88-3
					c3.34-2.72,6.56-6.1,10.35-4.87c1.71,0.42,3.36,1.4,4.4,2.82c1.05,1.42,1.41,3.25,0.98,4.99
					C205.98,630.24,205.8,630.88,205.54,631.48z"/>
			</g>
		</g>
		<g>
			<g>
				<line class="st2" x1="208.36" y1="628.02" x2="206.12" y2="628.89"/>
			</g>
			<g>
				<line class="st2" x1="224.13" y1="635.44" x2="222.02" y2="634.3"/>
			</g>
			<g>
				<path class="st5" d="M231.44,636.04c-0.04-1.52-0.56-3.12-1.58-4.35c-1.02-1.23-2.38-2.05-3.79-2.62
					c-1.55-0.54-3.03-0.76-4.53-0.52c-0.82,0.15-1.63,0.47-2.35,0.97c-0.66,0.46-1.2,1.1-1.56,1.83c-0.26,0.53-0.41,1.1-0.43,1.71
					c-0.02,0.62,0.13,1.25,0.43,1.77c0.55,1,1.49,1.68,2.57,1.93c1.06,0.29,2.4-0.1,3.07-1.02c0.25-0.32,0.12-0.73-0.19-0.88
					c-0.31-0.16-0.65-0.11-0.8,0.06c-0.85,1.07-2.73,0.37-3.22-0.84c-0.28-0.59-0.17-1.28,0.17-1.89c0.24-0.42,0.61-0.76,1.05-0.99
					c0.48-0.26,1.03-0.41,1.61-0.47c1.02-0.14,2.26-0.02,3.57,0.31c1.18,0.28,2.29,0.89,3.03,1.8c0.74,0.9,1.06,2.05,1.04,3.22
					c-0.03,0.41-0.05,0.82-0.15,1.21c-0.13,1.12-0.65,2.14-1.47,2.88c-0.81,0.75-1.9,1.18-3.02,1.41c-2.44,0.46-5.19-0.02-7.6-0.87
					c-0.44-0.19-0.88-0.39-1.31-0.6c-0.4-0.26-0.85-0.46-1.23-0.77c-1.25-0.89-2.34-2.05-3.23-3.38c-0.66-0.94-1.19-1.99-1.69-3.04
					c-0.61-1.33-1.17-2.75-1.79-4.14c-0.13-0.28-0.48-0.41-0.8-0.28c-0.32,0.12-0.49,0.45-0.39,0.75c0.49,1.45,1.05,2.9,1.69,4.28
					c0.52,1.1,1.07,2.19,1.72,3.25c0.9,1.47,1.99,2.88,3.35,4.04c0.41,0.39,0.9,0.68,1.34,1.02c0.48,0.29,0.97,0.57,1.47,0.83
					c2.79,1.27,5.93,1.66,8.92,0.95c1.37-0.36,2.76-0.98,3.86-2.04c1.11-1.05,1.84-2.48,2.12-3.92
					C231.42,637.1,231.43,636.57,231.44,636.04z"/>
			</g>
		</g>
		<g>
			<g>
				<line class="st2" x1="228.99" y1="639.25" x2="228.91" y2="641.65"/>
			</g>
			<g>
				<line class="st2" x1="261.73" y1="633.67" x2="263.78" y2="632.4"/>
			</g>
			<g>
				<path class="st5" d="M269.3,632.73c-0.83,3.74-4,7.23-7.76,8.4c-1.01,0.32-2,0.46-2.93,0.48c-0.9-0.01-1.81-0.2-2.63-0.49
					c-0.91-0.31-1.77-0.78-2.27-1.4c-0.23-0.28-0.37-0.58-0.41-0.9c-0.05-0.33,0-0.76,0.11-1.17c0.34-1.2,1.12-2.38,2.05-3.35
					c0.89-0.93,1.96-1.71,3.12-2.11c1.16-0.39,2.36-0.29,3.16,0.58c0.28,0.28,0.71,0.43,1.01,0.26c0.29-0.17,0.33-0.71-0.07-1.14
					c-0.54-0.61-1.31-1.07-2.14-1.23c-0.83-0.17-1.65-0.04-2.4,0.16c-1.5,0.46-2.76,1.33-3.84,2.36c-1.11,1.09-2.07,2.36-2.6,3.95
					c-0.18,0.57-0.3,1.16-0.27,1.84c0.03,0.69,0.29,1.38,0.66,1.91c0.82,1.18,1.98,1.84,3.13,2.3c1.05,0.38,2.16,0.62,3.4,0.61
					c1.2-0.05,2.43-0.28,3.63-0.75c2.13-0.92,4.04-2.26,5.58-3.95c1.55-1.67,2.75-3.69,3.34-5.92c0.19-0.78,0.31-1.57,0.33-2.38
					c0.02-2.28-0.97-4.65-2.69-6.19c-1.7-1.57-3.91-2.43-6.12-2.61c-1.17-0.11-2.55,0.05-3.69,0.55c-1.17,0.49-2.17,1.21-3.06,1.98
					c-1.77,1.56-3.17,3.3-4.61,4.95c-1.07,1.23-2.14,2.42-3.3,3.52c-1.83,1.74-3.87,3.24-6.15,4.35c-1.63,0.8-3.37,1.37-5.15,1.75
					c-2.22,0.49-4.58,0.69-6.92,0.73c-0.48,0.01-0.86,0.3-0.87,0.64c-0.01,0.34,0.37,0.62,0.86,0.64c2.43,0.1,4.91-0.1,7.25-0.61
					c1.87-0.4,3.71-1,5.48-1.78c2.45-1.11,4.73-2.6,6.77-4.33c1.28-1.09,2.47-2.26,3.61-3.45c1.55-1.6,2.98-3.31,4.52-4.69
					c1.55-1.4,3.21-2.3,5.13-2.14c1.79,0.08,3.62,0.74,4.95,1.94c1.35,1.19,2.08,2.95,2,4.74
					C269.52,631.41,269.44,632.07,269.3,632.73z"/>
			</g>
		</g>
		<g>
			<g>
				<line class="st2" x1="271.55" y1="629.42" x2="269.43" y2="630.56"/>
			</g>
			<g>
				<line class="st2" x1="288.11" y1="634.88" x2="285.87" y2="634"/>
			</g>
			<g>
				<path class="st5" d="M295.43,634.6c-0.22-1.5-0.93-3.03-2.1-4.12c-1.16-1.1-2.61-1.75-4.08-2.14c-1.6-0.35-3.1-0.39-4.56,0.03
					c-0.79,0.24-1.57,0.66-2.21,1.25c-0.6,0.54-1.06,1.23-1.33,2c-0.19,0.56-0.27,1.15-0.22,1.75c0.06,0.62,0.28,1.22,0.64,1.7
					c0.67,0.92,1.68,1.49,2.78,1.61c1.09,0.16,2.37-0.39,2.92-1.38c0.21-0.35,0.03-0.74-0.29-0.85c-0.33-0.12-0.66-0.03-0.79,0.16
					c-0.71,1.17-2.66,0.7-3.3-0.45c-0.35-0.56-0.33-1.25-0.06-1.9c0.19-0.44,0.51-0.83,0.92-1.11c0.44-0.31,0.97-0.53,1.54-0.67
					c0.99-0.26,2.24-0.29,3.58-0.12c1.21,0.14,2.38,0.61,3.23,1.42c0.85,0.8,1.3,1.91,1.42,3.07c0.02,0.41,0.05,0.82,0,1.22
					c0.01,1.13-0.39,2.21-1.11,3.03c-0.71,0.84-1.75,1.4-2.83,1.76c-2.36,0.75-5.16,0.6-7.65,0.05c-0.46-0.13-0.92-0.28-1.37-0.44
					c-0.43-0.21-0.9-0.36-1.31-0.62c-1.35-0.73-2.57-1.75-3.62-2.96c-0.77-0.86-1.42-1.83-2.05-2.81c-0.77-1.24-1.5-2.59-2.28-3.89
					c-0.16-0.27-0.53-0.34-0.83-0.18c-0.3,0.16-0.43,0.51-0.3,0.79c0.66,1.38,1.4,2.75,2.19,4.05c0.65,1.03,1.33,2.05,2.1,3.02
					c1.07,1.35,2.32,2.62,3.82,3.61c0.45,0.34,0.97,0.57,1.46,0.85c0.51,0.23,1.03,0.45,1.56,0.64c2.92,0.93,6.09,0.94,8.97-0.13
					c1.31-0.52,2.62-1.31,3.59-2.49c0.98-1.17,1.53-2.69,1.63-4.15C295.54,635.65,295.49,635.12,295.43,634.6z"/>
			</g>
		</g>
		<g>
			<g>
				<line class="st2" x1="293.04" y1="638.52" x2="293.25" y2="640.92"/>
			</g>
			<g>
				<line class="st2" x1="318.42" y1="632.87" x2="320.41" y2="631.51"/>
			</g>
			<g>
				<path class="st5" d="M324.65,632.55c-0.87,3.02-3.48,5.9-6.61,6.7c-0.82,0.22-1.64,0.35-2.37,0.3
					c-0.75-0.04-1.49-0.22-2.14-0.45c-0.72-0.27-1.37-0.66-1.67-1.14c-0.15-0.22-0.22-0.41-0.22-0.72c-0.02-0.3,0.05-0.64,0.14-0.98
					c0.3-0.99,0.91-1.97,1.66-2.78c0.71-0.78,1.58-1.43,2.5-1.78c0.93-0.34,1.87-0.27,2.54,0.4c0.24,0.21,0.63,0.29,0.93,0.1
					c0.29-0.18,0.33-0.66-0.02-1.02c-0.48-0.5-1.15-0.88-1.86-1c-0.71-0.13-1.42-0.03-2.05,0.16c-1.27,0.42-2.33,1.16-3.22,2.05
					c-0.93,0.92-1.7,2.01-2.18,3.32c-0.15,0.47-0.29,0.96-0.31,1.51c-0.05,0.53,0.08,1.2,0.36,1.71c0.61,1.16,1.63,1.78,2.6,2.21
					c0.89,0.35,1.83,0.57,2.85,0.6c1.05,0.04,2.08-0.18,3.12-0.54c1.84-0.72,3.45-1.85,4.78-3.23c1.34-1.36,2.39-3.02,3.01-4.85
					c0.2-0.64,0.36-1.29,0.43-1.97c0.2-1.86-0.3-3.96-1.55-5.5c-1.23-1.55-3.03-2.51-4.86-2.9c-1.01-0.2-1.99-0.28-3.1-0.1
					c-1.09,0.19-2.11,0.68-2.95,1.28c-1.69,1.23-2.86,2.76-3.98,4.21c-0.84,1.08-1.65,2.16-2.52,3.17c-1.36,1.61-2.86,3.08-4.6,4.26
					c-1.24,0.85-2.58,1.54-3.99,2.07c-1.76,0.66-3.67,1.09-5.58,1.37c-0.39,0.06-0.67,0.38-0.64,0.72c0.03,0.34,0.38,0.58,0.79,0.55
					c2.03-0.15,4.07-0.61,5.95-1.31c1.5-0.56,2.95-1.29,4.32-2.14c1.9-1.2,3.61-2.68,5.16-4.27c0.97-1,1.88-2.04,2.76-3.06
					c1.21-1.37,2.36-2.78,3.66-3.73c0.64-0.47,1.32-0.81,2.03-0.96c0.68-0.14,1.55-0.13,2.31,0c1.44,0.24,2.84,0.94,3.76,2.06
					c0.92,1.11,1.3,2.59,1.07,4.08C324.91,631.48,324.8,632.01,324.65,632.55z"/>
			</g>
		</g>
		<g>
			<g>
				<line class="st2" x1="326.96" y1="628.67" x2="324.89" y2="629.9"/>
			</g>
			<g>
				<line class="st2" x1="341.38" y1="632.87" x2="339.1" y2="632.09"/>
			</g>
			<g>
				<path class="st5" d="M347.61,632.26c-0.25-1.3-0.94-2.62-2.01-3.53c-1.06-0.92-2.35-1.43-3.64-1.73
					c-1.41-0.25-2.71-0.23-3.98,0.2c-0.69,0.25-1.35,0.65-1.89,1.2c-0.5,0.5-0.89,1.14-1.09,1.83c-0.15,0.5-0.19,1.03-0.12,1.56
					c0.08,0.55,0.3,1.08,0.64,1.49c0.64,0.79,1.55,1.25,2.53,1.3c0.97,0.1,2.09-0.45,2.54-1.35c0.17-0.32-0.03-0.67-0.36-0.77
					c-0.33-0.1-0.65-0.03-0.75,0.12c-0.52,0.96-2.12,0.63-2.67-0.28c-0.29-0.43-0.29-0.98-0.09-1.52c0.14-0.36,0.4-0.68,0.72-0.93
					c0.35-0.27,0.78-0.45,1.25-0.58c0.81-0.25,1.86-0.33,2.99-0.24c1.02,0.05,2.03,0.4,2.76,1.04c0.73,0.64,1.15,1.54,1.28,2.51
					c0.03,0.34,0.07,0.68,0.04,1.02c0.06,0.95-0.23,1.85-0.8,2.56c-0.56,0.72-1.41,1.22-2.3,1.56c-1.96,0.71-4.33,0.68-6.46,0.32
					c-0.79-0.18-1.57-0.41-2.31-0.77c-1.18-0.55-2.26-1.37-3.2-2.36c-0.69-0.7-1.28-1.5-1.86-2.32c-0.69-1.06-1.4-2.15-2.11-3.24
					c-0.15-0.22-0.5-0.25-0.8-0.08c-0.29,0.17-0.43,0.5-0.3,0.73c0.61,1.16,1.29,2.31,2.03,3.4c0.6,0.86,1.22,1.71,1.92,2.53
					c0.97,1.12,2.09,2.18,3.42,2.99c0.4,0.28,0.86,0.46,1.29,0.69c0.45,0.18,0.91,0.36,1.38,0.5c2.57,0.71,5.32,0.58,7.78-0.46
					c1.12-0.51,2.23-1.25,3.03-2.33c0.81-1.07,1.24-2.42,1.27-3.7C347.75,633.17,347.69,632.72,347.61,632.26z"/>
			</g>
		</g>
		<g>
			<g>
				<line class="st2" x1="345.24" y1="635.95" x2="345.55" y2="638.34"/>
			</g>
			<g>
				<line class="st2" x1="368.37" y1="628.94" x2="370.33" y2="627.55"/>
			</g>
			<g>
				<path class="st5" d="M374.08,628.2c-0.26,1.49-0.89,2.97-1.82,4.25c-0.94,1.25-2.18,2.34-3.58,2.84
					c-1.49,0.64-2.88,0.56-4.14,0.13c-0.67-0.23-1.27-0.59-1.57-1.04c-0.3-0.37-0.32-0.98-0.21-1.66c0.18-0.97,0.64-1.97,1.25-2.82
					c0.57-0.82,1.31-1.54,2.13-1.96c0.83-0.4,1.66-0.39,2.31,0.24c0.23,0.2,0.62,0.26,0.91,0.07c0.28-0.19,0.33-0.65-0.01-0.99
					c-0.46-0.47-1.11-0.85-1.82-0.94c-0.71-0.1-1.39,0.08-1.99,0.32c-1.18,0.53-2.09,1.38-2.83,2.32c-0.77,0.99-1.38,2.1-1.69,3.39
					c-0.1,0.45-0.19,0.93-0.16,1.44c0,0.5,0.14,1.11,0.41,1.58c0.59,1.09,1.57,1.71,2.52,2.1c0.87,0.33,1.79,0.51,2.8,0.48
					c1.03-0.04,2.02-0.32,2.97-0.8c3.35-1.82,5.6-5.04,6.42-8.59c0.12-0.62,0.21-1.25,0.22-1.89c0.01-1.76-0.52-3.69-1.71-5.15
					c-1.17-1.48-2.9-2.44-4.7-2.75c-0.99-0.16-1.95-0.19-3.03,0.09c-1.05,0.29-1.97,0.89-2.69,1.56c-1.45,1.37-2.38,2.93-3.29,4.42
					c-0.68,1.11-1.34,2.21-2.05,3.25c-1.12,1.66-2.4,3.2-3.93,4.46c-1.09,0.91-2.31,1.66-3.61,2.26c-1.62,0.74-3.4,1.24-5.21,1.59
					c-0.37,0.07-0.62,0.4-0.58,0.74c0.04,0.34,0.38,0.57,0.78,0.52c1.93-0.22,3.86-0.76,5.61-1.55c1.4-0.64,2.72-1.44,3.95-2.38
					c1.7-1.31,3.19-2.88,4.51-4.54c0.83-1.04,1.58-2.12,2.32-3.18c1.01-1.42,1.95-2.88,3.05-3.94c0.55-0.52,1.13-0.91,1.75-1.11
					c0.59-0.19,1.4-0.23,2.11-0.14c1.34,0.17,2.66,0.83,3.53,1.89c0.88,1.06,1.29,2.46,1.21,3.9
					C374.21,627.16,374.16,627.68,374.08,628.2z"/>
			</g>
		</g>
		<g>
			<g>
				<line class="st2" x1="376.1" y1="624.39" x2="374.05" y2="625.66"/>
			</g>
			<g>
				<line class="st2" x1="389.44" y1="627.78" x2="387.1" y2="627.22"/>
			</g>
			<g>
				<path class="st5" d="M395.05,626.96c-0.31-1.2-0.92-2.43-1.93-3.32c-0.98-0.91-2.25-1.42-3.5-1.67
					c-1.37-0.21-2.64-0.11-3.84,0.42c-0.65,0.31-1.25,0.78-1.7,1.37c-0.41,0.55-0.68,1.2-0.8,1.86c-0.17,0.94,0,2.03,0.64,2.84
					c0.6,0.74,1.48,1.23,2.45,1.25c0.48,0.01,1-0.11,1.43-0.39c0.43-0.28,0.74-0.7,0.92-1.13c0.13-0.32-0.11-0.63-0.45-0.7
					c-0.34-0.07-0.65,0.02-0.73,0.18c-0.23,0.47-0.62,0.66-1.11,0.61c-0.48-0.05-0.96-0.37-1.22-0.78c-0.27-0.42-0.31-0.96-0.17-1.5
					c0.1-0.37,0.3-0.7,0.57-0.96c0.3-0.28,0.66-0.49,1.06-0.65c0.7-0.29,1.67-0.43,2.72-0.38c0.94,0.01,1.88,0.34,2.54,0.96
					c0.69,0.6,1.07,1.49,1.24,2.4c0.04,0.33,0.1,0.65,0.09,0.98c0.27,1.84-0.8,3.5-2.43,4.24c-1.73,0.84-3.97,0.93-5.94,0.64
					c-0.73-0.16-1.47-0.36-2.16-0.71c-1.1-0.53-2.12-1.3-3.02-2.24c-0.66-0.65-1.23-1.42-1.78-2.19c-0.68-0.99-1.37-2.02-2.06-3.03
					c-0.15-0.21-0.5-0.22-0.78-0.04c-0.29,0.18-0.42,0.5-0.3,0.72c0.6,1.09,1.27,2.17,1.98,3.18c0.58,0.81,1.17,1.61,1.84,2.38
					c0.92,1.06,1.97,2.08,3.23,2.87c0.78,0.51,1.66,0.87,2.57,1.15c2.49,0.65,5.16,0.38,7.43-0.89c1.03-0.6,2-1.46,2.61-2.59
					c0.63-1.11,0.85-2.4,0.82-3.6C395.22,627.81,395.13,627.38,395.05,626.96z"/>
			</g>
		</g>
	</g>
	<g>
		<g>
			<g>
				<line class="st2" x1="248.23" y1="103.21" x2="245.84" y2="103.5"/>
			</g>
			<g>
				<line class="st2" x1="240.19" y1="118.08" x2="238.05" y2="119.17"/>
			</g>
			<g>
				<path class="st7" d="M247.24,125.35c-0.52-0.14-1.07-0.46-1.59-0.78c-0.76-0.5-1.48-1.1-2.18-1.74
					c-1.31-1.21-2.55-2.57-3.51-4.03c-0.15-0.26-0.54-0.33-0.85-0.18c-0.31,0.15-0.43,0.53-0.26,0.84c0.99,1.68,2.18,3.15,3.5,4.54
					c0.69,0.71,1.42,1.4,2.24,2.03c0.6,0.42,1.18,0.86,1.94,1.18c0.16,0.09,0.36,0.15,0.56,0.21c0.22,0.05,0.45,0.09,0.72,0.07
					c0.26,0,0.52-0.01,0.79-0.1c0.54-0.14,1.06-0.5,1.36-0.9c0.64-0.82,0.79-1.65,0.94-2.42c0.25-1.55,0.21-3.03,0.14-4.47
					c-0.03-0.5-0.07-0.99-0.12-1.49l-0.18-0.95c-0.31-1.73-0.69-3.43-1.06-5.13l-0.82-3.66c-0.34-1.51-0.73-3.09-1.13-4.59
					c-0.08-0.31-0.39-0.47-0.73-0.44c-0.34,0.03-0.58,0.37-0.52,0.69c0.27,1.6,0.65,3.14,0.99,4.66c0.27,1.21,0.53,2.41,0.74,3.64
					c0.31,1.69,0.53,3.4,0.69,5.1l0.05,0.9c0.07,0.48,0.13,0.95,0.18,1.42c0.13,1.35,0.22,2.75,0.02,4.02
					c-0.1,0.61-0.3,1.25-0.59,1.53c-0.26,0.29-0.51,0.27-1,0.11C247.47,125.41,247.36,125.4,247.24,125.35z"/>
			</g>
		</g>
		<g>
			<g>
				<line class="st2" x1="236.61" y1="108.66" x2="238.27" y2="106.91"/>
			</g>
			<g>
				<line class="st2" x1="219.96" y1="104.23" x2="221.67" y2="105.92"/>
			</g>
			<g>
				<path class="st6" d="M225.67,101.56c-0.38,0.08-0.76,0.19-1.13,0.3c-0.53,0.17-1.05,0.38-1.53,0.65
					c-0.92,0.51-1.72,1.16-2.42,1.89c-0.12,0.13-0.01,0.44,0.23,0.68s0.54,0.35,0.66,0.25c0.67-0.59,1.44-1.05,2.23-1.37
					c0.41-0.16,0.84-0.28,1.27-0.36c0.3-0.05,0.61-0.08,0.92-0.07l0.22,0.01c1.27-0.31,2.67,0.01,3.89,0.52l0.64,0.28l0.44,0.13
					c0.79,0.28,1.57,0.63,2.31,1.06c0.53,0.31,1.05,0.66,1.54,1.04c0.61,0.48,1.23,0.98,1.86,1.47c0.13,0.1,0.42-0.02,0.66-0.27
					c0.24-0.25,0.33-0.54,0.21-0.67c-0.56-0.62-1.21-1.17-1.86-1.67c-0.52-0.4-1.06-0.78-1.59-1.17c-0.76-0.52-1.53-1.04-2.36-1.5
					l-0.43-0.25l-0.76-0.26c-1.48-0.45-3.07-0.69-4.72-0.75L225.67,101.56z"/>
			</g>
		</g>
		<g>
			<g>
				<line class="st2" x1="252.78" y1="107.45" x2="253.98" y2="109.54"/>
			</g>
			<g>
				<line class="st2" x1="265.7" y1="109.24" x2="267.55" y2="107.7"/>
			</g>
			<g>
				<path class="st6" d="M262.76,107.07c0.23,0.02,0.46,0.06,0.68,0.12c0.32,0.09,0.63,0.22,0.94,0.37c0.58,0.29,1.12,0.68,1.6,1.16
					c0.08,0.08,0.38-0.04,0.64-0.26c0.27-0.22,0.41-0.49,0.32-0.6c-0.49-0.62-1.06-1.2-1.73-1.69c-0.35-0.25-0.72-0.48-1.12-0.66
					c-0.28-0.13-0.56-0.26-0.84-0.38l-0.2-0.08c-1.3-0.09-2.55-0.11-3.76,0.04c-0.21,0.02-0.41,0.06-0.62,0.09l-0.38,0.15
					c-0.69,0.26-1.34,0.56-1.99,0.86l-1.38,0.66c-0.57,0.28-1.14,0.59-1.66,0.96c-0.11,0.08-0.05,0.38,0.12,0.67
					c0.17,0.3,0.4,0.49,0.51,0.44c0.57-0.24,1.12-0.53,1.66-0.79c0.43-0.2,0.87-0.4,1.32-0.54c0.62-0.22,1.27-0.36,1.91-0.45
					l0.34-0.03c0.17-0.05,0.34-0.1,0.52-0.14c0.97-0.25,2.06-0.35,2.96,0.07L262.76,107.07z"/>
			</g>
		</g>
		<g>
			<g>
				<line class="st2" x1="222.75" y1="92.57" x2="224.52" y2="94.21"/>
			</g>
			<g>
				<line class="st2" x1="237.74" y1="90.86" x2="238.09" y2="88.47"/>
			</g>
			<g>
				<path class="st8" d="M233.37,90.47c0.27-0.05,0.53-0.11,0.8-0.13c0.39-0.05,0.78-0.06,1.17-0.05l2.24,0
					c0.13,0,0.28-0.29,0.33-0.63c0.05-0.34-0.02-0.63-0.16-0.65l-2.38-0.33c-0.41-0.07-0.83-0.12-1.25-0.13l-0.88-0.06l-0.21-0.02
					c-1.22,0.29-2.46,0.42-3.67,0.66c-0.21,0.04-0.42,0.09-0.63,0.14l-0.38,0.18c-0.7,0.31-1.38,0.67-2.05,1.04
					c-0.47,0.28-0.94,0.56-1.4,0.87c-0.55,0.41-1.13,0.85-1.56,1.41c-0.09,0.11,0.04,0.39,0.29,0.62c0.25,0.23,0.53,0.35,0.62,0.27
					c0.47-0.4,0.97-0.77,1.46-1.13c0.4-0.27,0.82-0.51,1.27-0.7c0.62-0.28,1.28-0.46,1.95-0.6l0.36-0.05
					c0.18-0.06,0.36-0.13,0.55-0.19c1.04-0.34,2.2-0.59,3.34-0.47L233.37,90.47z"/>
			</g>
		</g>
		<g>
			<g>
				<line class="st2" x1="254.57" y1="91.23" x2="254.57" y2="93.64"/>
			</g>
			<g>
				<line class="st2" x1="266.18" y1="98.76" x2="267.78" y2="96.97"/>
			</g>
			<g>
				<path class="st8" d="M263.11,96.26c0.23,0.1,0.45,0.19,0.67,0.31c0.31,0.17,0.62,0.34,0.93,0.52c0.58,0.34,1.15,0.71,1.68,1.12
					c0.09,0.07,0.37-0.09,0.6-0.35c0.23-0.26,0.34-0.53,0.25-0.62c-0.51-0.51-1.05-1-1.6-1.47c-0.29-0.24-0.58-0.47-0.88-0.71
					c-0.21-0.16-0.42-0.33-0.62-0.5L264,94.43c-1.05-0.39-2.02-0.96-3-1.46c-0.17-0.09-0.34-0.17-0.52-0.25l-0.37-0.08
					c-0.66-0.17-1.33-0.31-1.99-0.46c-0.48-0.08-0.96-0.2-1.44-0.27c-0.6-0.11-1.24-0.17-1.88-0.11c-0.13,0.01-0.23,0.29-0.23,0.64
					s0.09,0.62,0.2,0.64c0.56,0.09,1.12,0.14,1.67,0.25c0.44,0.07,0.87,0.18,1.3,0.32c0.59,0.2,1.16,0.46,1.72,0.75l0.29,0.17
					c0.17,0.05,0.33,0.11,0.5,0.17c0.95,0.33,1.94,0.75,2.72,1.45L263.11,96.26z"/>
			</g>
		</g>
	</g>
	<g>
		<g>
			<path class="st6" d="M228.98,125.93c4.58,8.71,8.69,12.57,16.91,11.93c4.48-0.35,10.31-3.64,12.92-7.13
				C258.82,130.72,243.36,131.47,228.98,125.93z"/>
		</g>
		<g>
			<path class="st7" d="M248.77,136.38c-2.33-2.94-7.51-4.43-10.8-4.18c-1,0.08-1.69,0.39-1.64,1.11c0,0.02,0,0.04,0.01,0.07
				c0.29,2.1,6.85,3.92,9.57,3.71C246.88,137.01,247.79,136.79,248.77,136.38z"/>
		</g>
	</g>
	<g>
		<g>
			<line class="st2" x1="187.38" y1="298.64" x2="189.61" y2="299.55"/>
		</g>
		<g>
			<line class="st2" x1="229.13" y1="298.78" x2="231.54" y2="298.94"/>
		</g>
		<g>
			<path class="st4" d="M211.9,293.4c0.47-1.38,1.54-2.48,2.9-2.9c1.35-0.42,2.93-0.12,3.88,0.89c0.98,0.98,1.24,2.57,0.98,4.11
				c-0.25,1.55-0.93,3.08-1.77,4.49l1.59-0.18c-0.2-0.24-0.34-0.52-0.43-0.85c-0.37-1.46,0.21-3.28,1.02-4.65
				c0.41-0.7,0.92-1.32,1.46-1.76c0.54-0.47,1.11-0.63,1.43-0.55c0.39,0.06,0.93,0.62,1.28,1.35c0.38,0.72,0.63,1.57,0.79,2.41
				c0.3,1.53,0.09,3.14-0.58,4.55c-0.08,0.17-0.17,0.33-0.26,0.48l0.93-0.42l-0.63-0.11l0.71,0.76c-0.14-2.02-0.45-4.09-0.14-6.06
				c0.15-1.11,0.43-2.22,0.96-3.08c0.26-0.42,0.6-0.76,0.92-0.87c0.31-0.12,0.63-0.04,0.98,0.22c0.69,0.57,1.15,1.66,1.41,2.73
				c0.26,1.09,0.38,2.24,0.39,3.4c-0.02,0.82,0.26,1.49,0.6,1.52c0.34,0.03,0.65-0.65,0.69-1.52c0.01-1.24-0.08-2.49-0.36-3.73
				c-0.3-1.22-0.7-2.53-1.86-3.54c-0.31-0.24-0.67-0.45-1.09-0.54c-0.43-0.09-0.89-0.06-1.3,0.09c-0.8,0.31-1.32,0.9-1.7,1.48
				c-0.74,1.18-1.05,2.45-1.25,3.7c-0.37,2.18-0.11,4.3-0.01,6.44l0.03,0.62l0.68,0.14l0.62,0.13l0.61,0.12l0.33-0.54
				c0.12-0.19,0.23-0.39,0.33-0.6c0.88-1.73,1.22-3.74,0.94-5.66c-0.15-1.03-0.4-2.03-0.86-3.03c-0.23-0.5-0.52-0.99-0.94-1.46
				c-0.41-0.45-0.97-0.92-1.72-1.1c-1.37-0.3-2.56,0.32-3.34,0.97c-0.82,0.68-1.44,1.49-1.96,2.37c-0.51,0.89-0.9,1.86-1.14,2.92
				c-0.22,1.06-0.33,2.23,0.06,3.48c0.19,0.55,0.49,1.09,0.92,1.54l0.96,1.01l0.63-1.2c0.84-1.59,1.56-3.3,1.84-5.18
				c0.28-1.84,0.01-4.07-1.49-5.62c-1.46-1.55-3.77-1.99-5.7-1.42c-1.96,0.56-3.54,2.16-4.19,4c-0.49,1.35-0.62,2.77-0.52,4.13
				c0.09,0.94,0.28,1.86,0.53,2.74l0.23,0.79l0.81-0.09l0.43-0.05l0.54-0.06l0.23-0.48c1.41-2.87,1.84-6.41,0.66-9.53
				c-0.28-0.78-0.65-1.52-1.09-2.21c-0.11-0.17-0.22-0.34-0.34-0.51c-0.12-0.17-0.21-0.29-0.47-0.61l-0.66-0.77l-0.08-0.1
				l-0.12,0.03l-0.24,0.07l-0.49,0.14c-0.76,0.21-1.02,0.35-1.41,0.51c-0.37,0.16-0.73,0.34-1.07,0.53c-0.7,0.37-1.35,0.8-1.99,1.24
				c-1.71,1.25-3.35,2.69-4.55,4.66c-0.3,0.49-0.56,1.04-0.76,1.62c-0.08,0.31-0.19,0.6-0.23,0.92c-0.02,0.36-0.09,0.57-0.07,1.1
				c0.05,1.01,0.46,1.89,0.95,2.52c0.25,0.33,0.52,0.59,0.79,0.86c0.26,0.25,0.6,0.61,0.83,0.8c0.41-0.67,0.78-1.23,1.15-1.9
				c0.2-0.3,0.34-0.72,0.51-1.07c0.16-0.34,0.32-0.87,0.37-1.01c0.28-0.9,0.45-1.82,0.56-2.73c0.22-1.84,0.18-3.58,0.12-5.39
				c-0.01-0.33,0-0.67-0.04-0.99c-0.03-0.14,0.02-0.35-0.09-0.44l-0.44-0.21c-0.29-0.14-0.59-0.27-0.91-0.37
				c-0.32-0.1-0.45-0.12-0.69-0.17c-0.43-0.07-0.86-0.13-1.32-0.05l-0.68,0.1c-0.22,0.05-0.42,0.14-0.63,0.22
				c-1.65,0.67-2.7,1.92-3.55,3.14c-0.9,1.33-1.58,2.74-2.14,4.2c-0.51,1.48-1.07,2.92-1.03,4.71l0,0.15l0.06,0.13
				c0.09,0.19,0.25,0.38,0.47,0.47c0.27,0.14,0.75,0,0.73-0.03c0.09-0.05,0.2-0.13,0.25-0.18l0.1-0.11
				c0.12-0.14,0.17-0.24,0.23-0.34c0.12-0.2,0.2-0.37,0.29-0.55c0.17-0.36,0.31-0.71,0.45-1.06c0.27-0.7,0.52-1.41,0.74-2.12
				c0.49-1.56,0.91-3.14,1.21-4.77c0.15-0.84,0.26-1.58,0.31-2.56c-0.01-0.32,0.05-0.65-0.03-0.95l-1.05-0.71
				c-0.08-0.04-0.19-0.17-0.25-0.12l-0.2,0.11l-0.41,0.22c-0.26,0.15-0.58,0.31-0.72,0.42c-1.82,1.2-3.16,2.94-4.24,4.75
				c-1.08,1.82-1.91,3.75-2.66,5.67c-0.3,0.78-0.28,1.5,0.04,1.63c0.32,0.13,0.82-0.38,1.15-1.14c0.81-1.87,1.65-3.73,2.69-5.44
				c1.04-1.69,2.28-3.26,3.83-4.28c0.18-0.14,0.21-0.13,0.31-0.19c0.05-0.03,0.23-0.11,0.17-0.11l-0.06-0.04l-0.01,0.24
				c-0.03,0.65-0.14,1.49-0.29,2.24c-0.29,1.54-0.72,3.07-1.23,4.57c-0.23,0.68-0.48,1.35-0.74,2.01c-0.14,0.33-0.28,0.65-0.43,0.95
				c-0.07,0.15-0.15,0.3-0.23,0.42c-0.03,0.06-0.08,0.11-0.08,0.11l0,0l0.08,0.07l0.15,0.16c0.09,0.09,0.15,0.12,0.19,0.21
				c0.04,0.12,0.05,0.07,0.04,0.12c0-0.02,0.06-0.08,0.11-0.07l0.62,0.04c-0.01-1.25,0.52-2.71,1.05-4.03
				c0.56-1.34,1.24-2.63,2.08-3.77c0.77-1.05,1.73-1.97,2.73-2.31c0.25-0.11,0.49-0.14,0.74-0.15c0.24-0.05,0.52,0,0.78,0.05
				c0.1,0.02,0.32,0.08,0.33,0.09l0.06,0.03c0.05,0.01,0.02,0.08,0.02,0.11c0,1.64,0,3.41-0.22,5.01c-0.11,0.81-0.27,1.6-0.5,2.35
				l-0.07,0.2l-0.01,0.03l-0.03,0.07c-0.04,0.01-0.08-0.07-0.09-0.13l0.04-0.45c0.02-0.19,0.1-0.39,0.14-0.58
				c0.13-0.39,0.31-0.79,0.54-1.18c0.92-1.57,2.36-2.94,3.88-4.09c0.57-0.41,1.15-0.81,1.76-1.15c0.3-0.18,0.61-0.33,0.92-0.48
				c0.29-0.15,0.72-0.3,0.67-0.29c0.07-0.05,0.11-0.01,0.15,0.05c-0.02-0.03,0.13,0.15,0.22,0.28c0.1,0.14,0.2,0.28,0.29,0.42
				c0.38,0.57,0.69,1.18,0.93,1.82c0.99,2.56,0.67,5.52-0.59,8.01l0.77-0.54l-0.43,0.04l1.03,0.7c-0.21-0.79-0.36-1.58-0.41-2.36
				C211.44,295.57,211.55,294.43,211.9,293.4z"/>
		</g>
	</g>
	<g>
		<g>
			<line class="st2" x1="258.97" y1="298.1" x2="261.38" y2="298.1"/>
		</g>
		<g>
			<line class="st2" x1="291.27" y1="294.92" x2="293.63" y2="295.39"/>
		</g>
		<g>
			<path class="st4" d="M280.07,295.41c-0.32-1.45-0.53-2.96-0.41-4.37c0.07-0.7,0.22-1.39,0.52-1.9c0.29-0.52,0.71-0.79,1.1-0.79
				c0.15-0.02,0.82,0.48,1.23,1.03c0.45,0.56,0.87,1.19,1.23,1.85c0.36,0.66,0.69,1.35,0.94,2.04c0.12,0.34,0.22,0.69,0.29,1.01
				c0.02,0.15,0.04,0.31,0.05,0.41c-0.01,0.03-0.01,0.07-0.01,0.1c0.22,0,0.42,0.02,0.59,0.2l1.21-0.24l-0.08-0.17
				c-0.74-1.5-1.33-2.99-1.59-4.38c-0.13-0.69-0.15-1.37-0.03-1.85c0.06-0.23,0.16-0.4,0.22-0.45c0.07-0.05,0.09-0.08,0.23-0.07
				c0.31-0.02,0.91,0.33,1.35,0.82c0.46,0.49,0.85,1.12,1.15,1.79c0.56,1.24,0.85,2.66,0.94,4.08l0.02,0.28l1.51-0.67
				c-1.24-1.19-2.04-3.23-1.92-4.98c0.07-0.87,0.43-1.6,1.09-1.94c0.12-0.07,0.19-0.09,0.29-0.12c0.1-0.03,0.21-0.06,0.24,0.06
				c0.07,0.11,0.07,0.11,0.18,0.33l0.34,0.67c0.85,1.79,1.36,3.73,1.24,5.68c-0.04,0.68,0.13,1.28,0.47,1.35
				c0.33,0.08,0.75-0.48,0.81-1.26c0.19-2.21-0.34-4.43-1.23-6.4l-0.35-0.73c-0.15-0.28-0.37-0.74-0.58-1.04
				c-0.13-0.51-0.64-0.26-1.02-0.22c-0.38,0.05-0.85,0.22-1.15,0.37c-1.24,0.62-1.87,2.02-1.95,3.19c-0.11,1.2,0.1,2.34,0.48,3.41
				c0.39,1.07,0.95,2.09,1.82,2.95l1.6,1.6l-0.09-2.28l-0.01-0.3c-0.05-1.6-0.29-3.22-0.9-4.78c-0.34-0.84-0.78-1.67-1.41-2.42
				c-0.32-0.37-0.69-0.73-1.15-1.02c-0.45-0.29-1-0.55-1.69-0.59c-0.6-0.05-1.34,0.19-1.81,0.66c-0.49,0.46-0.72,1.02-0.85,1.52
				c-0.24,1.01-0.14,1.93,0.02,2.8c0.35,1.74,1.07,3.35,1.94,4.95l0.08,0.15l0.86,1.54l0.86-1.4c0.13-0.22,0.25-0.51,0.29-0.74
				c0.01-0.16,0.01-0.33,0.01-0.49c-0.02-0.29-0.07-0.52-0.12-0.77c-0.12-0.45-0.27-0.86-0.42-1.26c-0.33-0.79-0.71-1.53-1.13-2.25
				c-0.42-0.72-0.89-1.42-1.45-2.09c-0.28-0.33-0.58-0.66-0.96-0.97c-0.36-0.3-0.85-0.63-1.58-0.7c-1.25-0.06-2.25,0.8-2.72,1.65
				c-0.51,0.86-0.68,1.76-0.79,2.62c-0.18,1.73,0.03,3.38,0.34,4.97c0.16,0.79,0.36,1.56,0.57,2.32l0.42,1.47l1.16-0.99
				c0.14-0.12,0.3-0.36,0.34-0.48c0.03-0.09,0.06-0.19,0.09-0.29c0.03-0.15,0.04-0.27,0.05-0.39c0.01-0.22,0-0.41-0.01-0.59
				c-0.18-1.69-0.61-3.16-1.09-4.68c-0.51-1.5-1.09-2.98-2-4.4c-0.47-0.69-0.99-1.43-1.97-1.95c-0.48-0.26-1.18-0.37-1.73-0.25
				c-0.56,0.13-1.06,0.38-1.44,0.7c-1.5,1.29-2.05,2.91-2.47,4.48c-0.2,0.84-0.31,1.71-0.34,2.59c-0.03,0.93,0.11,1.81,0.29,2.66
				c0.19,0.85,0.44,1.68,0.8,2.52c0.18,0.42,0.38,0.84,0.71,1.29c0.17,0.22,0.35,0.46,0.73,0.72c0.1,0.06,0.21,0.12,0.32,0.17
				c0.13,0.05,0.32,0.09,0.49,0.1c0.34,0.06,0.7-0.09,1-0.25l0.55-0.29l-0.04-0.72c-0.1-1.69-0.29-3.44-0.78-5.16
				c-0.48-1.73-1.27-3.35-2.15-4.83l-0.69-1.15c-0.16-0.69-0.91-0.34-1.46-0.38l-0.33,0.02c-0.08,0-0.16,0.01-0.25,0.02l-0.49,0.06
				c-0.33,0.03-0.66,0.11-0.99,0.18c-1.3,0.29-2.67,0.86-3.7,1.92c-0.83,0.83-1.33,1.96-1.5,3.07c-0.16,1.12-0.04,2.22,0.26,3.24
				c0.31,1.03,0.75,2,1.47,2.87c0.14,0.18,0.47,0.53,0.79,0.73c0.32,0.23,0.67,0.35,1.04,0.37c0.77,0.07,1.37-0.56,1.59-1.29
				c0.19-0.6,0.2-0.96,0.23-1.34c0.02-0.39,0.01-0.75,0-1.11c-0.01-0.72-0.08-1.45-0.18-2.18c-0.22-1.44-0.8-3.07-2.11-4.09
				c-0.39-0.32-0.81-0.57-1.24-0.78c-0.22-0.1-0.43-0.21-0.65-0.29l-0.35-0.14l-0.49-0.16l-0.5-0.16c-0.14,0.09-0.28,0.2-0.42,0.31
				c-0.26,0.2-0.57,0.48-0.72,0.67c-0.35,0.4-0.59,0.86-0.79,1.32c-0.75,1.86-0.73,3.75-0.71,5.54c0.02,0.72,0.31,1.29,0.65,1.29
				c0.34,0,0.62-0.57,0.63-1.29c0.04-1.75,0.1-3.54,0.72-5c0.16-0.35,0.34-0.69,0.58-0.96c0.12-0.14,0.15-0.16,0.23-0.23
				c0.04-0.02,0.07-0.06,0.11-0.07l0.13,0.04l0.4,0.16c0.2,0.07,0.37,0.17,0.56,0.25c0.35,0.18,0.69,0.38,0.97,0.62
				c0.93,0.73,1.37,1.91,1.57,3.2c0.08,0.65,0.14,1.31,0.14,1.99c0,0.34,0.01,0.67-0.02,0.98c-0.02,0.32-0.08,0.65-0.11,0.71
				c-0.05,0.16-0.18,0.36-0.37,0.3c-0.09-0.02-0.16-0.07-0.23-0.12c-0.07-0.06-0.09-0.08-0.25-0.28c-0.5-0.64-0.87-1.48-1.08-2.32
				c-0.44-1.69-0.18-3.52,0.99-4.55c0.71-0.66,1.71-1.07,2.79-1.26c0.27-0.05,0.54-0.1,0.82-0.12l0.42-0.04
				c0.07-0.01,0.14-0.01,0.21-0.01l0.13,0c0.02,0.01,0.07-0.02,0.09,0.06l0.23,0.43c0.78,1.43,1.43,2.87,1.83,4.38
				c0.41,1.51,0.59,3.09,0.69,4.7l0.81-0.55c0.14,0.14-0.05,0.15,0.27-0.4c0.1-0.13,0.1-0.08,0.08-0.11l-0.03-0.03
				c-0.02-0.01-0.07-0.08-0.1-0.12c-0.16-0.21-0.33-0.53-0.48-0.85c-0.29-0.66-0.53-1.38-0.71-2.11c-0.17-0.73-0.3-1.45-0.29-2.12
				c0-0.72,0.08-1.45,0.23-2.16c0.28-1.3,0.85-2.68,1.68-3.4c0.43-0.34,0.74-0.42,1.06-0.25c0.39,0.18,0.86,0.69,1.23,1.26
				c0.76,1.15,1.33,2.54,1.78,3.93c0.44,1.39,0.82,2.87,0.92,4.21c0.01,0.13,0.02,0.27,0.01,0.37l0,0.1c0.12,0,0.34,0.06,0.5,0.13
				c0.15,0.06,0.21,0.06,0.28,0.17l1.04-0.17C280.43,296.86,280.23,296.14,280.07,295.41z"/>
		</g>
	</g>
	<g>
		<path class="st5" d="M244.43,289.16c-1.56-2.66-3.95-3.84-7.11-3.74c-5.86,0.18-11.16,4.44-10.97,10.72
			c0.19,6.42,5.84,9.73,11.05,9.58c2.99-0.09,5.83-1.33,7.42-3.78c1.73,2.35,4.64,3.41,7.63,3.32c5.21-0.16,10.65-3.81,10.45-10.23
			c-0.19-6.28-5.74-10.22-11.6-10.04C248.15,285.09,245.83,286.41,244.43,289.16z"/>
	</g>
</g>
</svg>
