<?xml version="1.0" encoding="utf-8"?>
<!-- Generator: Adobe Illustrator 27.5.0, SVG Export Plug-In . SVG Version: 6.00 Build 0)  -->
<svg version="1.1" id="Layer_1" xmlns="http://www.w3.org/2000/svg" xmlns:xlink="http://www.w3.org/1999/xlink" x="0px" y="0px"
	 viewBox="0 0 500 500" style="enable-background:new 0 0 500 500;" xml:space="preserve">
<style type="text/css">
	.st0{fill:none;}
	.st1{fill:#002776;}
	.st2{fill:#873953;}
	.st3{fill:#EE8D9C;}
	.st4{fill:#7EB5D2;}
	.st5{fill:#FFFFFF;}
</style>
<g>
	<g>
		<g>
			<g>
				<line class="st0" x1="216.46" y1="36.13" x2="205.62" y2="40.11"/>
			</g>
			<g>
				<path class="st1" d="M368.5,452.54c-2.06-6-4.12-12.02-6.2-18.07c-3.87-10.8-8.15-22.19-13.18-34.89
					c-9.44-22.84-17.82-46.64-25.92-69.65l-4.22-11.95c-8.55-21.98-16.52-44.68-24.24-66.63c-8.31-23.65-16.9-48.09-26.28-71.85
					l-10.43-26.56c-5.53-13.99-11.05-27.98-16.4-42.09c-3.9-10.11-7.65-20.28-11.39-30.44c-4.67-12.68-9.5-25.79-14.59-38.63
					c-1.03-2.61-3.09-4.21-4.63-3.64c-1.53,0.56-2.03,3.1-1.13,5.76c4.45,13.09,9.27,26.24,13.92,38.95
					c3.72,10.15,7.44,20.3,11.02,30.55c5.06,14.22,9.92,28.5,14.79,42.79c3.07,8.95,6.13,17.9,9.18,26.8
					c8.25,24.23,17.54,48.42,26.52,71.81c8.34,21.72,16.96,44.18,24.64,66.36l4.56,11.96c8.72,22.78,17.75,46.34,25.39,69.99
					c4.36,12.8,8.46,24.25,12.53,35.04l3.51,8.94l1.78,4.46c0.38,0.98,0.36,0.86,0.44,0.99H368.5z"/>
			</g>
		</g>
		<g>
			<path class="st2" d="M456.03,106.6c0,0,3,20.66,13.16,13.44l-0.69,0.46c14.97-9.73,22.64-17.31,21-21.72l-2.03-20.33
				C487.47,78.44,459.98,95.55,456.03,106.6z"/>
		</g>
		<g>
			<g id="XMLID_00000046302157260821696170000007800760591657673908_">
				<g>
					<path class="st3" d="M487.48,78.43c1.97,5.35-9.7,15.33-31.45,28.16L215.11,49.21L487.48,78.43z"/>
					<path class="st4" d="M456.03,106.59c0,10.82,2.32,20.56-9.19,26.72c-40.54,22.28-106.32,51.34-181.97,79.38
						c-1.55,0.57-3.09,1.14-4.64,1.71c-12.3,4.57-15.15-15.55-15.15-15.55c5.86-2.11,11.79-4.27,17.75-6.49
						C345.93,161.57,417.11,129.55,456.03,106.59z"/>
					<path class="st5" d="M215.11,49.21l240.92,57.38c-38.92,22.96-110.1,54.98-193.2,85.76c-5.96,2.22-11.89,4.37-17.75,6.49
						L215.11,49.21z"/>
					<path class="st2" d="M245.08,198.84c0,0,1.16,20.76-12.87,25.66c-65.16,22.96-122.99,39.75-161.76,47.5
						c-0.39,0.08-0.77,0.16-1.14,0.22c-19.36,3.46-21.86-17-21.86-17v-0.02h0.02C86.59,250.1,160.58,229.34,245.08,198.84z"/>
					<path class="st3" d="M215.11,49.21l29.97,149.63c-84.5,30.5-158.49,51.26-197.61,56.36L215.11,49.21z"/>
					<path class="st5" d="M215.11,49.21L47.47,255.2h-0.02c-17.22,2.26-27.67,1.46-29.28-2.89L215.11,49.21z"/>
					<path class="st4" d="M47.45,255.2v0.02c0,0-2.7,20.96-17.16,21.45c-5.73-0.37-9.21-1.67-10.08-4.03l-2.03-20.33
						C19.78,256.66,30.23,257.46,47.45,255.2z"/>
				</g>
			</g>
		</g>
	</g>
</g>
<g>
	<g>
		<path class="st1" d="M45.63,453.57c5.24,0.07,10.47,0.17,15.71,0.26l8.16,0.14c1.91,0.03,3.82,0.09,5.72,0.15
			c2.07,0.06,4.15,0.13,6.24,0.16c3.72,0.03,7.66,0,12.08-0.11c8-0.33,16.18-0.21,24.08-0.1c7.75,0.11,15.76,0.22,23.6-0.08
			c8.6-0.08,17.36,0.01,25.83,0.11c7.18,0.08,14.61,0.16,21.91,0.13c5.76,0,11.52-0.06,17.28-0.11c9.98-0.09,20.3-0.19,30.42-0.01
			l2.31,0.05c7.09,0.17,14.44,0.35,21.65,0.27c4.83-0.02,9.66-0.11,14.49-0.19c3.14-0.05,6.28-0.11,9.43-0.15
			c7.19-0.13,14.51-0.03,21.61,0.07c8.57,0.12,17.45,0.24,26.16-0.04c7.64-0.15,15.43-0.03,22.97,0.08
			c8.12,0.12,16.52,0.24,24.79,0.04c3.08-0.06,6.16-0.13,9.24-0.21c4.87-0.12,9.74-0.24,14.63-0.29c3.51-0.06,7.02-0.06,10.53-0.06
			c4.38,0,8.91-0.01,13.38-0.12c0.91-0.02,1.63-0.48,1.63-1.03s-0.72-0.99-1.63-1.02c-4.48-0.11-9.02-0.12-13.4-0.12
			c-3.5,0-7-0.01-10.52-0.06c-4.89-0.05-9.78-0.17-14.67-0.29c-3.06-0.08-6.13-0.15-9.18-0.21c-8.29-0.2-16.69-0.08-24.81,0.04
			c-7.54,0.11-15.33,0.23-22.94,0.08c-8.76-0.29-17.62-0.17-26.2-0.05c-7.09,0.1-14.42,0.2-21.63,0.07
			c-3.16-0.04-6.32-0.09-9.49-0.15c-4.8-0.08-9.61-0.17-14.4-0.19c-1.12-0.01-2.24-0.02-3.37-0.02c-6.17,0-12.38,0.15-18.41,0.29
			l-2.18,0.05c-10.14,0.18-20.46,0.08-30.44-0.01c-5.76-0.05-11.52-0.11-17.27-0.11c-7.32-0.04-14.75,0.05-21.93,0.13
			c-8.46,0.09-17.22,0.19-25.74,0.11c-7.92-0.3-15.93-0.19-23.68-0.08c-7.9,0.11-16.08,0.22-24.12-0.1
			c-4.38-0.11-8.32-0.14-12.06-0.11c-2.07,0.03-4.15,0.1-6.23,0.16c-1.91,0.06-3.81,0.12-5.72,0.15l-8.25,0.15
			c-5.21,0.1-10.42,0.19-15.62,0.26c-0.92,0.01-1.66,0.49-1.66,1.04C43.97,453.1,44.71,453.55,45.63,453.57z"/>
	</g>
</g>
</svg>
