<?xml version="1.0" encoding="utf-8"?>
<!-- Generator: Adobe Illustrator 27.5.0, SVG Export Plug-In . SVG Version: 6.00 Build 0)  -->
<svg version="1.1" id="Layer_1" xmlns="http://www.w3.org/2000/svg" xmlns:xlink="http://www.w3.org/1999/xlink" x="0px" y="0px"
	 viewBox="0 0 500 700" style="enable-background:new 0 0 500 700;" xml:space="preserve">
<style type="text/css">
	.st0{fill:#002776;}
	.st1{fill:#EE8D9C;}
	.st2{fill:#AB7487;}
	.st3{fill:none;}
	.st4{fill:#873953;}
	.st5{fill:#F8E9DD;}
	.st6{fill:#E44244;}
	.st7{clip-path:url(#SVGID_00000183248451616627065000000001177407979944387000_);}
	.st8{clip-path:url(#SVGID_00000131351133611791885810000001792545932836254883_);}
	.st9{fill:#7EB5D2;}
	.st10{fill:none;stroke:#38B500;stroke-miterlimit:10;}
</style>
<g>
	<g>
		<path class="st0" d="M288.03,566.38c0,0,15.58,20,12.5,28.75c-3.08,8.75-42.6-11.59-42.6-11.59l18.69-19.69L288.03,566.38z"/>
	</g>
	<g>
		<path class="st0" d="M335.89,545.79l8.37,25.19c0,0,30.23,12.94,19.63,24.21c0,0-46.11-9.91-73.23-36.53l13.31-14.07l14.94-12.08
			C318.91,532.52,335.99,534.16,335.89,545.79z"/>
	</g>
	<g>
		<path class="st1" d="M245.59,160.47c-3.49-2.21-4.8-5.47-4.8-8.99c0-12.89,13.18-26.04,29.62-26.04
			c10.96,0,16.68,7.12,16.68,13.02c0,7.92-10.71,13.12-17.57,14.82c3.95,5.11,9.42,6.99,9.42,17.08c0,9.77-8.1,14.03-17.38,14.03
			c-10.73,0-23.03-5.69-26.19-15.13"/>
	</g>
	<g>
		<path class="st2" d="M329.38,183.72c3.78-2.56,6.84-8.42,11.79-8.42c2.54,0,5.31,2.08,7.19,2.08c1.11,0,2.24-0.44,3.39-0.44
			c4.73,0,9.48,7.33,10.68,12.6c-3,2.25-19.34,2.16-20.26,2.16c-4.51,0-12.65-0.21-14.5-0.21c-1.4,0-3.03,0.14-4.63,0.14
			c-1.54,0-3.06-0.13-4.32-0.62"/>
	</g>
	<g>
		<g>
			<path class="st2" d="M90.06,181.34c-39.21-12.75-56.39-30.32-63.39-52.69c0.28-0.09,0.55-0.16,0.82-0.21
				c9.61-1.72,7.94,14.08,28.83,16.63c11.79-3.93-0.79-18.6,9.85-20.51c2.35-0.42,4.55-0.25,6.42,0.8c-2.52,2.6-4.55,7.27-3.84,11.2
				c1.2,6.69,8.77,11.28,10.14,18.94c0.14,0.79,0.22,1.61,0.21,2.46l24.73,9.24"/>
		</g>
		<g>
			<g>
				<line class="st3" x1="29.08" y1="129.39" x2="28.6" y2="131.82"/>
			</g>
			<g>
				<line class="st3" x1="46.8" y1="151.1" x2="48.27" y2="149.1"/>
			</g>
			<g>
				<path class="st4" d="M41.15,144.66l1.01,1.15c0.49,0.56,0.97,1.11,1.48,1.65c0.99,1.01,1.96,2.03,3.15,2.87
					c0.2,0.16,0.54,0.04,0.75-0.25c0.21-0.29,0.24-0.64,0.07-0.79c-1.02-0.82-1.87-1.89-2.72-2.93c-0.43-0.55-0.85-1.13-1.27-1.69
					l-0.83-1.24l-0.19-0.3c-1.43-1.55-2.62-3.35-3.84-5.07l-0.64-0.89l-0.49-0.52c-0.87-0.97-1.76-1.94-2.71-2.87
					c-0.67-0.67-1.39-1.32-2.14-1.94c-0.51-0.34-0.96-0.77-1.56-1.03l-0.86-0.43c-0.31-0.1-0.63-0.18-0.95-0.27
					c-0.26-0.07-0.52,0.17-0.58,0.51c-0.06,0.34,0.04,0.68,0.24,0.76l0.74,0.28l0.71,0.41c0.49,0.22,0.9,0.63,1.35,0.93
					c0.67,0.57,1.34,1.16,1.92,1.85c0.85,0.92,1.59,1.96,2.32,3l0.37,0.56l0.68,0.84c1.31,1.61,2.62,3.32,3.74,5.16L41.15,144.66z"
					/>
			</g>
		</g>
		<g>
			<g>
				<g>
					<path class="st2" d="M41.69,151.55c-0.98-1.26-6.46-11.32-6.46-16.42c0-1.38,0.4-2.4,1.4-2.78c3.41,2.68,7.17,9.98,9.58,15.53
						c8.41,1.97,15.37,6.27,18.22,15.03"/>
				</g>
				<g>
					<g>
						<line class="st3" x1="40.71" y1="152.32" x2="42.67" y2="150.79"/>
					</g>
					<g>
						<line class="st3" x1="63.25" y1="163.3" x2="65.61" y2="162.54"/>
					</g>
					<g>
						<path class="st4" d="M44.38,146.23l0.47,0.97l0.62,1.36c0.02,0.2,0.26,0.14,0.4,0.21l0.47,0.12l0.62,0.15
							c0.35,0.08,0.7,0.17,1.05,0.28c1.4,0.39,2.74,0.94,4.01,1.6c1.4,0.68,2.57,1.41,3.68,2.11c0.61,0.4,1.22,0.79,1.79,1.23
							c0.55,0.38,1.03,0.84,1.53,1.29c0.33,0.35,0.68,0.69,1,1.05c0.3,0.38,0.62,0.74,0.92,1.13c1.12,1.46,1.99,3.11,2.65,4.85
							c0.12,0.31,0.5,0.46,0.84,0.35c0.34-0.11,0.52-0.46,0.41-0.79c-0.61-1.88-1.44-3.72-2.56-5.39l-0.91-1.27
							c-0.33-0.41-0.67-0.8-1.01-1.2c-0.51-0.52-0.99-1.09-1.55-1.57c-0.58-0.56-1.2-1.06-1.85-1.54c-1.19-0.8-2.51-1.56-4.09-2.17
							c-1.44-0.51-2.88-1.02-4.34-1.43c-0.36-0.11-0.73-0.22-1.09-0.31l-0.45-0.12c-0.03-0.02-0.09-0.02-0.11-0.05l-0.05-0.14
							l-0.21-0.51l-0.43-1.02L45.56,144c-1.32-2.52-2.61-5.11-4.1-7.54c-0.81-1.3-1.68-2.61-2.81-3.81l-0.51-0.52
							c-0.26-0.27-0.55-0.42-0.83-0.61l-0.42-0.27c-0.14-0.08-0.27-0.24-0.43-0.11c-0.31,0.14-0.61,0.26-0.89,0.45
							c-0.56,0.36-1.02,1.04-1.22,1.67c-0.16,0.5-0.21,0.98-0.22,1.43c0.01,1.32,0.25,2.52,0.59,3.65c0.53,1.8,1.23,3.48,1.96,5.15
							c0.54,1.19,1.08,2.38,1.66,3.55c0.73,1.46,1.49,2.94,2.45,4.35c0.2,0.29,0.63,0.37,0.89,0.14c0.27-0.23,0.37-0.57,0.22-0.85
							c-0.78-1.39-1.54-2.87-2.24-4.3c-0.56-1.14-1.08-2.31-1.54-3.5c-0.65-1.65-1.19-3.34-1.52-5.03
							c-0.23-1.06-0.31-2.11-0.26-3.04c0.03-0.31,0.09-0.59,0.18-0.81c0.04-0.09,0.04-0.06,0.07-0.09c0.02-0.01,0.04-0.02,0.05,0.01
							l0.32,0.31c0.98,1.01,1.87,2.19,2.7,3.38c1.53,2.23,2.93,4.71,4.04,7.24L44.38,146.23z"/>
					</g>
				</g>
			</g>
		</g>
	</g>
	<g>
		<g>
			<path class="st5" d="M430.91,171.8c36.34-19.47,50.15-39.8,53.09-63.06c-0.29-0.04-0.57-0.06-0.85-0.06
				c-9.76,0-5.33,15.26-25.45,21.46c-12.3-1.79-2.51-18.45-13.32-18.45c-2.39,0-4.53,0.56-6.18,1.92c2.94,2.11,5.76,6.36,5.76,10.34
				c0,6.8-6.64,12.65-6.64,20.43c0,0.8,0.07,1.62,0.22,2.46l-22.71,13.47"/>
		</g>
		<g>
			<g>
				<line class="st3" x1="482.66" y1="112.2" x2="481.75" y2="109.9"/>
			</g>
			<g>
				<line class="st3" x1="466.35" y1="132.68" x2="468.15" y2="134.39"/>
			</g>
			<g>
				<path class="st1" d="M470.75,126.13l-0.6,1.37c-0.32,0.64-0.63,1.29-0.96,1.91c-0.65,1.17-1.3,2.36-2.15,3.35
					c-0.14,0.18-0.04,0.53,0.22,0.78c0.26,0.25,0.6,0.29,0.77,0.1c1.02-1.05,1.81-2.23,2.6-3.4c0.4-0.62,0.77-1.24,1.15-1.87
					l0.79-1.31l0.19-0.3c0.77-2,1.76-3.91,2.76-5.72l0.52-0.94l0.27-0.64c0.53-1.15,1.08-2.3,1.75-3.36c0.45-0.78,1-1.49,1.57-2.17
					c0.39-0.37,0.73-0.85,1.17-1.15l0.62-0.52l0.68-0.41c0.18-0.11,0.22-0.47,0.09-0.8c-0.12-0.33-0.42-0.5-0.66-0.39
					c-0.3,0.14-0.6,0.27-0.89,0.43l-0.77,0.58c-0.54,0.37-0.9,0.87-1.35,1.3c-0.62,0.74-1.22,1.5-1.76,2.28
					c-0.77,1.08-1.47,2.19-2.16,3.31l-0.38,0.58l-0.47,1c-0.89,1.91-1.75,3.89-2.89,5.68L470.75,126.13z"/>
			</g>
		</g>
		<g>
			<g>
				<path class="st5" d="M453.63,148.84c-0.5-0.85-0.72-1.76-0.72-2.72c0-4.08,4.81-11.61,12.61-13.34c0.77-3.58,1.19-7.56,1.19-10
					c0-1.18-0.08-2.43-0.08-3.66c0-2.48,0.54-6.14,3.01-6.14c2.01,0,2.05,4.82,2.05,6.82c0,0.16,0,0.31,0,0.47c0,0.4,0,0.44,0,0.7
					c0,6.32-0.27,12.73-1.64,18.05"/>
			</g>
			<g>
				<g>
					<line class="st3" x1="452.57" y1="149.47" x2="454.7" y2="148.21"/>
				</g>
				<g>
					<line class="st3" x1="468.85" y1="138.71" x2="471.25" y2="139.33"/>
				</g>
				<g>
					<path class="st1" d="M468.38,114.93c0.28-0.58,0.63-0.91,1.06-0.99c0.28-0.04,0.27-0.03,0.38,0.05
						c0.12,0.08,0.28,0.35,0.39,0.65c0.46,1.28,0.5,2.95,0.42,4.51c-0.06,1.75-0.09,3.34-0.09,4.84l0.04,2.49
						c0.01,0.76,0.01,1.53-0.01,2.29c-0.03,1.1-0.09,2.2-0.17,3.29c-0.15,2.07-0.4,4.13-0.83,6.15c-0.08,0.36,0.15,0.72,0.49,0.81
						c0.34,0.09,0.7-0.13,0.79-0.5c0.54-2.08,0.92-4.2,1.2-6.32c0.15-1.1,0.26-2.21,0.36-3.31l0.21-2.32
						c0.07-0.84,0.14-1.69,0.17-2.54c0.05-1.52,0.03-3.1-0.05-4.91c-0.15-1.66-0.19-3.33-0.82-5.13c-0.18-0.45-0.39-0.94-0.89-1.39
						c-0.48-0.48-1.37-0.63-1.88-0.52c-1.2,0.14-2.12,1.1-2.53,1.93c-0.32,0.59-0.53,1.19-0.67,1.79c-0.34,1.66-0.31,3.34-0.27,4.86
						c0,0.77,0.01,1.54,0.01,2.31c-0.02,0.74-0.08,1.48-0.15,2.22c-0.16,1.59-0.4,3.22-0.68,4.83l-0.22,1.21l-0.11,0.57l0,0.04
						c0.32-0.07-0.97,0.27-1.71,0.63c-1.23,0.51-2.37,1.19-3.43,1.98c-1.67,1.24-3.1,2.74-4.31,4.4c-0.85,1.21-1.61,2.49-2.16,3.88
						c-0.36,0.86-0.61,1.8-0.7,2.8c-0.11,1,0.07,2.05,0.5,2.98c0.18,0.38,0.61,0.51,0.9,0.32c0.3-0.19,0.41-0.55,0.31-0.84
						c-0.58-1.48-0.26-3.18,0.36-4.73c0.49-1.24,1.19-2.42,2.03-3.48c1.17-1.49,2.6-2.76,4.17-3.75c0.99-0.62,2.04-1.14,3.12-1.51
						c0.37-0.11,0.73-0.28,1.11-0.35l0.79-0.2l0.59-0.16c0.17-0.08,0.47-0.03,0.44-0.3l0.38-1.86l0.22-1.26
						c0.26-1.69,0.43-3.38,0.52-5.05c0.04-0.78,0.06-1.56,0.06-2.37c-0.03-0.77-0.06-1.55-0.08-2.33c-0.07-1.58-0.08-3.04,0.29-4.39
						C468.04,115.78,468.19,115.32,468.38,114.93z"/>
				</g>
			</g>
		</g>
	</g>
	<g>
		<path class="st6" d="M288.03,566.38c-6.88,0.18-14.38,3.08-20.16,10.21H250.6l12.82-255.06l60.64-11.85l11.83,31.06
			C287.2,513.91,297.28,551.36,288.03,566.38z"/>
	</g>
	<g>
		<defs>
			<path id="SVGID_1_" d="M161.37,591.18c10.13-3.54,18.59-13.05,18.59-23.28c0-3.9-1.23-7.9-4.06-11.72
				c39.45-84.12,42.45-125.15,54.8-150.17l37.28-17.95l-8.5-58.05l-84.8,7.76c-33.49,99.61-15.37,112.45-35.37,185.94
				c-2.16,7.93-5.5,16.23-6.87,24.51c-5.16,5.71-13.92,9.21-13.92,30.03c0,5.56,0.82,11.11,2.18,15.99L161.37,591.18z"/>
		</defs>
		<clipPath id="SVGID_00000048482592044595664710000007711449856604183216_">
			<use xlink:href="#SVGID_1_"  style="overflow:visible;"/>
		</clipPath>
		<g style="clip-path:url(#SVGID_00000048482592044595664710000007711449856604183216_);">
			<rect x="101.22" y="325.95" class="st6" width="182.41" height="275.59"/>
		</g>
		<g style="clip-path:url(#SVGID_00000048482592044595664710000007711449856604183216_);">
			<g>
				<g>
					<path class="st5" d="M192.44,409.17c0-7.73-21.63-17.38-35.42-20.19c-9.61,13.87-7.01,47.06-7.01,47.06
						c2.51,0.41,5.32,1.49,7.94,1.49c0.71,0,1.4-0.08,2.07-0.27c0.02-3.87-0.06-7.65,1.23-11.33c4.11,7.31,8.18,18.99,15.63,18.99
						c2.37,0,5.08-1.18,8.24-4.05c-3.78-5.83-12.03-13.7-12.03-20.82c0-0.01,0-0.03,0-0.04
						C187.17,417.15,192.44,413.24,192.44,409.17z M162.6,413.58c-0.05-1.57-0.09-3.15-0.09-4.74c0-2.31,0.08-4.62,0.37-6.88
						c0.22-0.07,0.53-0.11,0.92-0.11c3.38,0,12.19,2.73,12.19,5.95c0,0.21-0.04,0.41-0.11,0.62
						C174.39,412.5,166.05,412.49,162.6,413.58z"/>
				</g>
			</g>
			<g>
				<path class="st5" d="M141.65,470.45c2.57,8.23,11.05,13.44,17.72,13.44c10.58,0,17.71-11.99,17.71-21.22
					c0-5.78-2.8-10.48-9.29-10.48c-1.48,0-3.15,0.24-5.02,0.77c0.33,2.53,0.69,5.78,0.69,9.11c0,6.03-1.18,12.29-5.82,14.83
					c-2.58-2.27-3.37-5.49-3.37-9.04c0-5.58,1.96-11.96,1.96-16.67c0-0.37-0.01-0.73-0.04-1.07c-3.42-0.13-6.9-0.35-10.23-1.05
					L141.65,470.45z"/>
			</g>
			<g>
				<path class="st5" d="M139.01,516.81c-0.74,1.67-1.65,3.29-2.51,4.91c3.18,6.14,12.57,13.12,19.58,13.12
					c4.69,0,7.48-3.41,7.48-7.01c0-7.3-9.06-18.97-9.06-22.76c0-0.79,0.39-1.24,1.33-1.24c1.53,0,4.5,1.17,9.6,3.99
					c1.22-1.56,1.76-3.09,1.76-4.53c0-6.55-11.08-11.48-19.69-11.48c-2.77,0-5.28,0.51-7.09,1.64l-1.63,1
					c3.66,8.55,6.04,21.16,6.04,24.89c0,1.92-0.45,2.68-1.13,2.68C142.41,522.02,140.35,519.37,139.01,516.81z"/>
			</g>
			<g>
				<path class="st5" d="M119.63,558.34c7.96,3.05,26.43,9.84,32.94,9.84c2.69,0,3.69-1.21,3.69-2.94
					c0-8.39-12.25-14.31-15.11-16.37c3.28,0.39,6.74,1.43,10.1,1.43c1.09,0,2.17-0.11,3.23-0.38c0.44-1.96,0.71-3.44,0.71-4.61
					c0-5.35-16.38-9.13-20.09-9.13c-0.81,0-1.62,0.06-2.41,0.2c-1.58,4.19-3.82,8.2-5.49,12.34c3.69,1.89,6.97,4.41,8.56,8.1
					c-4.29-0.62-8.36-2.59-12.26-4.54C122.05,554.19,120.71,556.21,119.63,558.34z"/>
			</g>
		</g>
	</g>
	<g>
		<path class="st6" d="M270.09,584.72c9.95-4.16,13.03-10.89,13.03-18.61c0-8.3-3.56-17.75-5.97-26.36
			c13.31-8.05,13.41-36.44,13.41-69.39c0-54.22-10.24-125.43-10.24-140.33l-55.02,3.13l3.11,43.09c-0.02,4.25-0.04,8.5-0.04,12.75
			c0,51.55,1.97,103.2,11.53,153.94c-3.43,8.72-6.14,18.19-6.14,27.63c0,15.23,5.26,16.99,6.4,21.68L270.09,584.72z"/>
	</g>
	<g>
		<g>
			<path class="st4" d="M281.12,349.22l0.73,8.89l0.38,4.62l0.23,3.24c0.08,1.18,0.17,2.35,0.26,3.53c0.19,2.1,0.44,4.32,0.76,6.82
				c0.66,4.5,1.04,9.12,1.39,13.59c0.35,4.38,0.68,8.91,1.26,13.33c0.47,4.86,0.82,9.81,1.12,14.61c0.26,4.06,0.52,8.27,0.78,12.4
				l0.63,9.78c0.35,5.65,0.66,11.49,0.69,17.23l0,1.31c0.02,4.02-0.1,8.18-0.01,12.26l0.11,8.22c0.02,1.78,0.04,3.56,0.06,5.35
				c0.05,4.07-0.1,8.22-0.31,12.23c-0.26,4.84-0.63,9.84-1,14.73c-0.39,4.28-1.16,8.62-2.34,12.65c-1.28,4.32-3.09,8.67-5.96,12.04
				c-0.55,0.61-1.11,1.21-1.75,1.72c-0.16,0.13-0.3,0.28-0.47,0.4l-0.64,0.45l-0.96,0.67c-0.13,0.04-0.01,0.16-0.01,0.25l0.09,0.28
				l0.17,0.56c0.87,2.71,1.74,5.42,2.61,8.14c0.6,1.89,1.15,3.8,1.64,5.72c0.6,2.39,1.16,4.87,1.55,7.34
				c0.08,0.5,0.42,0.87,0.77,0.83c0.35-0.04,0.58-0.48,0.53-1c-0.25-2.57-0.82-5.12-1.43-7.55c-0.49-1.94-1.04-3.86-1.58-5.79
				l-1.13-4.01l-0.54-2l-0.26-1c-0.07-0.29-0.21-0.81-0.19-0.77c0-0.04-0.03-0.1,0-0.12l0.13-0.06l0.03-0.02l0.14-0.09l0.29-0.19
				c0.19-0.13,0.37-0.28,0.55-0.42c0.75-0.55,1.42-1.19,2.06-1.84c3.47-3.67,5.23-8.46,6.41-12.96c1.09-4.23,1.72-8.66,2.3-12.97
				c0.75-4.96,0.96-10.03,1.08-14.91c0.09-4.04,0.1-8.21,0.22-12.3l0.13-5.39c0.06-2.73,0.12-5.46,0.13-8.18l0-1.91
				c-0.03-3.51-0.14-7.05-0.34-10.47l-0.06-1.24c-0.23-5.76-0.46-11.62-0.68-17.29c-0.11-3.27-0.31-6.54-0.49-9.8
				c-0.26-4.15-0.58-8.36-0.95-12.43c-0.41-4.79-0.89-9.74-1.25-14.57c-0.2-4.5-0.68-9.02-1.17-13.4
				c-0.49-4.46-1.02-9.07-1.27-13.64c-0.18-2.48-0.38-4.71-0.62-6.82l-0.46-3.51l-0.43-3.22l-0.57-4.65l-1.06-8.8
				c-0.06-0.52-0.41-0.91-0.76-0.87C281.33,348.26,281.08,348.7,281.12,349.22z"/>
		</g>
	</g>
	<g>
		<defs>
			<path id="SVGID_00000100351305446138450220000013702689785583431815_" d="M370.4,302.29c1.2,31.71,15.49,58.37,15.49,113.68
				c0,77.88-19.66,99.39-50,129.82c-10.48-8.48-31.92-1.19-31.92-1.19c-0.73-3.89-1.35-9.41-1.35-15.16
				c0-41.49,25.63-16.17,25.63-37.78c0-6.71-1.69-16.53-1.69-24.76c0-17.66,9.79-19,16-24.54l-29.35-86.33
				C313.21,356.03,277.96,305.25,370.4,302.29z"/>
		</defs>
		<clipPath id="SVGID_00000120528715791708696940000009275389795681355164_">
			<use xlink:href="#SVGID_00000100351305446138450220000013702689785583431815_"  style="overflow:visible;"/>
		</clipPath>
		<g style="clip-path:url(#SVGID_00000120528715791708696940000009275389795681355164_);">
			<rect x="297.43" y="287.99" class="st6" width="111.91" height="278.05"/>
		</g>
		<g style="clip-path:url(#SVGID_00000120528715791708696940000009275389795681355164_);">
			<g>
				<path class="st5" d="M392.98,357.75c-2.59-2.23-5.38-3.19-8.17-3.19c-10.46,0-20.91,13.49-20.91,23.86
					c0,4.44,2.43,8.35,4.12,8.35c3.38,0,5-15.34,8.71-15.34c1.76,0,2.22,4.98,2.22,6.79c0,8.57-3.83,22.23-5.61,28.04
					c0.28,0.01,0.55,0.01,0.83,0.01c9.79,0,20.34-3.56,30.27-4.37l-2.25-13.45l-9.31,1.48
					C392.88,389.92,401.52,366.99,392.98,357.75z"/>
			</g>
			<g>
				<path class="st5" d="M390.08,436.98c-4.24-1.33-8.14-4.91-8.14-7.89c0-3.46,5.67-4.58,9.17-4.74l0.9-11.13
					c-13.71,1.08-19.63,7.86-19.63,15.73c0,8.03,6.17,17.19,16.52,22.6L390.08,436.98z"/>
			</g>
			<g>
				<path class="st5" d="M391.1,462.39c-2.9-2.94-5.99-4.16-9.03-4.16c-7.77,0-15.22,7.93-18.33,15.15
					c1.13,1.42,2.41,2.44,3.99,3.33c3.9-2.19,5.43-6.96,9.29-9.24c0.17,0.13,0.34,0.26,0.51,0.38
					c-0.53,10.01-9.72,16.84-18.14,20.94c9.24,3.43,19.34,5.26,28.83,8.18l2.88-9.46l-8.64-2.22
					C382.46,485.31,398.04,473.06,391.1,462.39z"/>
			</g>
			<g>
				<path class="st5" d="M382.46,510.09c-1-4.29-8.22-7.81-13.75-7.81c-3.67,0-6.25,1.36-6.25,5.05c0,2.77,1.24,6.21,1.24,8.98
					c0,3.35-1.92,4.76-5.26,4.76c-1.43,0-2.96-0.2-4.36-0.2c-2.75,0-8.23,8.87-8.23,10.7c0,4.74,8.11,6.89,15.32,6.89
					c4.33,0,8.33-0.78,10.07-2.24L382.46,510.09z"/>
			</g>
		</g>
	</g>
	<g>
		<path class="st9" d="M174.97,244.42c-6.01,25.6-7.56,64.97-7.56,84.8c0,3.98,0.38,7.18,1.24,9.32l-5.31,17l121.77-16.76v-9.23
			c0,0,47.33-15.19,96.51-19.37c-6.21-25.23-11.86-51.14-12.65-76.67c48.19-12.89,63.17-33.37,65.62-52.28l10.69-7.46
			c-0.06-11.99-3.02-17.41-10.85-27.8c-15.8,8.49-68.88,41.17-100,41.17c-0.39,0-0.79-0.01-1.18-0.02
			c1.19-3.34,1.95-6.82,1.95-10.42c0-8.08-4.37-13.42-12.8-13.42c-12.35,0-24.4,8.88-34.25,18.72l-12.42-7.64l-50.44,6.66
			c-24.93-11.83-64.18-11.09-61.08,5.39c-29.53-10.37-63.68-22.74-81.4-29.25l0.18,26.92c4.9,3.01,9.77,6.09,15,8.53
			C115.19,218.74,142.78,236.1,174.97,244.42z"/>
	</g>
	<g>
		<g>
			<g>
				<line class="st3" x1="269.57" y1="210.76" x2="267.12" y2="210.43"/>
			</g>
			<g>
				<line class="st3" x1="281.2" y1="320.53" x2="282.66" y2="322.53"/>
			</g>
			<g>
				<path class="st0" d="M280.74,277.17c2.85,4.36,5.14,9.37,6.4,14.57c0.74,2.81,1.26,5.37,1.66,7.81
					c0.23,1.35,0.43,2.71,0.58,4.07c0.13,1.25,0.22,2.52,0.24,3.75c0,1.74-0.31,3.48-0.97,5.11c-1.21,3.11-3.57,5.71-6.24,7.85
					c-0.48,0.37-0.69,0.91-0.48,1.2c0.21,0.29,0.78,0.22,1.3-0.16c2.84-2.17,5.5-4.86,6.98-8.32c0.79-1.77,1.19-3.71,1.26-5.65
					c0.03-1.34,0.02-2.64-0.04-3.95c-0.07-1.42-0.2-2.85-0.39-4.27c-0.38-2.52-0.96-5.17-1.87-8.07c-1.71-5.21-3.9-10.38-6.76-15.02
					c-0.53-0.78-1.03-1.58-1.59-2.35l-1.16-1.46c-0.01-0.01-0.02-0.02-0.02-0.04l-0.03-0.12l-0.13-0.47l-0.26-0.94l-1.02-3.76
					c-0.67-2.51-1.34-5-2-7.46c-1.38-5.28-2.8-10.74-4.2-16.12c-0.49-2-0.98-4.01-1.4-6.03c-0.68-3.19-1.26-6.4-1.6-9.66
					c-0.15-1.17-0.24-2.33-0.31-3.51c-0.1-1.17-0.12-2.34-0.14-3.51c-0.08-2.92,0.06-5.94,0.33-8.91c0.06-0.6-0.17-1.12-0.52-1.16
					c-0.35-0.05-0.7,0.4-0.79,1.01c-0.42,3.02-0.57,6.12-0.49,9.11c0.02,1.19,0.04,2.38,0.13,3.57c0.06,1.19,0.13,2.38,0.25,3.57
					c0.28,3.31,0.72,6.61,1.26,9.88c0.33,2.06,0.73,4.1,1.14,6.12c1.13,5.51,2.72,10.97,4.28,16.22c0.71,2.44,1.44,4.92,2.17,7.4
					l1.02,3.74l0.24,0.93l0.12,0.47l0.09,0.34l0.06,0.21l0.13,0.17l1.21,1.61C279.71,275.67,280.22,276.43,280.74,277.17z"/>
			</g>
		</g>
		<g>
			<g>
				<line class="st3" x1="196.83" y1="321.02" x2="198.61" y2="322.75"/>
			</g>
			<g>
				<line class="st3" x1="279.13" y1="273.89" x2="278.32" y2="271.55"/>
			</g>
			<g>
				<path class="st0" d="M235.37,283.5c4.71-0.92,9.57-1.9,14.4-2.65c2.62-0.46,4.97-0.9,7.19-1.41c1.23-0.29,2.45-0.58,3.68-0.9
					l3.37-0.86l4.86-1.27c3.05-0.86,6.11-1.7,9.11-2.76c0.54-0.18,0.86-0.61,0.75-0.94c-0.12-0.34-0.63-0.47-1.16-0.31
					c-2.99,0.96-6.08,1.69-9.15,2.42l-4.81,1.06l-3.4,0.66c-1.23,0.23-2.47,0.46-3.71,0.69c-2.2,0.46-4.54,0.94-7.15,1.54
					c-4.71,1.15-9.59,1.98-14.31,2.76l-2.46,0.4c-4.54,0.9-9.21,1.62-13.72,2.29c-1.22,0.18-2.44,0.36-3.68,0.54l-1.05,0.16
					l-0.89,0.14c-0.15,0.03-0.3,0.04-0.44,0.08l-0.1,0.44l-0.55,2.37c-0.59,2.42-1.18,4.86-1.82,7.26c-0.48,1.79-1,3.56-1.56,5.33
					c-0.9,2.78-1.92,5.53-3.16,8.18c-0.86,1.92-1.89,3.76-2.97,5.56c-1.37,2.23-2.98,4.41-4.72,6.42c-0.35,0.41-0.43,0.93-0.17,1.18
					c0.25,0.25,0.76,0.12,1.14-0.29c1.92-1.99,3.6-4.25,5.01-6.54c1.11-1.84,2.17-3.72,3.11-5.66c1.32-2.69,2.52-5.44,3.58-8.24
					c0.66-1.76,1.28-3.53,1.84-5.31c0.79-2.41,1.41-4.89,1.98-7.36c0.12-0.53,0.34-1.52,0.28-1.3c-0.01-0.03,0.03-0.02,0.05-0.03
					l0.8-0.14c1.23-0.22,2.45-0.44,3.67-0.65c4.5-0.81,9.15-1.68,13.71-2.39L235.37,283.5z"/>
			</g>
		</g>
	</g>
	<g>
		<path class="st5" d="M297.81,194.71c1.72-3.33,4.34-6.91,6.99-9.67l-2.4-7.24c6.89-5.53,6.64-11.72,6.64-16.01
			c0-8.84-10.26-27.73-34.12-27.73c-8.54,0-16.63,2.58-21.51,7.83c2.73,3.94,4.63,8.08,6.05,12.82c-0.76,0.12-11.47-0.33-11.47,7.59
			c0,4.61,6.12,5.15,10.73,5.17c1.86,3.71,1.76,8.66,2.04,13.11C274.24,179.41,285.68,181.5,297.81,194.71z"/>
	</g>
	<g>
		<path class="st2" d="M353.04,181.01c1.55-1.72,2.97-3.56,5.38-3.56c4.48,0,10.75,7.47,10.75,10.83c0,0.82-0.41,1.34-1.36,1.34
			c-2.51,0-7.38-3.52-9.68-5.02C356.54,183.57,354.17,182.6,353.04,181.01z"/>
	</g>
	<g>
		<path class="st2" d="M356.24,179.29c2.46,2.53,6.23,7.22,6.23,10.76c0,1.8-1.09,2.73-2.75,2.73c-4.62,0-11.14-6.94-11.14-9.63
			c0-0.17,0.04-0.3,0.17-0.33c0.06-0.01,0.12-0.02,0.18-0.02c1.55,0,3.46,4.73,3.46,8.17c0,1.98-0.63,3.54-2.32,3.54
			c-4.51,0-9.75-8.3-9.75-12.3c0-0.24,0.02-0.47,0.05-0.71"/>
	</g>
	<g>
		<g>
			<g>
				<line class="st3" x1="265.09" y1="145.17" x2="267" y2="146.75"/>
			</g>
			<g>
				<line class="st3" x1="277.53" y1="142.73" x2="277.91" y2="140.28"/>
			</g>
			<g>
				<path class="st0" d="M273.94,142.49c0.21-0.06,0.43-0.13,0.65-0.18c0.32-0.06,0.64-0.11,0.96-0.14
					c0.61-0.07,1.24-0.08,1.87-0.04c0.11,0.01,0.25-0.28,0.3-0.63c0.06-0.35,0-0.65-0.12-0.68c-0.68-0.14-1.37-0.25-2.08-0.31
					c-0.37-0.03-0.74-0.04-1.11-0.04l-0.79,0l-0.19,0c-1.04,0.39-2.12,0.62-3.14,1.01c-0.17,0.07-0.35,0.13-0.52,0.21l-0.3,0.22
					c-0.55,0.38-1.07,0.8-1.57,1.22l-1.06,0.93c-0.42,0.4-0.85,0.83-1.17,1.34c-0.07,0.1,0.1,0.36,0.37,0.59s0.55,0.34,0.63,0.27
					c0.39-0.37,0.79-0.74,1.17-1.1c0.31-0.28,0.63-0.54,0.99-0.76c0.48-0.32,1.02-0.56,1.56-0.76l0.29-0.09
					c0.14-0.09,0.28-0.15,0.42-0.23c0.8-0.44,1.73-0.79,2.68-0.73L273.94,142.49z"/>
			</g>
		</g>
		<g>
			<g>
				<line class="st3" x1="304.01" y1="146.49" x2="301.58" y2="145.98"/>
			</g>
			<g>
				<line class="st3" x1="270.35" y1="153.88" x2="268.76" y2="155.78"/>
			</g>
			<g>
				<path class="st0" d="M280.55,157.04c-0.69,0.02-1.38,0.03-2.06-0.01c-0.99-0.05-1.97-0.17-2.94-0.36
					c-1.82-0.36-3.62-0.96-5.11-1.99c-0.25-0.19-0.65-0.11-0.89,0.16c-0.23,0.27-0.19,0.67,0.1,0.91c1.66,1.27,3.6,2.04,5.56,2.55
					c1.02,0.26,2.06,0.45,3.1,0.58c0.73,0.09,1.46,0.16,2.2,0.22l0.52,0.04c3.08-0.24,6.18-0.58,9.13-1.35
					c0.51-0.13,1.02-0.26,1.52-0.43l0.95-0.39c1.73-0.74,3.39-1.63,4.96-2.7c1.13-0.76,2.16-1.67,3.12-2.66
					c1.16-1.27,2.14-2.85,2.55-4.6c0.09-0.36-0.12-0.69-0.47-0.76c-0.34-0.07-0.7,0.11-0.8,0.4c-0.48,1.47-1.33,2.83-2.37,3.97
					c-0.86,0.88-1.81,1.71-2.89,2.35c-1.48,0.93-3.11,1.63-4.79,2.18l-0.9,0.25c-0.46,0.18-0.94,0.33-1.42,0.47
					c-2.72,0.86-5.71,1.33-8.61,1.14L280.55,157.04z"/>
			</g>
		</g>
		<g>
			<g>
				<line class="st3" x1="262.07" y1="141.54" x2="264.38" y2="142.43"/>
			</g>
			<g>
				<line class="st3" x1="272.58" y1="135.9" x2="272.91" y2="133.44"/>
			</g>
			<g>
				<path class="st1" d="M269.43,136.25c0.17-0.11,0.34-0.24,0.53-0.34c0.27-0.11,0.54-0.27,0.83-0.33
					c0.54-0.19,1.11-0.27,1.69-0.26c0.1,0,0.22-0.3,0.27-0.65c0.05-0.35-0.01-0.65-0.14-0.67c-0.71-0.11-1.45-0.15-2.18-0.04
					c-0.39,0.02-0.74,0.15-1.12,0.22l-0.77,0.23c-0.06,0.02-0.13,0.03-0.18,0.05c-0.9,0.69-1.8,1.3-2.61,2
					c-0.15,0.12-0.27,0.25-0.41,0.37l-0.2,0.3c-0.37,0.54-0.71,1.08-1.04,1.63l-0.7,1.18c-0.27,0.5-0.55,1.03-0.7,1.61
					c-0.03,0.12,0.21,0.31,0.54,0.44c0.33,0.12,0.63,0.15,0.68,0.06c0.26-0.46,0.51-0.93,0.76-1.38c0.21-0.35,0.43-0.71,0.7-1.02
					c0.35-0.46,0.77-0.86,1.2-1.23l0.25-0.17c0.1-0.12,0.2-0.25,0.31-0.36c0.59-0.68,1.31-1.33,2.19-1.54
					C269.35,136.31,269.39,136.28,269.43,136.25z"/>
			</g>
		</g>
		<g>
			<g>
				<path class="st5" d="M281.27,143.4c1.89-8.19,4.88-9.16,7.49-9.63c2.3-0.42,4.3,1.71,5.02,5.64c0.26,1.44,0.35,3.13,0.22,5.02"
					/>
			</g>
			<g>
				<g>
					<line class="st3" x1="280.06" y1="143.12" x2="282.47" y2="143.68"/>
				</g>
				<g>
					<line class="st3" x1="292.76" y1="144.34" x2="295.24" y2="144.51"/>
				</g>
				<g>
					<path class="st1" d="M290.41,135.03c0.78,0.38,1.51,1.32,1.71,2.4c0.15,0.58,0.29,1.1,0.42,1.6l0.27,0.84
						c0.08,0.26,0.15,0.53,0.21,0.79c0.07,0.39,0.14,0.78,0.18,1.18c0.1,0.75,0.14,1.52,0.14,2.29c0,0.14,0.3,0.27,0.65,0.29
						c0.35,0.03,0.65-0.07,0.67-0.21c0.09-0.81,0.17-1.63,0.19-2.46c0.01-0.43,0.01-0.86-0.01-1.3l-0.03-0.92
						c-0.01-0.34-0.05-0.68-0.09-1.02c-0.12-0.6-0.31-1.23-0.67-1.89c-0.7-1.15-1.36-2.42-2.64-3.3c-0.21-0.16-0.47-0.27-0.71-0.39
						c-0.73-0.23-1.57-0.25-2.26-0.13c-0.6,0.09-1.24,0.21-1.87,0.42c-1.37,0.41-2.71,1.39-3.42,2.61c-0.3,0.44-0.51,0.91-0.73,1.37
						c-0.31,0.74-0.56,1.48-0.8,2.21l-0.49,1.57c-0.21,0.65-0.37,1.33-0.47,2.02c-0.02,0.14,0.24,0.31,0.58,0.39
						c0.34,0.08,0.65,0.04,0.7-0.09c0.23-0.63,0.39-1.28,0.6-1.9c0.14-0.5,0.33-0.98,0.53-1.45c0.29-0.65,0.65-1.26,1.04-1.83
						c0.26-0.34,0.51-0.68,0.79-0.97c0.76-0.81,1.48-1.49,2.43-1.93c0.44-0.21,0.93-0.37,1.47-0.48c0.45-0.1,0.82-0.07,1.18,0.11
						C290.14,134.92,290.28,134.95,290.41,135.03z"/>
				</g>
			</g>
		</g>
	</g>
	<g>
		<g>
			<g>
				<path class="st0" d="M196.95,179.9c-2.32,2.92-4.94,9.72-4.22,12.07c0.21,0.7,0.73,1,1.63,0.69c0.97-0.33,2.41-1.38,4.42-3.41
					c0.07,0.17,0.14,0.36,0.2,0.56c0.12,0.38,0.22,0.79,0.34,1.19c0.57,1.84,1.72,2.32,2.59,2.02c1.95-0.67,4.56-6.83,3.13-11.46
					c-0.87-2.84-3.14-4.83-6.99-4.57"/>
			</g>
			<g>
				<path class="st0" d="M231.6,140.02c7.89-1.93,17,0.89,17.78,3.43c0.27,0.88-0.45,1.69-2.18,2.28c-0.64,0.22-1.42,0.41-2.34,0.56
					c3.34,2.11,7.93,3.06,9.31,7.53c0.54,1.76-0.04,2.68-1.17,3.07c-6,2.05-17.01-4.75-21.3-16.75c0,0,0,0,0,0
					C231.67,140.1,231.63,140.06,231.6,140.02z"/>
			</g>
			<g>
				<g>
					<g>
						<line class="st3" x1="195.51" y1="145.3" x2="193.79" y2="143.51"/>
					</g>
					<g>
						<line class="st3" x1="156.95" y1="119.93" x2="156.78" y2="117.46"/>
					</g>
					<g>
						<path class="st0" d="M134.87,149.33c-1.66-1.81-2.83-4.08-3.32-6.55c-0.53-2.46-0.39-5.12,0.33-7.5
							c0.74-2.62,2.02-4.73,3.51-6.5c0.45-0.47,0.84-0.99,1.32-1.43c0.49-0.43,0.95-0.89,1.46-1.31l1.45-1.09
							c0.5-0.34,1.03-0.65,1.55-0.97c0.74-0.47,1.57-0.81,2.35-1.23c0.81-0.35,1.63-0.7,2.46-1.02c3.16-1.17,6.5-1.92,9.87-2.28
							c0.6-0.07,1.05-0.42,1.03-0.77c-0.02-0.35-0.54-0.6-1.16-0.55c-3.5,0.29-6.99,0.94-10.35,2.05c-0.87,0.3-1.73,0.63-2.59,0.98
							c-0.83,0.4-1.7,0.74-2.5,1.2c-0.57,0.32-1.15,0.62-1.71,0.96l-1.64,1.09c-0.58,0.42-1.12,0.9-1.69,1.35
							c-0.56,0.46-1.03,1.02-1.55,1.54c-1.71,1.95-3.17,4.44-3.86,7.48c-0.58,2.75-0.65,5.59-0.07,8.36
							c0.54,2.76,1.81,5.4,3.65,7.51c0.69,0.66,1.33,1.4,2.08,1.98c4.26,3.26,9.44,4.89,14.4,5.91c5.39,1.02,11.06,1.32,16.6,0.92
							l3.09-0.28l3.08-0.47c3.23-0.61,6.44-1.48,9.46-2.87c2.17-0.99,4.23-2.26,6.06-3.8c2.32-1.89,4.25-4.28,6.2-6.42
							c0.4-0.43,0.52-0.97,0.28-1.23c-0.24-0.25-0.78-0.12-1.22,0.31c-2.14,2.13-4.01,4.43-6.21,6.21
							c-1.73,1.45-3.66,2.64-5.75,3.51c-2.89,1.26-6,1.95-9.14,2.38l-2.97,0.31c-1,0.05-1.99,0.09-2.98,0.14
							c-5.41,0.14-10.9,0-16.11-0.83c-4.77-0.82-9.78-2.3-13.48-5.37C136.08,150.55,135.51,149.9,134.87,149.33z"/>
					</g>
				</g>
				<g>
					<g>
						<line class="st3" x1="152.41" y1="117.71" x2="154.81" y2="118.35"/>
					</g>
					<g>
						<line class="st3" x1="154.81" y1="118.35" x2="152.41" y2="117.71"/>
					</g>
					<g>
						<path class="st0" d="M156.61,120.92c-0.22,0.04-0.46,0.02-0.7-0.05c-0.34-0.09-0.68-0.28-0.96-0.53
							c-0.53-0.46-0.86-1.16-0.74-1.91c0.01-0.13-0.27-0.31-0.62-0.41c-0.34-0.1-0.65-0.01-0.69,0.19c-0.3,1.11,0.07,2.41,0.85,3.29
							c0.4,0.47,0.91,0.84,1.48,1.09c0.4,0.18,0.84,0.32,1.31,0.37c0.11,0.02,0.22,0.02,0.34,0.03c1.02-0.15,1.96-0.77,2.51-1.55
							c0.56-0.78,0.85-1.65,0.9-2.56c0.01-0.32,0-0.66-0.07-0.99c-0.06-0.21-0.16-0.41-0.26-0.6c-0.55-1.07-1.55-1.76-2.6-2.04
							c-0.76-0.18-1.58-0.2-2.35,0.09c-0.97,0.34-1.73,1.25-1.96,2.18c-0.05,0.19,0.2,0.41,0.54,0.5c0.34,0.09,0.65,0.06,0.7-0.06
							c0.29-0.6,0.69-1.04,1.23-1.23c0.42-0.16,0.93-0.15,1.38,0.02c0.64,0.23,1.12,0.76,1.27,1.32c0.01,0.1,0.04,0.2,0.03,0.3
							c0.05,0.15,0.07,0.32,0.09,0.49c0.03,0.52-0.1,1.1-0.4,1.5c-0.3,0.41-0.73,0.6-1.17,0.52
							C156.71,120.89,156.66,120.91,156.61,120.92z"/>
					</g>
				</g>
				<g>
					<g>
						<line class="st3" x1="153.81" y1="117.54" x2="155.86" y2="118.93"/>
					</g>
					<g>
						<line class="st3" x1="155.97" y1="117.74" x2="153.7" y2="118.73"/>
					</g>
					<g>
						<path class="st0" d="M166.15,122.22c-0.06,0.04-0.14,0.07-0.23,0.09c-0.05,0.01-0.09,0.02-0.15,0.02l-0.08,0
							c-0.02,0-0.04,0-0.19-0.02c-0.92-0.09-1.86-0.32-2.78-0.64c-2.09-0.73-4.11-1.83-5.98-3.1l-0.88,1.45
							c0.55,0.28,1.1,0.58,1.62,0.89c1.15,0.7,2.26,1.5,3.11,2.45c0.22,0.24,0.4,0.48,0.57,0.73c0.09,0.16,0.11,0.18,0.14,0.25
							c0.03,0.06,0.05,0.12,0.08,0.19c0.04,0.13,0.05,0.28-0.04,0.4c-0.09,0.12-0.25,0.13-0.38,0.11c-0.15-0.03-0.24-0.07-0.42-0.16
							c-0.26-0.15-0.52-0.33-0.76-0.53c-0.5-0.4-0.96-0.88-1.38-1.4c-0.86-1.03-1.57-2.2-2.21-3.41c-0.45-0.86-1.03-1.46-1.37-1.31
							c-0.32,0.14-0.28,1,0.19,1.92c0.65,1.29,1.39,2.56,2.32,3.71c0.46,0.58,0.97,1.14,1.56,1.63c0.3,0.25,0.62,0.48,0.97,0.69
							c0.48,0.27,1.02,0.45,1.54,0.48c0.51,0.02,1.02-0.15,1.34-0.56c0.31-0.4,0.38-0.92,0.29-1.45c-0.04-0.27-0.13-0.53-0.25-0.79
							c-0.04-0.13-0.12-0.26-0.19-0.38c-0.05-0.09-0.1-0.18-0.16-0.27c-0.22-0.34-0.45-0.66-0.71-0.94
							c-1.02-1.16-2.22-2.04-3.46-2.83c-0.53-0.33-1.08-0.64-1.63-0.94l-0.88,1.45c1.96,1.38,4.04,2.59,6.33,3.45
							c1.02,0.37,2.08,0.68,3.2,0.82c0.11,0.02,0.34,0.04,0.57,0.04l0.68,0.02c0.45,0.01,0.88-0.05,1.27-0.12
							c0.8-0.15,1.4-0.43,2-0.74l0.71-0.36c0.29-0.14,0.34-0.22,0.52-0.33l-0.46-0.31c-0.72-0.46-1.41-0.91-2.14-1.36
							c-0.35-0.23-0.74-0.44-1.11-0.65l-0.57-0.31l-0.35-0.18c-0.89-0.45-1.8-0.86-2.76-1.19c-1.9-0.64-4.07-1.1-6.24-0.45
							l-3.01,0.9l3.03,0.86c1.95,0.55,3.94,1.05,6.02,1.27c0.52,0.05,1.05,0.08,1.59,0.08c0.27,0,0.54-0.01,0.82-0.04l0.42-0.05
							l0.21-0.03l0.31-0.07c0.86-0.18,1.61-0.58,2.09-1.07c0.25-0.25,0.43-0.53,0.6-0.82l0.26-0.46c0.08-0.16,0.09-0.25,0.13-0.38
							c-0.63-0.35-1.2-0.69-1.87-0.99c-0.34-0.15-0.68-0.29-1.04-0.42c-0.34-0.12-0.46-0.16-0.71-0.23
							c-1.52-0.45-3.11-0.67-4.72-0.59c-1.04,0.09-2.09,0.3-3.1,0.72c-0.53,0.22-1.05,0.5-1.53,0.84l-2.11,1.5l2.44,0.19
							c0.74,0.06,1.5,0.23,2.23,0.15c0.73-0.05,1.44-0.2,2.13-0.4c0.69-0.2,1.35-0.48,1.98-0.81l0.24-0.12l0.33-0.19
							c0.22-0.12,0.45-0.28,0.67-0.43c0.44-0.31,0.84-0.63,1.24-0.95c-0.02-0.14,0-0.25-0.06-0.41c-0.07-0.17-0.14-0.34-0.22-0.5
							c-0.16-0.33-0.4-0.62-0.68-0.85c-0.57-0.47-1.46-0.68-2.31-0.59c-1.28,0.13-2.31,0.56-3.33,1.05
							c-1.05,0.55-2.03,1.13-2.96,2.03l-2.31,2.24l3.09-1c1.23-0.4,2.56-0.75,3.84-1.22c1.29-0.48,2.6-0.99,3.78-1.95
							c0.26-0.21,0.51-0.46,0.73-0.74l0.32-0.45l0.26-0.61c0.07-0.45,0.18-0.92,0.09-1.36c-0.03-0.22-0.09-0.43-0.16-0.63
							l-0.11-0.31l-0.06-0.15l-0.16-0.01c-0.44,0-0.81-0.09-1.3-0.01l-0.67,0.1c-0.16,0.02-0.31,0.07-0.47,0.1
							c-0.63,0.13-1.24,0.33-1.83,0.55c-2.39,0.91-4.48,2.47-6.11,4.38c-0.67,0.79-0.86,1.64-0.57,1.82
							c0.3,0.19,0.94-0.26,1.57-0.96c1.55-1.71,3.5-3.11,5.65-3.9c0.54-0.2,1.08-0.37,1.63-0.48c0.14-0.03,0.27-0.07,0.41-0.08
							l0.21-0.03c0.12-0.02,0.24-0.02,0.37-0.03c0.15,0.15,0.12,0.46,0.05,0.67l-0.1,0.22l-0.2,0.28c-0.15,0.18-0.31,0.36-0.52,0.52
							c-0.9,0.73-2.11,1.24-3.32,1.68c-1.23,0.44-2.49,0.77-3.81,1.18l0.78,1.24c0.67-0.65,1.65-1.24,2.58-1.69
							c0.88-0.43,1.88-0.77,2.71-0.84c0.21-0.01,0.38,0.01,0.54,0.11c0.07,0.05,0.14,0.11,0.18,0.19c0.02,0.04,0.04,0.08,0.05,0.12
							c0.01,0.04-0.06,0.06-0.09,0.09c-0.09,0.06-0.18,0.12-0.27,0.17l-0.16,0.08l-0.3,0.15c-0.54,0.27-1.11,0.48-1.69,0.64
							c-0.58,0.16-1.17,0.25-1.75,0.28c-0.59,0.05-1.13-0.13-1.69-0.16l0.32,1.69c0.37-0.25,0.78-0.45,1.21-0.61
							c0.76-0.27,1.59-0.41,2.43-0.45c1.35-0.09,2.75,0.07,4.08,0.44l0.63,0.19c0.09,0.03,0.17,0.07,0.26,0.11
							c0.08,0.02,0.06,0.07,0.02,0.11c-0.03,0.04-0.07,0.08-0.11,0.12c-0.09,0.07-0.19,0.11-0.31,0.13l-0.21,0.04l-0.32,0.04
							c-0.22,0.02-0.44,0.03-0.67,0.04c-0.45,0.01-0.92-0.01-1.39-0.06c-1.88-0.18-3.79-0.64-5.69-1.19l0.02,1.76
							c1.56-0.48,3.38-0.13,5.07,0.49c0.85,0.32,1.68,0.72,2.49,1.17l0.26,0.15l0.06,0.04l0.1,0.07c0.06,0.05,0.11,0.09,0.14,0.13
							l0.05,0.02C166.24,122.16,166.19,122.19,166.15,122.22z"/>
					</g>
				</g>
			</g>
			<g>
				<path class="st6" d="M198.29,175.68l35.82-37.42c1.81-3.51,2.56-7.04,1.38-10.88c-3.1-10.11-15.32-9.86-24.93-6.58
					c-19.54,6.67-32.33,35.44-28.21,48.87C184.17,175.58,189.16,178.8,198.29,175.68c0.12-0.04,0.24-0.08,0.36-0.13"/>
			</g>
			<g>
				<path class="st0" d="M235.46,144.32c9.34-5.91,13.04-9.47,12.25-12.03c-2.01-6.53-21.34-2.86-28.69-0.34
					c-14.06,4.8-22.07,12.95-20.96,29.07L235.46,144.32z"/>
			</g>
			<g>
				<path class="st2" d="M201.05,186.01c0.04,0.22,0.08,0.44,0.13,0.65c0.19,1,0.44,2.05,0.77,3.1c3.1,10.09,13.68,16.36,28,11.47
					c16.54-5.65,28.91-17.98,22.44-39.04c-5.28-17.2-17.14-27.93-33.46-22.35c-18.52,6.33-21.68,16.9-20.25,31.32
					c-1.74-0.66-3.15-0.72-4.23-0.35c-2.83,0.97-3.47,4.85-2.37,8.45C193.24,183.1,196.41,186.63,201.05,186.01z"/>
			</g>
			<g>
				<path class="st0" d="M202.99,151.15c-1.44,5.41-9.57,8.2-9.85,14.6c1.51-0.55,2.9-1.36,4.27-2.21
					c-1.17,1.63-4.15,4.46-3.41,6.86c0.02,0.07,0.04,0.13,0.07,0.19c0.1-0.02,0.2-0.05,0.3-0.09c1.21-0.41,1.97-1.56,2.91-2.42
					c0.08,0.13,3.83,8,6.3,7.16c2.88-0.98,0.04-15.85-0.87-18.82c1.5-0.94,10.18-3.09,8.16-9.67c-0.55-1.78-2-2.9-3.61-2.35
					C205.76,144.92,204.13,146.89,202.99,151.15z"/>
			</g>
			<g>
				<path class="st0" d="M207.23,148.65c-1.21-0.24-2.54-0.1-3.81,0.33c-3.44,1.17-6.4,4.5-5.25,8.26c0.14,0.46,0.35,0.93,0.62,1.41
					"/>
			</g>
			<g>
				<path class="st0" d="M199.71,168.74c0.1,1.36-2.03,5.53-3.95,6.19c-0.99,0.34-1.68-0.34-1.98-1.32
					c-0.9-2.93-0.11-7.35,4.54-12.09c0.04,0,0.08,0,0.12,0c0.25,0.37,0.45,0.82,0.6,1.32c0.35,1.12,0.47,2.46,0.53,3.47"/>
			</g>
			<g>
				<path class="st5" d="M217.46,126.18c0.42-1.95,1.57-2.91,2.73-3.1c1.37-0.22,2.76,0.65,2.98,2.24c0.26,1.83-0.88,3.63-2.82,3.93
					c-1.36,0.22-2.75-0.41-2.96-1.89C217.35,127.01,217.37,126.62,217.46,126.18z"/>
			</g>
		</g>
		<g>
			<g>
				<line class="st3" x1="211.72" y1="155.56" x2="213.83" y2="156.88"/>
			</g>
			<g>
				<line class="st3" x1="226.29" y1="154.49" x2="227.2" y2="152.18"/>
			</g>
			<g>
				<path class="st0" d="M222.06,153.11c0.27,0,0.55,0,0.82,0.03c0.39,0.04,0.78,0.1,1.18,0.17c0.74,0.13,1.49,0.31,2.22,0.54
					c0.13,0.04,0.34-0.21,0.47-0.54c0.13-0.33,0.13-0.64,0-0.7c-0.74-0.33-1.5-0.65-2.28-0.92c-0.41-0.14-0.82-0.27-1.24-0.38
					l-0.89-0.25l-0.21-0.06c-1.31,0.05-2.63-0.02-3.95,0.19c-0.23,0.04-0.45,0.08-0.68,0.13c-0.14,0.06-0.28,0.12-0.41,0.19
					c-0.75,0.34-1.46,0.76-2.11,1.25c-0.46,0.36-0.91,0.73-1.31,1.14c-0.51,0.51-0.97,1.09-1.3,1.73c-0.07,0.13,0.12,0.38,0.42,0.57
					c0.3,0.18,0.6,0.25,0.68,0.15c0.41-0.49,0.81-0.99,1.24-1.42c0.34-0.34,0.72-0.66,1.14-0.89c0.57-0.35,1.21-0.57,1.85-0.7
					c0.11-0.02,0.23-0.03,0.35-0.04c0.17-0.07,0.35-0.11,0.53-0.17c1.02-0.29,2.21-0.37,3.3-0.03L222.06,153.11z"/>
			</g>
		</g>
		<g>
			<g>
				<line class="st3" x1="236.39" y1="152.3" x2="238.72" y2="153.14"/>
			</g>
			<g>
				<line class="st3" x1="244.18" y1="148.27" x2="244.2" y2="145.79"/>
			</g>
			<g>
				<path class="st0" d="M241.86,148.52c0.11-0.1,0.23-0.18,0.36-0.26c0.19-0.1,0.38-0.19,0.59-0.27c0.38-0.17,0.82-0.2,1.24-0.3
					c0.07-0.01,0.14-0.33,0.14-0.68c0-0.36-0.07-0.64-0.16-0.64c-0.52,0.01-1.05-0.07-1.59,0c-0.28,0.03-0.57,0.08-0.85,0.15
					c-0.19,0.06-0.41,0.08-0.6,0.15l-0.15,0.03c-0.68,0.58-1.38,1.05-1.99,1.62l-0.3,0.3c-0.05,0.08-0.08,0.17-0.12,0.25
					c-0.24,0.44-0.42,0.9-0.63,1.33c-0.13,0.32-0.28,0.62-0.41,0.93c-0.17,0.38-0.33,0.78-0.4,1.21c-0.02,0.09,0.24,0.25,0.57,0.37
					c0.33,0.12,0.62,0.16,0.67,0.09c0.21-0.34,0.35-0.71,0.51-1.05c0.12-0.28,0.26-0.54,0.43-0.79c0.23-0.34,0.51-0.66,0.81-0.92
					c0.06-0.04,0.11-0.09,0.17-0.13l0.18-0.27c0.35-0.51,0.83-0.97,1.46-1.05L241.86,148.52z"/>
			</g>
		</g>
		<g>
			<path class="st0" d="M215.82,167.77c3.7,6.68,11.92,11.96,19.46,10.76c6.97-1.11,9.3-5.88,10.89-10.42
				C236.15,167.2,225.87,167.09,215.82,167.77z"/>
		</g>
		<g>
			<g>
				<path class="st2" d="M232.84,153.03c1.53-0.6,2.93-0.99,4.19-1.19c4.69-0.74,7.45,1.05,7.8,3.57c0.4,2.8-2.17,6.5-8.35,8.55"/>
			</g>
			<g>
				<g>
					<line class="st3" x1="232.39" y1="151.88" x2="233.3" y2="154.19"/>
				</g>
				<g>
					<line class="st3" x1="236.1" y1="162.79" x2="236.88" y2="165.14"/>
				</g>
				<g>
					<path class="st4" d="M242.5,159.12c-0.25,0.36-0.54,0.71-0.87,1.02c-0.46,0.46-0.99,0.87-1.54,1.26
						c-1.05,0.73-2.21,1.32-3.43,1.8c-0.21,0.09-0.29,0.44-0.18,0.78c0.11,0.34,0.39,0.55,0.62,0.47c1.33-0.42,2.64-0.94,3.89-1.65
						c0.64-0.38,1.28-0.78,1.86-1.27c0.42-0.33,0.82-0.69,1.21-1.09l0.27-0.28c0.63-0.97,1.17-2.07,1.38-3.3
						c0.23-1.21-0.01-2.61-0.74-3.68c-0.25-0.37-0.55-0.7-0.88-0.99c-0.24-0.15-0.47-0.32-0.72-0.43c-1.34-0.71-2.77-0.87-4.11-0.86
						c-0.98,0.01-1.93,0.13-2.86,0.3c-1.16,0.22-2.33,0.57-3.41,1.06c-0.22,0.1-0.29,0.45-0.16,0.77c0.13,0.33,0.4,0.53,0.62,0.46
						c1.08-0.33,2.17-0.65,3.23-0.85c0.85-0.15,1.71-0.25,2.55-0.19c1.16,0.05,2.31,0.36,3.14,0.97c0.15,0.1,0.26,0.24,0.4,0.34
						c0.21,0.17,0.41,0.35,0.57,0.56c1,1.17,0.65,3.26-0.7,4.53L242.5,159.12z"/>
				</g>
			</g>
		</g>
		<g>
			<path class="st1" d="M231.73,176.36c-2.42-0.33-7.9-2.49-8.09-3.87c-0.06-0.44,0.4-0.8,1.67-1c4.86-0.77,10.8,1.23,11.13,3.57
				c0.09,0.64-0.4,1.17-1.62,1.36C234.07,176.54,233.05,176.54,231.73,176.36z"/>
		</g>
		<g>
			<path class="st0" d="M212.77,148.34l-1.13-0.65c1.15-2,2.78-3.45,4.59-4.08l0.84-0.29l0.02,0.45c1.11-0.85,2.34-1.59,3.67-1.8
				c0.23-0.04,0.47-0.06,0.7-0.06l0.02,1.31c-0.17,0-0.34,0.02-0.51,0.04c-1.72,0.27-3.44,1.79-4.81,3.01l-0.13,0.11
				c-0.12,0.11-0.24,0.21-0.35,0.31l-0.05,0.04l-0.76-0.87C214.07,146.49,213.36,147.33,212.77,148.34z"/>
		</g>
		<g>
			<path class="st0" d="M240.47,143.19c-1.49-0.47-2.81-0.73-4.4-0.48c-0.26,0.04-0.53,0.09-0.8,0.16l-0.32-1.27
				c0.32-0.08,0.62-0.14,0.92-0.19c1.84-0.29,3.33,0,4.99,0.52L240.47,143.19z"/>
		</g>
		<g>
			<path class="st9" d="M178.6,183.7c30.74-4.67,62.19,20.47,64.03,33.36c0.45,3.12-1.81,4.36-4.75,4.83
				c-6.85,1.09-58.52-22.95-63.98-26.73"/>
		</g>
	</g>
	<g>
		<g>
			<line class="st3" x1="178.01" y1="179.94" x2="178.01" y2="182.42"/>
		</g>
		<g>
			<line class="st3" x1="238.42" y1="208.64" x2="240.29" y2="207.01"/>
		</g>
		<g>
			<path class="st0" d="M216.05,191.14c1.37,0.69,2.8,1.33,4.14,2.17c1.36,0.79,2.7,1.63,3.92,2.61c0.69,0.5,1.35,0.97,1.98,1.42
				c0.62,0.47,1.21,0.92,1.79,1.35c0.65,0.48,1.35,0.89,1.97,1.4l1.76,1.36c0.85,0.65,1.65,1.36,2.44,2.09
				c1.54,1.32,2.96,2.78,4.37,4.25c0.25,0.26,0.68,0.27,0.95,0.03c0.27-0.23,0.29-0.64,0.05-0.91c-1.37-1.56-2.74-3.15-4.24-4.6
				c-0.76-0.78-1.52-1.55-2.34-2.26l-1.68-1.55c-0.59-0.59-1.26-1.08-1.9-1.61c-0.59-0.45-1.21-0.91-1.85-1.39
				c-0.66-0.46-1.38-0.89-2.13-1.35c-1.37-0.83-2.77-1.62-4.16-2.43c-1.36-0.85-2.79-1.58-4.17-2.35c-0.48-0.26-0.95-0.54-1.45-0.76
				c-2.8-1.21-5.63-2.48-8.45-3.54c-1.53-0.54-3.06-1.15-4.66-1.58c-1.59-0.47-3.2-0.9-4.83-1.17c-1.21-0.24-2.41-0.47-3.63-0.61
				l-2.88-0.39l-2.9-0.29c-1.39-0.17-2.78-0.24-4.17-0.35c-1.73-0.17-3.53-0.15-5.31-0.14c-0.36,0.01-0.65,0.29-0.65,0.65
				c0,0.35,0.28,0.65,0.63,0.67c1.75,0.14,3.52,0.13,5.23,0.3c1.36,0.11,2.73,0.18,4.09,0.42l2.83,0.43l2.8,0.6
				c1.17,0.23,2.32,0.55,3.47,0.85c1.57,0.39,3.12,0.83,4.68,1.27c1.57,0.38,3.08,0.91,4.6,1.36c2.79,0.9,5.63,2,8.26,3.35
				C215.09,190.65,215.57,190.9,216.05,191.14z"/>
		</g>
	</g>
	<g>
		<g>
			<line class="st3" x1="254.73" y1="180.54" x2="255.26" y2="182.96"/>
		</g>
		<g>
			<line class="st3" x1="298.84" y1="199.34" x2="301.03" y2="198.18"/>
		</g>
		<g>
			<path class="st0" d="M284.1,184.89c2.13,0.79,4.21,1.96,5.93,3.5c0.97,0.79,1.78,1.57,2.58,2.27l1.31,1.21
				c0.42,0.36,0.77,0.78,1.15,1.18c0.55,0.58,1.03,1.21,1.52,1.83c0.93,1.19,1.76,2.46,2.53,3.77c0.14,0.23,0.51,0.28,0.83,0.11
				c0.32-0.16,0.46-0.49,0.34-0.74c-0.71-1.4-1.48-2.79-2.35-4.12c-0.45-0.69-0.91-1.38-1.43-2.03c-0.36-0.46-0.68-0.95-1.07-1.39
				c-0.41-0.49-0.81-0.98-1.26-1.45c-0.83-0.78-1.74-1.6-2.88-2.34c-2.09-1.29-4.19-2.64-6.4-3.62c-0.38-0.17-0.75-0.38-1.14-0.52
				c-1.12-0.34-2.21-0.78-3.34-1.07l-1.68-0.5c-0.56-0.13-1.13-0.27-1.68-0.4c-2.4-0.59-4.93-0.91-7.43-0.96
				c-0.93-0.02-1.86,0.03-2.78,0.05c-1.46,0.02-2.93,0.15-4.4,0.27c-1.05,0.1-2.1,0.2-3.15,0.33c-1.31,0.16-2.65,0.39-3.95,0.74
				c-0.26,0.07-0.41,0.41-0.33,0.75c0.08,0.34,0.34,0.58,0.61,0.54c1.29-0.2,2.6-0.41,3.87-0.56c1.01-0.12,2.03-0.21,3.06-0.24
				c1.43-0.05,2.85-0.02,4.28,0.11c0.89,0.07,1.78,0.14,2.67,0.22c2.4,0.3,4.82,0.46,7.14,0.87c0.54,0.09,1.08,0.19,1.62,0.28
				l1.61,0.41c1.09,0.25,2.11,0.68,3.13,1.08C283.37,184.56,283.73,184.74,284.1,184.89z"/>
		</g>
	</g>
	<g>
		<g>
			<path class="st10" d="M325.25,150.69"/>
		</g>
	</g>
	<g>
		<path class="st5" d="M165.92,242.32c1.08-0.24,2.49-0.54,4.06-0.79c5.73-0.92,14.46-1.14,15.38,4.56c0.4,2.49-2.53,3.88-5.67,4.39
			c-2.49,0.4-5.12,0.24-6.31-0.39c0.96-0.86,2.1-1.35,3.31-1.55c4.85-0.78,10.92,3.16,11.52,6.91c0.56,3.46-3.59,5.07-7.06,5.63
			c-2.99,0.48-7,0.44-9.38-1.16c0.73-0.52,1.49-0.82,2.24-0.94c4.42-0.71,8.9,4.65,9.52,8.52c0.3,1.87-0.3,3.39-2.26,3.7
			c-1.73,0.28-4.53-0.39-8.7-2.61c0.58,1.62,0.94,2.98,1.12,4.12c0.48,3-0.27,4.4-1.53,4.6c-2.15,0.35-6.81-2.94-8.08-10.87
			c-1.15-7.18,3.05-11.09,2.02-17.5c-0.13-0.83-0.32-1.65-0.45-2.48C165.43,245.09,165.35,243.72,165.92,242.32z"/>
	</g>
	<g>
		<path class="st0" d="M318.91,601.04h-80.97c-0.06-1.05-0.12-2.1-0.12-3.16c0-6.68,3.07-9.72,4.91-14.06
			c1.19,0.21,2.34,0.31,3.46,0.31c8.06,0,18.66-8.95,26.95-13.15C304.91,589.56,317.3,578.67,318.91,601.04z"/>
	</g>
	<g>
		<path class="st0" d="M168.61,601.04h-53.4c5.62-12.14,17.4-26.86,29.94-26.86c11.18,0,24.19,9.55,24.19,20.92
			c0,2.13-0.36,4.35-0.84,6.44"/>
	</g>
	<g>
		<g>
			<path class="st0" d="M390.76,600.87c-4.2-0.05-8.4-0.11-12.6-0.17l-6.54-0.09c-1.53-0.02-3.06-0.06-4.59-0.1
				c-1.66-0.04-3.33-0.08-5-0.1c-2.98-0.02-6.14,0-9.69,0.07c-6.41,0.21-12.97,0.14-19.31,0.07c-6.21-0.07-12.63-0.14-18.92,0.05
				c-6.89,0.05-13.92-0.01-20.71-0.07c-5.76-0.05-11.71-0.1-17.57-0.09c-4.62,0-9.23,0.04-13.85,0.07c-8,0.06-16.28,0.12-24.39,0.01
				l-1.85-0.04c-5.69-0.11-11.57-0.22-17.36-0.18c-3.87,0.01-7.74,0.07-11.61,0.12c-2.52,0.04-5.03,0.07-7.56,0.09
				c-5.76,0.09-11.64,0.02-17.32-0.04c-6.87-0.08-13.99-0.15-20.98,0.03c-6.12,0.1-12.37,0.02-18.42-0.05
				c-6.51-0.08-13.24-0.16-19.87-0.03c-2.47,0.04-4.94,0.09-7.41,0.13c-3.91,0.08-7.81,0.15-11.73,0.19
				c-2.81,0.04-5.63,0.04-8.44,0.04c-3.51,0-7.14,0.01-10.72,0.08c-0.73,0.01-1.3,0.31-1.3,0.66c0,0.35,0.57,0.64,1.3,0.65
				c3.59,0.07,7.23,0.08,10.74,0.08c2.81,0,5.62,0,8.44,0.04c3.92,0.03,7.84,0.11,11.76,0.19c2.46,0.05,4.91,0.1,7.36,0.13
				c6.65,0.13,13.38,0.05,19.89-0.03c6.04-0.07,12.29-0.15,18.39-0.05c7.02,0.19,14.13,0.11,21,0.03
				c5.68-0.06,11.56-0.13,17.34-0.04c2.54,0.02,5.07,0.06,7.61,0.09c3.85,0.05,7.7,0.11,11.55,0.12c0.9,0.01,1.8,0.01,2.7,0.01
				c4.95,0,9.93-0.1,14.76-0.19l1.75-0.03c8.13-0.12,16.4-0.05,24.4,0.01c4.62,0.03,9.23,0.07,13.85,0.07
				c5.87,0.02,11.83-0.03,17.59-0.09c6.79-0.06,13.8-0.12,20.63-0.07c6.35,0.19,12.77,0.12,18.98,0.05
				c6.34-0.07,12.89-0.14,19.34,0.07c3.51,0.07,6.67,0.09,9.67,0.07c1.66-0.02,3.33-0.06,4.99-0.1c1.53-0.04,3.06-0.08,4.58-0.1
				l6.62-0.09c4.18-0.06,8.35-0.12,12.52-0.17c0.74-0.01,1.33-0.31,1.33-0.67S391.5,600.88,390.76,600.87z"/>
		</g>
	</g>
</g>
</svg>
