<svg width="68" height="46" fill="none" xmlns="http://www.w3.org/2000/svg"><path d="M50.868 23.572c2.753 1.055 5.652 2.814 8.64 2.814.702 0 1.434-.088 2.137-.322-.176-1.437-2.548-2.434-3.866-2.844.938 0 2.285.088 3.69.088 2.226 0 4.51-.235 5.418-1.495-2.577-1.232-4.129-1.056-6.852-1.144 3.982-1.143 6.999-2.492 7.965-6.86-2.372.733-7.995 5.453-17.513 5.453-1.552 0-3.045-.176-4.334-.586-.029 0-.351 2.785 4.715 4.896Z" fill="#EE8D9C"/><path d="M19.943 40.692c12.212.821 25.478 4.808 36.226 4.808 1.903 0 3.807-.205 5.564-.791-9.43-17.326-1.171-26.971-33.473-29.786C20.646 7.977 18.713.5 12.27.5c-.966 0-1.932.088-2.87.176C7.205 3.138 2.02 2.669 0 3.989c1.26 3.664 3.66 6.83 7.614 6.83a9.61 9.61 0 0 0 2.372-.322c7.029 8.853 8.552 22.163 9.957 30.195Z" fill="#EE8D9C"/><path d="M17.659 3.989c.703 2.52 1.084 5.042 1.084 7.593 0 2.52-.674 9.556-3.573 9.556-3.925 0-3.573-8.443-3.573-11.345 0-2.052.527-5.306.644-7.329" fill="#EE8D9C"/><path d="M12.68 18.647c-.585-1.613-.76-3.43-.79-5.218-.03-.968 0-1.847 0-2.668V9.383c0-.41.03-.85.058-1.26.03-.616.088-1.203.147-1.818.117-1.144.234-2.316.322-3.46 0-.205-.059-.38-.146-.38-.088 0-.176.146-.176.351-.088 1.143-.264 2.316-.41 3.46a38.441 38.441 0 0 0-.205 1.817c-.03.44-.088.85-.088 1.29-.03.469-.03.938-.03 1.407 0 .82 0 1.7.06 2.697.058.88.116 1.788.263 2.697.117.909.293 1.788.585 2.639.118.293.235.586.381.88.205.38.469.761.85 1.055.35.293.79.527 1.259.586.234.03.468.058.703.03.117 0 .234-.06.351-.089.117-.058.234-.088.322-.146.41-.235.762-.557.996-.938.556-.792.878-1.672 1.142-2.58.264-.91.41-1.818.527-2.756a24.27 24.27 0 0 0 .176-2.052c.058-1.085 0-2.199-.088-3.284-.059-.791-.176-1.553-.293-2.345a26.256 26.256 0 0 0-.644-2.931c-.059-.206-.176-.323-.235-.323-.087.03-.087.205-.058.381.234.968.44 1.935.615 2.903.117.762.205 1.524.264 2.316a19.75 19.75 0 0 1 0 3.224c-.059.675-.118 1.349-.235 2.023-.146.909-.293 1.818-.556 2.668-.235.88-.527 1.73-1.025 2.433-.234.323-.498.616-.82.792-.322.205-.703.205-1.084.146-.761-.117-1.376-.733-1.757-1.436-.146-.176-.263-.44-.38-.733Z" fill="#fff"/><path d="M9.254 3.197c0-.059 0-.088.03-.147.087-.44.41-.703.614-.645.205.06.205.352.176.557-.088.352-.468.733-.673.675-.118-.059-.176-.176-.147-.44Z" fill="#873953"/><path d="M9.635 3.226c0 .03-.03.03-.03.059 0 .03 0 .03-.029.03 0 .029-.029.029-.058.058-.059 0-.088-.059-.088-.117 0 0-.059-.059-.147-.059-.087 0-.146 0-.146.059-.03.234.03.527.264.586h.029c.117.03.263-.03.38-.088.03-.03.088-.059.118-.088.029-.03.058-.03.087-.059l.03-.029c.088-.117.146-.264.205-.41.058-.147.088-.293.088-.47 0-.087-.03-.146-.059-.234-.03-.03-.059-.088-.088-.117-.088-.088-.234-.117-.351-.117-.117 0-.234.088-.322.146-.117.088-.176.205-.235.323-.087.146-.117.293-.146.469 0 .029.059.058.146.088.088 0 .147 0 .147-.03.03-.117.088-.234.117-.351.059-.088.117-.147.176-.206.058-.029.117-.029.117.03v.059a.496.496 0 0 1-.205.498v-.03ZM36.9 30.46c1.903 3.08 4.1 6.04 6.618 8.766 1.259 1.349 2.606 2.639 4.07 3.782.732.557 1.523 1.085 2.372 1.495.205.117.44.206.645.293.205.088.468.176.732.206a1.87 1.87 0 0 0 1.435-.528c.205-.205.38-.44.468-.704.059-.146.088-.264.088-.41l.03-.381c.029-.498.029-.997-.03-1.495a13.524 13.524 0 0 0-.644-2.756c-.586-1.759-1.347-3.342-2.167-4.866a41.837 41.837 0 0 0-3.046-4.838c-.527-.703-1.054-1.407-1.67-2.052l-.233-.234-.059-.059-.088-.058c-.058-.06-.146-.118-.234-.176l-.44-.264-.058-.03c-.03 0-.059-.029-.03 0v.118l-.029.264a1.6 1.6 0 0 0 0 .527c0 .117.03.235.03.352l.058.323.088.322c.352 1.231.879 2.404 1.435 3.518a44.943 44.943 0 0 0 1.904 3.254c1.288 1.993 2.723 3.928 4.334 5.687.82.88 1.67 1.73 2.606 2.463.469.381.967.733 1.494 1.026a5.951 5.951 0 0 0 1.669.703c.44.118.85.088 1.113.03.263-.059.44-.088.44-.147 0-.03-.177-.058-.44-.088-.264 0-.644 0-1.025-.117-.556-.117-1.084-.381-1.581-.674a9.836 9.836 0 0 1-1.436-1.026 25.285 25.285 0 0 1-2.547-2.463 42.42 42.42 0 0 1-4.276-5.687 35.179 35.179 0 0 1-1.845-3.225c-.293-.557-.527-1.114-.761-1.67a12.011 12.011 0 0 1-.586-1.73l-.088-.323-.058-.323c-.03-.117-.03-.205-.03-.293V26.855s0-.03.03 0c.029 0 .029.03.058.03l.117.117.235.234c.585.616 1.112 1.32 1.61 2.023a42.29 42.29 0 0 1 2.958 4.808c.79 1.495 1.523 3.049 2.109 4.778.292.85.527 1.76.644 2.668.058.47.058.938.03 1.407l-.03.352-.03.147-.058.146a1.664 1.664 0 0 1-.351.528c-.293.264-.674.41-1.084.381-.205 0-.38-.088-.586-.176l-.615-.264c-.79-.38-1.552-.88-2.284-1.436a32.133 32.133 0 0 1-4.012-3.723 56.768 56.768 0 0 1-6.53-8.707 29.286 29.286 0 0 1-1.728-3.284 14.614 14.614 0 0 1-.469-1.202c-.03-.087-.059-.205-.088-.293l-.058-.293c-.03-.205-.059-.381-.03-.586v-.088c0-.03 0-.059.03-.03l.263.235c.147.147.293.323.44.47l.205.234.204.264c1.084 1.348 1.963 2.872 2.695 4.426.732 1.583 1.376 3.196 1.845 4.867.468 1.67.849 3.371.732 5.042-.059.909-.205 1.818-.615 2.58-.205.38-.469.733-.82.938-.352.205-.762.264-1.2.205a3.906 3.906 0 0 1-1.26-.381c-.41-.176-.79-.44-1.172-.704-.732-.557-1.405-1.201-2.05-1.876-1.259-1.378-2.342-2.931-3.338-4.514-.966-1.613-1.845-3.284-2.548-5.013a22.335 22.335 0 0 1-.703-1.965 9.92 9.92 0 0 1-.41-2.023c0-.175-.029-.322-.029-.498V26.474c0-.059.03 0 .059 0l.117.117.175.176c.235.264.47.498.674.762.117.147.205.264.322.41l.264.44c.585.939 1.025 1.935 1.376 2.961a24.522 24.522 0 0 1 1.26 6.479c.029.264.029.557.029.821v.82c0 .265-.03.558-.03.822v.82c-.029.382-.146.734-.351.997-.234.264-.556.44-.908.47a1.407 1.407 0 0 1-.995-.323c-.323-.235-.645-.44-.938-.704-1.2-1.026-2.284-2.228-3.221-3.488-1.2-1.583-2.226-3.342-3.163-5.13-.234-.44-.468-.91-.673-1.378-.235-.47-.41-.938-.615-1.407-.205-.47-.381-.939-.557-1.408-.175-.469-.351-.967-.498-1.436a12.885 12.885 0 0 0-.175-.557c-.059-.176-.088-.323-.147-.44-.088-.264-.175-.41-.205-.381-.029 0-.029.176 0 .44.03.146.059.293.088.469.059.176.088.351.146.557.147.498.323.967.498 1.466.176.469.352.967.557 1.436l.615 1.407c.205.47.44.938.673 1.378.938 1.818 1.992 3.577 3.192 5.189.967 1.29 2.021 2.521 3.28 3.547.293.264.645.499.967.733.322.264.79.41 1.23.381.439-.03.878-.234 1.171-.586.293-.352.41-.792.44-1.202.029-.293.029-.586.029-.85 0-.293 0-.557.029-.85 0-.264.03-.557 0-.85 0-.294 0-.558-.03-.85a26.033 26.033 0 0 0-.41-3.343c-.204-1.114-.468-2.198-.849-3.254a15.34 15.34 0 0 0-1.405-3.078l-.293-.44-.322-.44c-.205-.293-.469-.556-.703-.82a1.27 1.27 0 0 0-.205-.176l-.293-.264c-.059-.059-.117-.117-.176-.147l-.175-.117-.088-.058c-.03-.03-.03.029-.03.029l-.029.058-.088.176a1.589 1.589 0 0 0-.117.44c-.029.176-.029.235-.029.352 0 .176 0 .352.03.557.058.733.233 1.407.439 2.081.204.675.439 1.349.702 1.994a33.306 33.306 0 0 0 2.577 5.1c.996 1.642 2.109 3.196 3.397 4.603.645.704 1.348 1.378 2.138 1.935.41.264.791.557 1.26.762.439.206.937.381 1.435.44.497.059 1.054 0 1.522-.293.469-.264.791-.704 1.025-1.143.44-.88.615-1.847.645-2.815.087-1.759-.293-3.518-.791-5.189a33.534 33.534 0 0 0-1.904-4.925c-.761-1.583-1.64-3.137-2.752-4.514l-.205-.264-.235-.235a7.306 7.306 0 0 0-.468-.498l-.264-.235c-.146-.117-.293-.263-.44-.351l-.116-.088-.059-.03v.059l-.088.264a3.116 3.116 0 0 0-.117.557c-.029.234 0 .469.03.703.029.235.087.44.146.675.117.44.293.85.468 1.26.528 1.232 1.172 2.316 1.816 3.4ZM5.652 7.888c.03-.088.088-.147.117-.235.059-.117.117-.205.147-.322.087-.206.146-.44.175-.645 0-.03-.058-.088-.146-.088s-.147 0-.176.03a3.128 3.128 0 0 1-.205.556c-.03.088-.117.176-.176.264a.777.777 0 0 1-.146.176l-.03.03c-.146.263-.41.468-.673.585l-.146.06c-.03.028-.059.028-.088.058-.176.088-.322.176-.527.234-.117.059-.264.059-.41.088-.176.03-.352.03-.527.059-.03 0-.059.058-.059.146s.03.147.059.147c.175.03.38 0 .556 0 .147-.03.293-.03.44-.088.204-.03.41-.088.614-.176.03 0 .059-.03.118-.03l.146-.087c.293-.176.556-.44.82-.674l.117-.088ZM10.777 2.259c.03.03.03.03.03.059l.058.087c.03.06.058.118.058.206 0 0 .088.029.147.029.058 0 .146-.03.146-.03v-.527c-.088-.117-.117-.235-.175-.352 0-.03-.03-.03-.03-.058l-.03-.03c-.058-.058-.146-.117-.204-.176L10.6 1.38a.551.551 0 0 0-.234-.058c-.03 0-.03.058-.059.146v.147c.059.03.088.03.117.059.03.029.06.029.088.058.03.059.059.088.088.147v.03l.03.028c.087.118.146.206.146.323ZM1.2 4.692c-.029.03-.029.03-.058.03-.03 0-.088.029-.146.029H.674c-.03 0-.059.058-.088.146-.03.088-.03.147 0 .147.117.03.234.088.38.088h.235c.058 0 .117 0 .175-.03h.059c.117-.087.234-.205.264-.322a.592.592 0 0 0 .029-.381v-.088c0-.03-.03-.03-.03-.03-.029-.029-.029-.058.03-.117.058-.029.117-.088.176-.117.087-.058.175-.088.263-.176.03-.029 0-.088-.058-.146l-.118-.118c-.087.03-.175.088-.263.118-.088.029-.147.088-.234.117a.549.549 0 0 0-.205.176c-.059.088-.088.176-.059.264v.088l.03.088c.029.088.029.117.029.146.029.059 0 .088-.088.088.029 0 .029 0 0 0Z" fill="#873953"/></svg>