<svg width="259" height="450" viewBox="0 0 259 450" fill="none" xmlns="http://www.w3.org/2000/svg">
    <path d="M123.69 5.8541C116.39 3.4141 109.02 0.634092 101.12 0.0640923C99.08 -0.0559077 97.01 -0.0259078 94.96 0.314092C94.45 0.394092 93.9401 0.494095 93.4301 0.614095C92.8801 0.764095 92.58 0.804094 91.63 1.14409C90.81 1.42409 90.11 1.7541 89.35 2.0741L88.78 2.3241L88.64 2.3841C88.66 2.4041 88.72 2.4241 88.76 2.4441L89.03 2.56409L90.1101 3.04409L91.63 3.7141L92.4 4.0541L92.94 4.28409L94.9 5.09409C96.21 5.62409 97.52 6.1641 98.84 6.6641C101.71 7.7841 104.6 8.83409 107.56 9.78409C112.81 11.4641 118.5 12.9941 125.04 13.9341C129.12 14.5041 133.28 14.7841 137.44 14.6941C141.6 14.5741 145.76 14.0241 149.75 12.8741L153.11 11.9141L149.63 11.4841C145.95 11.0341 142.33 10.5841 138.74 10.1441C127.39 8.73409 115.55 7.37409 103.89 7.70409C97.51 7.84409 91.0501 8.41409 84.7401 9.78409C81.5901 10.4741 78.4901 11.3841 75.4801 12.5241L74.71 12.8141L73.75 13.2141L71.82 14.0341L70.85 14.4441L70.7301 14.4941C70.7101 14.5141 70.5901 14.5341 70.6701 14.5441L70.91 14.6141L71.38 14.7441L73.28 15.2741C75.13 15.7841 76.98 16.3041 78.82 16.8141C89.04 19.6541 99.67 22.4841 110.28 24.6341C118.64 26.3441 127.1 27.6841 135.67 28.1041C137.53 28.1341 139.39 28.2241 141.27 28.1641C143.15 28.1141 145.04 27.9841 146.92 27.7441C147.86 27.6141 148.8 27.4641 149.74 27.2641C150.05 27.2041 151.07 26.9641 151.8 26.7541C152.56 26.5241 153.28 26.2941 154 26.0641L155.12 25.6941L155.19 25.6741L155.12 25.6441L154.98 25.5941L154.71 25.4941L154.17 25.2941L151.99 24.4741C151.63 24.3441 151.23 24.2041 150.84 24.0741L149.96 23.7841L148.61 23.3541C141.39 21.1241 134.02 19.3341 126.68 17.8241C125.56 17.5841 124.44 17.3841 123.32 17.1641C118.15 16.1941 112.85 15.3841 107.47 14.9341C102.1 14.5341 96.62 14.3541 91.21 15.3841C89.41 15.7441 87.6 16.2541 85.9 17.1141L85.57 17.2841C85.38 17.3741 85.2 17.4941 85.01 17.6041L84.45 17.9441L84.1701 18.1141L84.03 18.1941C83.98 18.2241 83.92 18.2441 83.97 18.3041L85.09 20.2441C85.32 20.6741 85.61 21.0441 85.9 21.4041L86.77 22.5041C89.28 25.2541 92.28 27.3841 95.38 29.2341C99.45 31.6041 103.77 33.4941 108.26 34.9541C110.83 35.7241 113.44 36.4541 116.12 36.8741C116.79 37.0041 117.46 37.1041 118.14 37.1741C118.82 37.2441 119.49 37.3441 120.17 37.3841C121.54 37.4341 122.9 37.5441 124.27 37.4441C125.64 37.3741 127.02 37.1841 128.37 36.8341C129.05 36.6641 129.71 36.4441 130.36 36.1741C130.45 36.1341 130.49 36.1241 130.64 36.0541L131.04 35.8641C131.31 35.7341 131.57 35.6041 131.81 35.4541L132.56 35.0241L132.94 34.8041C132.96 34.7841 133.02 34.7641 133.01 34.7441L132.92 34.6741L132.75 34.5441L131.36 33.4841C131.15 33.3141 130.84 33.0941 130.71 33.0241L130.28 32.7441C129.71 32.3641 129.11 32.0441 128.51 31.7141C127.3 31.0941 126.07 30.5341 124.81 30.0841C118.7 27.8741 112.09 27.2141 105.56 27.3141C99.02 27.4441 92.47 28.3641 86.2 30.1241C83.45 30.8941 80.72 31.8141 78.09 33.0141C75.48 34.2341 72.8601 35.6441 70.8001 37.9241C70.2801 38.4841 69.85 39.1541 69.5 39.8641C69.16 40.5941 68.9701 41.4241 68.9801 42.2541C68.9901 43.8841 69.72 45.4441 70.72 46.5941C71.73 47.7741 72.96 48.6241 74.21 49.3741C75.46 50.1341 76.7901 50.6941 78.1101 51.2341C83.8401 53.4241 89.93 54.5241 96.03 55.3741C102.14 56.2041 108.31 56.6641 114.43 56.9041L117.57 57.0141L117.48 55.3841C114.03 55.9141 110.53 56.4041 107.07 57.1241C103.52 57.8541 99.97 58.8141 96.63 60.3841C94.99 61.2141 93.34 62.1241 91.96 63.4141C91.58 63.6941 91.3 64.0841 90.97 64.4241L90.4901 64.9441L89.91 65.7941L89.33 66.6541L89.04 67.0841L89.58 67.2241L91.5 67.7241C94.69 68.5341 97.9301 69.2441 101.23 69.6541L101.42 68.5341C99.5601 68.1441 97.67 67.7541 95.72 67.6041C94.6 67.5141 93.45 67.4941 92.29 67.6241C92 67.6541 91.7101 67.6941 91.4201 67.7441C91.0201 67.8041 90.55 67.9141 90.14 68.0241C89.73 68.1341 89.34 68.2641 88.95 68.3941L88.3601 68.5941L88.06 68.7041L87.91 68.7541L87.85 68.8141C88.59 69.2341 89.33 69.6541 90.07 70.0841L91.8001 71.0441C92.7501 71.5641 93.72 72.0841 94.69 72.5741C96.64 73.5641 98.6401 74.5041 100.67 75.3241C101.92 75.8341 103 75.9941 103.1 75.7441C103.19 75.4941 102.29 74.9141 101.06 74.3941C99.07 73.5441 97.11 72.5941 95.19 71.6041C94.23 71.1041 93.28 70.5941 92.33 70.0741C91.77 69.7541 91.21 69.4441 90.66 69.1341L90.62 69.1141L90.66 69.1041L90.7401 69.0741L90.91 69.0241L91.25 68.9341L91.62 68.8641C91.89 68.8241 92.1601 68.7841 92.4301 68.7541C93.5101 68.6441 94.5901 68.6541 95.6701 68.7441C97.5101 68.8941 99.34 69.2741 101.2 69.6641L101.39 68.5441C98.17 68.1341 94.9701 67.4241 91.8001 66.5841L91.12 66.4041C91.09 66.3941 91.03 66.3841 91.02 66.3641L91.1101 66.2341L91.29 65.9741C91.36 65.8841 91.3901 65.8141 91.4901 65.7041L91.9301 65.2341C92.2401 64.9341 92.49 64.5841 92.84 64.3341C94.11 63.1641 95.68 62.3341 97.26 61.5641C100.48 60.1141 103.96 59.2341 107.47 58.5741C110.87 57.9241 114.31 57.4941 117.76 57.0141L117.67 55.3841C116.63 55.3341 115.6 55.2841 114.57 55.2341C108.47 54.8941 102.35 54.4141 96.3001 53.6241C90.2701 52.8041 84.2601 51.7641 78.7401 49.7141C76.2301 48.7341 73.69 47.5041 71.95 45.5841C71.11 44.6241 70.5701 43.4641 70.5501 42.2341C70.5101 41.0641 71.1 39.9041 71.97 38.9241C73.72 36.9441 76.22 35.5541 78.72 34.3941C81.25 33.2441 83.91 32.3641 86.59 31.6441C92.78 30.0441 99.2101 29.1841 105.61 29.0441C111.99 28.9341 118.43 29.5341 124.28 31.5941C125.49 32.0141 126.66 32.5341 127.81 33.1041C128.37 33.4141 128.94 33.7041 129.47 34.0541L130.03 34.4041L130.18 34.5141C130.23 34.5341 130.19 34.5441 130.16 34.5641L130.08 34.6141L130 34.6541C129.98 34.6641 129.97 34.6741 129.78 34.7441C129.2 34.9841 128.6 35.1841 127.99 35.3541C126.76 35.6741 125.48 35.8641 124.18 35.9341C122.89 36.0341 121.57 35.9341 120.27 35.8941C119.62 35.8541 118.96 35.7541 118.31 35.6841C117.66 35.6241 117.01 35.5241 116.36 35.3941C113.76 34.9841 111.21 34.2541 108.71 33.4641C104.33 32.0041 100.1 30.0941 96.16 27.7241C93.19 25.9041 90.35 23.8141 88.09 21.2641L87.32 20.2641C87.05 19.9341 86.8 19.6041 86.62 19.2341L86.4301 18.9141C86.4201 18.9041 86.4201 18.9041 86.4201 18.8941L86.44 18.8841L86.7301 18.7341C88.2101 18.0041 89.86 17.5341 91.54 17.2041C93.11 16.8941 94.73 16.7241 96.35 16.6041C100.82 16.3141 105.37 16.5441 109.86 16.9441C114.36 17.3641 118.82 17.9941 123.19 18.7441C124.24 18.9341 125.3 19.1041 126.34 19.3141C133.66 20.7341 141.01 22.4941 148.16 24.7141L150.11 25.3441L150.4 25.4541C150.44 25.4741 150.52 25.4941 150.53 25.5041L150.38 25.5541L150.08 25.6341L149.44 25.7741C148.54 25.9541 147.64 26.1041 146.73 26.2141C144.91 26.4441 143.07 26.5541 141.24 26.5941C139.4 26.6441 137.57 26.5341 135.74 26.5041C127.31 26.0341 118.92 24.6541 110.62 22.9541C100.06 20.7841 89.44 18.0441 79.2 15.2741C78.04 14.9641 76.87 14.6441 75.7 14.3341L75.34 14.2441L75.25 14.2241L75.2 14.2141L75.2301 14.2041L75.34 14.1541L75.57 14.0541L76.04 13.8641C78.96 12.7341 81.98 11.8341 85.06 11.1441C91.22 9.77409 97.56 9.2041 103.82 9.1141C115.46 9.0641 127.22 10.3141 138.58 11.6141C142.17 12.0241 145.8 12.4441 149.49 12.8641L149.37 11.4741C145.52 12.6041 141.47 13.1541 137.4 13.2441C133.33 13.3041 129.24 12.9741 125.23 12.2941C118.9 11.2641 113.3 9.74409 108.07 8.09409C105.16 7.18409 102.27 6.21409 99.4 5.15409C98.08 4.68409 96.77 4.17409 95.46 3.67409L92.57 2.53409C91.98 2.39409 92.49 2.2841 92.7 2.1941L93.1101 2.06409L93.82 1.87409C94.3 1.75409 94.78 1.6541 95.26 1.5741C97.2 1.2341 99.2 1.19409 101.19 1.29409C108.78 1.77409 116.09 4.4041 123.38 6.7741C124.68 7.2041 125.8 7.29409 125.87 7.04409C125.95 6.81409 124.98 6.2841 123.69 5.8541Z" fill="#002776"/>
    <path d="M258.66 322.374C257.46 322.334 256.26 322.294 255.07 322.244L253.2 322.174C252.76 322.154 252.33 322.124 251.89 322.094C251.42 322.064 250.94 322.034 250.46 322.014C249.61 321.994 248.71 322.014 247.7 322.064C245.87 322.224 244 322.164 242.19 322.114C240.42 322.064 238.59 322.004 236.79 322.154C234.82 322.194 232.82 322.144 230.88 322.104C229.24 322.064 227.54 322.024 225.87 322.044C224.55 322.044 223.24 322.074 221.92 322.094C219.64 322.144 217.28 322.184 214.96 322.104L214.43 322.074C212.81 321.994 211.13 321.904 209.48 321.944C208.38 321.954 207.27 321.994 206.17 322.034C205.45 322.064 204.73 322.084 204.01 322.104C202.37 322.174 200.69 322.124 199.07 322.074C197.11 322.014 195.08 321.954 193.09 322.094C191.34 322.164 189.56 322.114 187.84 322.054C185.98 321.994 184.06 321.934 182.17 322.034C181.47 322.064 180.76 322.104 180.06 322.134C178.95 322.194 177.83 322.254 176.71 322.274C175.91 322.304 175.1 322.304 174.3 322.304C173.3 322.304 172.26 322.304 171.24 322.364C171.03 322.374 170.87 322.604 170.87 322.874C170.87 323.144 171.03 323.364 171.24 323.374C172.26 323.434 173.3 323.434 174.31 323.434C175.11 323.434 175.91 323.434 176.72 323.464C177.84 323.494 178.96 323.544 180.07 323.604C180.77 323.644 181.47 323.674 182.17 323.704C184.07 323.804 185.99 323.744 187.84 323.684C189.56 323.634 191.35 323.574 193.09 323.644C195.09 323.784 197.12 323.724 199.08 323.664C200.7 323.614 202.38 323.564 204.03 323.634C204.75 323.654 205.48 323.684 206.2 323.704C207.3 323.744 208.4 323.784 209.49 323.794C209.75 323.804 210 323.804 210.26 323.804C211.67 323.804 213.09 323.734 214.47 323.664L214.97 323.634C217.29 323.544 219.65 323.594 221.93 323.634C223.25 323.664 224.56 323.684 225.88 323.684C227.55 323.704 229.25 323.654 230.9 323.624C232.84 323.584 234.84 323.534 236.79 323.574C238.6 323.724 240.43 323.664 242.2 323.614C244.01 323.564 245.88 323.504 247.72 323.664C248.72 323.714 249.62 323.734 250.48 323.714C250.95 323.694 251.43 323.664 251.9 323.634C252.34 323.604 252.77 323.574 253.21 323.554L255.1 323.484C256.29 323.434 257.48 323.394 258.67 323.354C258.88 323.344 259.05 323.114 259.05 322.844C259.05 322.574 258.87 322.384 258.66 322.374Z" fill="#002776"/>
    <path d="M214.17 448.854C211.25 448.814 208.33 448.774 205.4 448.724L200.85 448.654C199.78 448.634 198.72 448.604 197.66 448.574C196.5 448.544 195.34 448.514 194.18 448.494C192.11 448.474 189.91 448.494 187.44 448.544C182.98 448.704 178.41 448.644 174 448.594C169.68 448.544 165.21 448.484 160.83 448.634C156.03 448.674 151.14 448.624 146.42 448.584C142.41 448.544 138.27 448.504 134.2 448.524C130.99 448.524 127.77 448.554 124.56 448.574C118.99 448.624 113.23 448.664 107.59 448.584L106.3 448.554C102.34 448.474 98.25 448.384 94.22 448.424C91.53 448.434 88.83 448.474 86.14 448.514C84.39 448.544 82.64 448.564 80.88 448.584C76.87 448.654 72.78 448.604 68.82 448.554C64.04 448.494 59.09 448.434 54.22 448.574C49.96 448.644 45.61 448.594 41.4 448.534C36.87 448.474 32.19 448.414 27.57 448.514C25.85 448.544 24.13 448.584 22.41 448.614C19.69 448.674 16.97 448.734 14.25 448.754C12.29 448.784 10.33 448.784 8.37 448.784C5.93 448.784 3.40003 448.784 0.910034 448.844C0.400034 448.854 0 449.084 0 449.354C0 449.624 0.400034 449.844 0.910034 449.854C3.41003 449.914 5.94001 449.914 8.39001 449.914C10.34 449.914 12.3 449.914 14.26 449.944C16.99 449.974 19.72 450.024 22.44 450.084C24.15 450.124 25.86 450.154 27.56 450.184C32.19 450.284 36.87 450.224 41.4 450.164C45.61 450.114 49.96 450.054 54.2 450.124C59.09 450.264 64.03 450.204 68.82 450.144C72.78 450.094 76.87 450.044 80.89 450.114C82.65 450.134 84.4201 450.164 86.1801 450.184C88.8601 450.224 91.54 450.264 94.22 450.274C94.84 450.284 95.47 450.284 96.1 450.284C99.54 450.284 103.01 450.214 106.37 450.144L107.58 450.114C113.24 450.024 118.99 450.074 124.56 450.114C127.77 450.144 130.99 450.164 134.2 450.164C138.28 450.184 142.43 450.134 146.44 450.104C151.16 450.064 156.05 450.014 160.8 450.054C165.22 450.204 169.69 450.144 174.01 450.094C178.42 450.044 182.98 449.984 187.47 450.144C189.91 450.194 192.11 450.214 194.2 450.194C195.36 450.174 196.52 450.144 197.67 450.114C198.73 450.084 199.8 450.054 200.86 450.034L205.46 449.964C208.37 449.914 211.27 449.874 214.18 449.834C214.7 449.824 215.11 449.594 215.11 449.324C215.11 449.054 214.68 448.864 214.17 448.854Z" fill="#002776"/>
    <path d="M112.32 380.104C113.26 403.604 121.71 426.234 125 449.364H36.51C36.24 447.654 36.16 445.864 36.16 444.304C36.16 430.824 48.74 428.234 62.41 427.984C77.72 420.564 88.32 409.854 88.32 392.494C88.32 391.524 88.21 390.564 87.96 389.644" fill="#002776"/>
    <path d="M118.21 269.744C111.64 268.454 81.69 266.894 61.31 266.094C52.82 265.764 46.09 273.124 47.12 281.554C52.82 327.804 67.3 375.844 74.79 397.984C81.78 398.554 89.36 398.824 96.41 398.824C105.43 398.824 113.58 398.384 118.52 397.594L111.76 322.564C113.01 322.624 114.28 322.654 115.56 322.654C122.42 322.654 129.6 321.804 136.18 320.924C136.67 319.784 118.21 269.744 118.21 269.744Z" fill="#002776"/>
    <path d="M171.41 383.914C171.38 385.064 171.36 386.214 171.36 387.374C171.36 415.284 179 436.944 180.21 449.354H117.6C118.15 435.694 124.9 430.484 135.06 428.164C142.42 418.924 145.62 409.724 148.86 390.574" fill="#002776"/>
    <path d="M102.79 193.884C105.99 214.034 117.6 229.954 133.31 243.714L139.32 292.674L197.77 286.634L232.01 268.534C231.81 204.734 205.21 152.264 138.35 145.924" fill="#005AA4"/>
    <path d="M156.55 150.664C154.65 146.754 151.36 141.714 146.84 141.714C146.72 141.714 144.61 142.714 144.5 142.724C144.16 143.714 144 144.664 144 145.564C144 151.344 150.36 155.304 155.88 155.304C156.11 155.304 156.34 155.294 156.56 155.284" fill="#005AA4"/>
    <path d="M97.47 174.714C82.16 197.394 63.92 220.654 63.92 250.554C63.92 263.354 68.98 268.384 83.4 268.544C137.7 269.134 146.71 177.374 147.19 175.474" fill="#005AA4"/>
    <path d="M76.49 237.904L76.22 238.594C76.12 238.844 76.08 239.014 76 239.214L75.97 239.294C75.97 239.304 75.96 239.324 75.96 239.334V239.294V239.114C75.96 238.994 75.96 238.864 75.97 238.734C75.98 238.494 76.02 238.224 76.07 238.044C76.11 237.674 76.15 237.314 76.19 236.954C76.22 236.544 76.29 236.154 76.35 235.764C76.44 234.984 76.61 234.264 76.74 233.554C76.93 232.774 77.11 231.994 77.38 231.244C77.48 230.884 77.64 230.564 77.78 230.224C77.92 229.884 78.07 229.554 78.26 229.244L78.65 228.564L79.11 227.934C79.4 227.494 79.78 227.134 80.13 226.744C81.51 225.324 83.38 224.414 85.33 223.944C85.67 223.874 85.91 223.594 85.88 223.324C85.85 223.054 85.51 222.884 85.12 222.954C82.98 223.384 80.87 224.314 79.23 225.854C78.82 226.264 78.38 226.654 78.04 227.124L77.5 227.804L77.04 228.534C76.81 228.874 76.62 229.234 76.45 229.594C76.27 229.954 76.07 230.314 75.93 230.684C75.57 231.494 75.31 232.324 75.07 233.164C74.91 233.924 74.73 234.714 74.65 235.534C74.6 235.944 74.54 236.374 74.52 236.804C74.51 237.024 74.49 237.244 74.48 237.464C74.47 237.704 74.45 237.844 74.46 238.304L74.48 240.504L74.58 242.514L74.68 244.554L74.73 245.594L74.74 245.854L74.76 246.004L74.81 246.294C75.3 244.974 75.78 243.594 76.29 242.354C76.81 241.094 77.34 239.834 77.85 238.594L78.62 237.104C79.93 234.354 81.55 231.674 83.2 229.134C84.96 226.394 86.87 223.614 88.66 220.804L90.67 217.674C91.73 216.024 92.81 214.384 93.91 212.744L96.3 209.234C97.29 207.764 98.33 206.264 99.24 204.684C99.43 204.364 99.39 204.004 99.16 203.864C98.93 203.724 98.59 203.854 98.39 204.154C97.41 205.644 96.37 207.154 95.37 208.604C94.57 209.764 93.77 210.924 92.93 212.074L89.44 216.854C88.71 217.854 87.99 218.854 87.26 219.854C85.29 222.564 83.47 225.444 81.8 228.274C80.23 230.894 78.69 233.654 77.23 236.394L76.49 237.904Z" fill="#002776"/>
    <path d="M118.99 234.034C118.69 234.824 118.36 235.644 117.85 236.374C117.61 236.784 117.41 237.164 117.27 237.544C117.2 237.754 117.13 237.974 117.07 238.194L116.9 238.794L116.62 239.644L116.11 241.264C116.08 241.364 116.27 241.514 116.52 241.614C116.77 241.714 117.01 241.714 117.05 241.634C117.29 241.124 117.53 240.624 117.79 240.124L118.19 239.344C118.28 239.164 118.39 238.984 118.5 238.814C118.62 238.624 118.73 238.434 118.84 238.234C119.01 237.874 119.17 237.494 119.32 237.034C119.53 236.194 119.95 235.424 120.36 234.664L120.57 234.274C120.85 233.484 121.24 232.734 121.59 231.974C121.98 231.164 122.32 230.294 122.49 229.394L122.66 228.384C122.73 227.854 122.81 227.324 122.9 226.804C122.95 226.424 123.03 226.054 123.11 225.684C123.2 225.214 123.29 224.734 123.33 224.254C123.34 224.154 123.13 224.034 122.87 223.994C122.61 223.944 122.38 223.984 122.35 224.074C122.2 224.534 122.11 225.004 122.02 225.464C121.94 225.824 121.86 226.194 121.75 226.554C121.61 227.054 121.42 227.544 121.24 228.034L120.88 228.934C120.53 229.734 120.32 230.584 120.06 231.394C119.83 232.154 119.55 232.924 119.15 233.634L118.99 234.034Z" fill="#002776"/>
    <path d="M118.18 238.884C106.03 243.134 102.25 248.654 102.25 259.474C102.25 261.044 102.4 271.644 104.26 274.844C104.26 274.844 122.56 273.404 118.18 238.884Z" fill="#AB7487"/>
    <path d="M111.51 264.684C101.9 265.174 94.6901 274.844 97.7901 287.104C108.22 328.274 120.56 365.824 127.22 397.764C141.19 400.544 154.24 402.874 168.31 402.874C170.43 402.874 172.57 402.824 174.74 402.714L173.39 323.034H186.31L186.29 323.024C220.66 323.314 230.36 302.424 231.69 279.534C231.9 275.854 232 272.174 231.99 268.504C166.6 258.114 111.51 264.684 111.51 264.684Z" fill="#002776"/>
    <path d="M108.65 324.474C107.01 318.814 105.31 312.944 103.9 307.114C103.07 303.954 102.33 301.104 101.62 298.414L100.36 293.944C99.98 292.574 99.6 291.204 99.22 289.834L98.42 286.864C98.18 285.894 97.97 284.914 97.84 283.924C97.35 280.184 97.85 276.274 99.61 272.924C99.91 272.334 100.01 271.764 99.78 271.614C99.56 271.464 99.06 271.824 98.72 272.454C96.77 275.994 96.14 280.164 96.59 284.144C96.69 285.184 96.9 286.204 97.12 287.224L97.84 290.184L98.83 294.344C99.2 295.854 99.57 297.354 99.94 298.874C100.63 301.564 101.41 304.404 102.33 307.574C104.05 313.304 105.64 319.194 107.18 324.894L107.99 327.854C109.61 333.324 111.14 338.934 112.62 344.364C114.21 350.214 115.84 356.264 117.56 362.194L119.45 368.824C120.45 372.314 121.4 375.824 122.33 379.354C122.97 381.894 123.62 384.424 124.22 386.974C124.95 390.154 125.71 393.444 126.46 396.694C126.61 397.354 126.95 397.834 127.21 397.774C127.47 397.724 127.57 397.154 127.44 396.484C127.1 394.844 126.76 393.194 126.42 391.554C126.04 389.924 125.67 388.294 125.3 386.694C124.69 384.144 124.08 381.604 123.47 379.044L120.86 368.404C120.3 366.184 119.74 363.964 119.18 361.754C117.65 355.754 115.9 349.734 114.19 343.914C112.61 338.514 110.96 332.934 109.5 327.454L108.65 324.474Z" fill="#005AA4"/>
    <path d="M150.72 155.374L140.03 234.804C136.55 233.784 132.93 233.214 129.41 233.214C114.86 233.214 107.89 243.984 107.89 256.284C107.89 258.984 108.31 262.684 108.88 265.244C122.43 276.984 142.8 280.194 158.36 280.194C194.8 280.194 206.37 232.294 206.37 197.194C206.37 197.194 190.11 165.264 150.72 155.374Z" fill="#005AA4"/>
    <path d="M185.22 270.054C189.79 265.504 193.42 259.874 196.34 254.074C197.91 250.904 199.08 247.934 200.06 245.084L200.82 242.694L201.5 240.274C201.89 238.784 202.29 237.304 202.62 235.814C203.13 233.664 203.59 231.494 203.98 229.324C204.74 225.204 205.31 221.064 205.74 216.904C205.82 216.164 205.65 215.554 205.38 215.524C205.11 215.494 204.82 216.054 204.73 216.784C204.23 220.934 203.57 225.054 202.72 229.144C202.29 231.264 201.79 233.374 201.24 235.464C200.87 236.934 200.42 238.384 199.99 239.834L199.23 242.184C198.96 242.964 198.69 243.744 198.41 244.524C197.42 247.304 196.31 250.214 194.85 253.404C192.29 259.194 188.63 264.664 184.15 268.974C183.4 269.744 182.55 270.414 181.75 271.124C177.2 275.044 171.48 277.684 165.67 278.694C164.88 278.804 164.1 278.974 163.3 279.044C162.5 279.114 161.7 279.204 160.9 279.254C160.09 279.274 159.29 279.294 158.48 279.314L156.01 279.294C152.71 279.234 149.4 279.104 146.12 278.894C143.68 278.704 141.24 278.474 138.82 278.124C134.99 277.594 131.19 276.834 127.49 275.674C126.16 275.274 124.85 274.794 123.55 274.314C122.27 273.764 120.96 273.284 119.74 272.634C118.16 271.914 116.65 271.004 115.12 270.124C113.65 269.134 112.15 268.174 110.79 267.054C110.22 266.614 109.63 266.434 109.45 266.634C109.27 266.834 109.58 267.364 110.15 267.834C111.52 269.034 113.04 270.044 114.54 271.064C116.1 271.984 117.65 272.914 119.27 273.654C120.52 274.314 121.86 274.804 123.15 275.374C124.47 275.874 125.8 276.374 127.15 276.814C130.9 278.044 134.76 278.934 138.64 279.594C141.08 280.014 143.53 280.314 145.97 280.574C149.3 280.894 152.65 281.044 155.99 281.074H158.49C159.33 281.044 160.18 281.004 161.01 280.974C161.85 280.914 162.68 280.804 163.51 280.714C164.34 280.634 165.16 280.434 165.97 280.304C172.03 279.134 177.93 276.284 182.72 272.344C183.58 271.594 184.45 270.874 185.22 270.054Z" fill="#002776"/>
    <path d="M147.72 203.694C148.55 198.924 149.53 194.014 150.83 189.274C151.18 187.984 151.51 186.754 151.83 185.574C152.14 184.394 152.49 183.274 152.79 182.184C153.11 180.954 153.48 179.754 153.85 178.544L154.36 176.874L154.95 175.244C155.49 173.664 156.17 172.144 156.85 170.624C158.18 167.784 159.86 165.064 162.16 162.974C162.57 162.604 162.75 162.134 162.58 161.914C162.41 161.704 161.93 161.834 161.48 162.214C158.98 164.394 157.15 167.204 155.68 170.104C154.95 171.624 154.21 173.154 153.62 174.734L152.96 176.384L152.36 178.054C151.92 179.264 151.49 180.474 151.13 181.714C150.81 182.814 150.46 183.944 150.16 185.144C149.87 186.344 149.57 187.594 149.25 188.924C148.26 193.754 147.17 198.654 146.23 203.424L145.75 205.904C144.96 210.534 144.16 215.254 143.39 219.814C142.99 222.274 142.55 224.774 142.2 227.294C142.02 228.554 141.84 229.824 141.67 231.084L141.42 232.984C141.3 233.854 141.36 233.674 141.32 233.754L141.24 233.744L141.21 233.734L141.03 233.694L140.67 233.614C140.2 233.514 139.72 233.434 139.25 233.354C138.3 233.194 137.35 233.074 136.4 232.974C133.39 232.674 130.38 232.474 127.31 232.714C125.12 232.894 122.94 233.344 120.86 234.114C118.27 235.064 115.79 236.644 113.85 238.694C113.47 239.124 113.33 239.604 113.53 239.774C113.73 239.954 114.19 239.784 114.57 239.394C116.48 237.524 118.81 236.054 121.27 235.154C123.23 234.434 125.3 234.004 127.41 233.894C130.33 233.714 133.32 234.024 136.25 234.434C137.17 234.574 138.08 234.724 138.99 234.914C139.44 235.004 139.89 235.104 140.33 235.214L141.13 235.414L142.41 235.774L142.63 235.834L142.74 235.864C142.76 235.854 142.76 235.794 142.77 235.764L142.84 235.324L142.97 234.424L143.15 233.214L143.43 231.324C143.61 230.064 143.79 228.804 143.97 227.544C144.32 225.024 144.68 222.524 145.02 220.054C145.33 217.764 145.68 215.444 146.07 213.124C146.45 210.804 146.83 208.474 147.3 206.194L147.72 203.694Z" fill="#002776"/>
    <path d="M80.7 127.014C79.13 129.834 76.43 131.074 73.71 131.074C69.35 131.074 65.1 128.004 65.1 123.034C65.1 110.494 78.2001 88.7441 102.99 88.7441C109.45 88.7441 116.05 90.2941 122.19 93.4741C122.1 93.0441 122.06 92.6441 122.06 92.2741C122.06 90.4041 123.14 89.2941 124.43 89.2941C126.04 89.2941 127.96 91.0241 128.49 95.1441C129.66 94.6041 131 94.3841 132.37 94.3841C137.19 94.3841 142.42 97.1541 142.42 98.7741C142.42 99.4441 141.52 99.9241 139.32 99.9241C138.59 99.9241 137.59 99.8641 136.53 99.7441C141.92 103.614 146.99 109.674 146.99 114.694C146.99 116.294 146.47 117.494 145.55 117.714C147.76 120.984 149.7 126.854 149.7 132.914C149.7 138.114 147.96 142.884 142.11 144.714C142.54 145.504 141.13 157.934 141.27 158.354C141.41 158.774 141.17 164.594 138.32 170.364C138.32 170.364 127.64 185.194 107.88 183.364C88.12 181.534 88.17 176.284 86.76 170.494C86.76 170.494 79.56 164.134 82.32 158.284L80.7 127.014Z" fill="#002776"/>
    <path d="M75.87 123.484C75.47 125.514 74.6 128.834 74.6 131.784C74.6 134.614 75.4 137.124 78.16 137.844C79.31 148.324 80.81 154.154 82.31 158.264C85.35 155.684 90.65 151.854 99.41 151.394C106.17 151.034 113.57 152.604 119.2 155.554L128 130.334C120.48 124.234 115.71 116.804 115.71 107.364C115.71 106.514 115.75 105.644 115.83 104.754C109.93 114.394 99.84 120.554 93.88 120.554C91.05 120.554 89.49 119.134 89 117.054C85.61 120.584 80.43 123.654 77.09 123.654C76.65 123.654 76.24 123.594 75.87 123.484Z" fill="#AB7487"/>
    <path d="M89.92 135.794C87.82 139.644 83.37 145.344 83.37 150.264C83.37 153.124 86.5 154.764 89.06 154.764C93.26 154.764 97.77 151.194 100.37 148.524" fill="#AB7487"/>
    <path d="M86.37 155.014C87.25 155.314 88.19 155.474 89.15 155.464C90.09 155.454 91.01 155.294 91.92 155.114C92.9 154.884 93.72 154.514 94.46 154.124C94.87 153.894 95.25 153.634 95.63 153.374L96.64 152.624C97.12 152.264 97.59 151.884 98.05 151.484C98.91 150.744 99.72 149.944 100.49 149.124C100.63 148.974 100.57 148.704 100.38 148.514C100.19 148.324 99.92 148.284 99.78 148.414C98.98 149.164 98.13 149.864 97.25 150.504C96.79 150.834 96.32 151.154 95.85 151.454C95.52 151.664 95.17 151.854 94.82 152.034C94.44 152.224 94.06 152.414 93.67 152.584C92.99 152.914 92.28 153.264 91.46 153.554C90.72 153.854 89.93 154.034 89.15 154.044C88.39 154.054 87.62 153.864 86.92 153.584C86.68 153.474 86.45 153.374 86.23 153.234C84.91 152.624 84.03 151.364 84.22 150.034C84.32 148.464 84.89 146.864 85.5 145.274C85.72 144.684 85.98 144.094 86.24 143.504C86.66 142.574 87.13 141.654 87.64 140.754C88 140.104 88.39 139.464 88.78 138.824C89.27 138.024 89.78 137.204 90.21 136.324C90.3 136.144 90.17 135.904 89.94 135.774C89.71 135.644 89.44 135.674 89.33 135.834C88.82 136.634 88.31 137.454 87.82 138.234C87.42 138.864 87.02 139.504 86.62 140.134C86.06 141.024 85.47 141.904 84.93 142.814C84.59 143.384 84.26 143.974 83.96 144.574C83.13 146.204 82.58 148.074 82.58 149.974C82.55 150.884 82.83 151.944 83.4 152.724C83.95 153.524 84.69 154.134 85.48 154.594C85.76 154.784 86.06 154.904 86.37 155.014Z" fill="#873953"/>
    <path d="M109.97 134.084C110.26 134.134 110.54 134.204 110.82 134.284C111.22 134.404 111.62 134.544 112.02 134.694C112.77 134.984 113.5 135.334 114.19 135.744C114.31 135.814 114.54 135.684 114.69 135.464C114.84 135.244 114.87 134.994 114.75 134.904C114.05 134.394 113.31 133.934 112.54 133.534C112.14 133.324 111.73 133.134 111.31 132.954L110.42 132.584L110.21 132.494C108.87 132.294 107.54 132.014 106.2 131.944C105.97 131.924 105.74 131.924 105.5 131.924L105.05 131.994C104.23 132.104 103.43 132.294 102.64 132.534C102.08 132.714 101.52 132.914 100.98 133.164C100.31 133.464 99.64 133.854 99.07 134.354C98.95 134.454 99 134.704 99.16 134.914C99.33 135.124 99.55 135.234 99.67 135.164C100.25 134.804 100.84 134.464 101.45 134.194C101.93 133.974 102.44 133.804 102.96 133.694C103.68 133.524 104.43 133.464 105.17 133.484L105.56 133.504C105.77 133.494 105.98 133.474 106.18 133.474C107.37 133.434 108.64 133.584 109.78 134.064L109.97 134.084Z" fill="#002776"/>
    <path d="M104.77 136.654C104.61 136.474 104.45 136.294 104.32 136.084C104.13 135.794 103.97 135.484 103.84 135.164C103.61 134.564 103.51 133.924 103.7 133.364C103.73 133.274 103.56 133.084 103.32 132.964C103.08 132.834 102.82 132.844 102.76 132.994C102.39 133.824 102.44 134.744 102.63 135.554C102.74 135.974 102.89 136.384 103.08 136.764C103.21 137.034 103.35 137.304 103.5 137.564L103.61 137.754C104.06 138.204 104.51 138.644 105.06 139.044C105.19 139.124 105.36 139.254 105.6 139.354C105.82 139.474 106.05 139.534 106.28 139.564C106.74 139.644 107.22 139.464 107.5 139.094C107.7 138.844 107.81 138.524 107.85 138.184C107.86 137.974 107.82 137.684 107.81 137.574C107.68 136.764 107.39 136.054 107.05 135.394C106.8 134.924 106.53 134.464 106.22 134.034C105.83 133.504 105.38 132.974 104.82 132.574C104.7 132.494 104.48 132.604 104.32 132.814C104.16 133.024 104.09 133.264 104.17 133.344C104.58 133.764 104.97 134.224 105.3 134.694C105.57 135.074 105.8 135.474 105.97 135.904C106.22 136.494 106.35 137.124 106.33 137.694C106.32 137.824 106.31 137.784 106.29 137.824C106.3 137.864 106.3 137.904 106.29 137.944C106.28 138.014 106.21 138.054 106.15 138.044C106.12 138.044 106.08 138.034 106.05 138.024C106.03 138.024 105.97 137.974 105.86 137.914C105.48 137.644 105.13 137.244 104.89 136.794L104.77 136.654Z" fill="#002776"/>
    <path d="M83.14 137.534C83.3 137.514 83.4601 137.494 83.6101 137.484L84.29 137.444L85.59 137.384C85.67 137.384 85.75 137.154 85.77 136.884C85.79 136.614 85.7501 136.384 85.6701 136.374L84.34 136.174L83.65 136.064C83.49 136.034 83.32 136.004 83.16 135.964L83.0501 135.934C82.3701 136.044 81.64 136.034 80.94 136.044L80.57 136.064L80.34 136.144C79.92 136.274 79.5 136.424 79.08 136.574C78.78 136.694 78.49 136.794 78.19 136.924C77.83 137.084 77.46 137.274 77.15 137.544C77.09 137.594 77.16 137.824 77.31 138.044C77.46 138.264 77.63 138.414 77.7 138.394C78.02 138.244 78.34 138.104 78.64 137.964C78.89 137.854 79.1501 137.764 79.4201 137.714C79.7901 137.624 80.18 137.604 80.57 137.604L80.78 137.624L81.1 137.564C81.72 137.454 82.37 137.354 83.04 137.564L83.14 137.534Z" fill="#002776"/>
    <path d="M81.26 140.264C81.14 140.104 81.03 139.934 80.94 139.744C80.81 139.474 80.71 139.194 80.63 138.904C80.48 138.364 80.4101 137.774 80.5501 137.304C80.5701 137.224 80.39 137.064 80.15 136.934C79.91 136.804 79.6601 136.814 79.6001 136.944C79.3001 137.694 79.31 138.434 79.39 139.144C79.44 139.514 79.51 139.884 79.63 140.234C79.71 140.484 79.79 140.744 79.89 140.994C79.91 141.054 79.93 141.114 79.96 141.174C80.33 141.624 80.69 142.104 81.32 142.454C81.61 142.634 82.0501 142.744 82.4201 142.724C82.8101 142.714 83.28 142.554 83.57 142.234C83.78 142.024 83.93 141.724 84.01 141.504C84.04 141.344 84.05 141.194 84.06 141.054C84.09 140.304 83.94 139.654 83.75 139.024C83.6 138.574 83.4201 138.124 83.1701 137.704C82.8701 137.184 82.4001 136.644 81.7401 136.394C81.6001 136.344 81.43 136.524 81.34 136.774C81.26 137.034 81.25 137.264 81.32 137.304C81.66 137.524 81.97 137.864 82.2 138.264C82.39 138.584 82.5301 138.944 82.6001 139.324C82.7101 139.844 82.7101 140.414 82.6001 140.854C82.5701 140.924 82.55 140.994 82.52 141.034C82.5 141.134 82.4901 141.154 82.4801 141.184C82.4601 141.264 82.25 141.354 82.01 141.214C81.76 141.084 81.5 140.734 81.37 140.344C81.32 140.334 81.29 140.294 81.26 140.264Z" fill="#002776"/>
    <path d="M114.33 129.564C105.12 124.794 98.83 127.214 98.83 124.994C98.83 123.964 101.06 123.624 102.08 123.624C102.23 123.624 102.36 123.634 102.44 123.644C106.34 124.264 112.43 125.664 114.33 129.564Z" fill="#002776"/>
    <path d="M105.54 125.054C106.15 125.174 106.75 125.314 107.34 125.484C108.2 125.724 109.03 126.034 109.83 126.384C111.33 127.064 112.76 127.994 113.62 129.344C113.76 129.584 114.09 129.674 114.33 129.554C114.58 129.444 114.65 129.114 114.48 128.814C113.52 127.164 111.95 126.054 110.35 125.224C109.51 124.804 108.65 124.434 107.77 124.134C107.15 123.924 106.53 123.724 105.91 123.534L105.47 123.404C104.8 123.294 104.13 123.184 103.45 123.074C103.1 123.024 102.81 122.964 102.41 122.924C101.94 122.884 101.63 122.924 101.25 122.964C100.51 123.064 99.86 123.144 99.01 123.594C98.5 123.884 98.14 124.374 98.1 124.934C98.06 125.484 98.34 126.044 98.83 126.344C99.01 126.444 99.17 126.544 99.39 126.614C99.54 126.674 99.66 126.694 99.8 126.734C100.05 126.794 100.3 126.834 100.54 126.864L101.45 126.914C103.08 126.994 104.66 127.084 106.23 127.364C107.36 127.554 108.47 127.834 109.56 128.184C110.92 128.614 112.29 129.174 113.62 129.774C113.89 129.894 114.2 129.804 114.33 129.564C114.46 129.324 114.34 129.024 114.07 128.874C112.74 128.144 111.31 127.564 109.9 127.104C108.77 126.734 107.62 126.444 106.45 126.194C104.83 125.854 103.17 125.634 101.57 125.444L100.75 125.314C100.53 125.294 100.33 125.264 100.13 125.224C100.04 125.204 99.94 125.184 99.87 125.164C99.87 125.164 99.84 125.154 99.82 125.144C99.67 125.104 99.66 124.874 99.82 124.804C99.93 124.734 100.26 124.594 100.53 124.534C100.81 124.454 101.12 124.404 101.42 124.374C101.71 124.344 102.07 124.324 102.27 124.344C102.54 124.374 102.91 124.454 103.22 124.514C103.87 124.654 104.51 124.804 105.14 124.994L105.54 125.054Z" fill="#002776"/>
    <path d="M76.29 135.164C82.56 131.924 86.72 132.274 86.72 130.734C86.72 130.134 86.12 129.064 85.19 129.064C83 129.064 76.29 132.574 76.29 135.084C76.29 135.114 76.29 135.134 76.29 135.164Z" fill="#002776"/>
    <path d="M81.36 129.464C80.93 129.694 80.52 129.954 80.11 130.204C79.52 130.574 78.94 130.954 78.39 131.394C77.86 131.804 77.37 132.254 76.9 132.764C76.45 133.284 76.01 133.874 75.84 134.674C75.79 134.974 76.02 135.204 76.29 135.174C76.55 135.144 76.79 135.014 76.83 134.874C76.95 134.424 77.31 133.954 77.72 133.544C78.15 133.134 78.63 132.754 79.14 132.424C79.66 132.064 80.23 131.744 80.8 131.444C81.2 131.234 81.61 131.044 82.03 130.884L82.33 130.774C83.14 130.324 84.06 129.934 84.88 129.804L85.16 129.784C85.23 129.784 85.27 129.794 85.32 129.804C85.42 129.834 85.53 129.904 85.63 130.014C85.73 130.124 85.82 130.264 85.88 130.414C85.91 130.484 85.94 130.564 85.94 130.624C85.94 130.654 85.95 130.674 85.94 130.704C85.93 130.734 85.91 130.764 85.89 130.784C85.89 130.764 85.83 130.824 85.71 130.874C85.61 130.964 85.41 131.044 85.25 131.124C84.23 131.534 83.04 131.884 81.89 132.264C81.06 132.544 80.24 132.834 79.42 133.144C78.41 133.544 77.37 133.984 76.4 134.544C76.2 134.654 76.15 134.934 76.27 135.174C76.39 135.414 76.65 135.534 76.85 135.444C77.84 135.004 78.84 134.574 79.82 134.194C80.61 133.904 81.41 133.614 82.23 133.404C83.37 133.074 84.51 132.874 85.75 132.504C85.98 132.424 86.19 132.374 86.45 132.234C86.55 132.174 86.64 132.124 86.74 132.054C86.84 131.974 86.97 131.844 87.08 131.744C87.16 131.624 87.23 131.484 87.31 131.354C87.39 131.224 87.37 131.064 87.41 130.914C87.46 130.704 87.42 130.484 87.37 130.274C87.32 130.094 87.26 129.944 87.19 129.794C87.05 129.494 86.86 129.234 86.62 128.994C86.38 128.754 86.06 128.544 85.69 128.434C85.51 128.384 85.3 128.354 85.12 128.364L84.66 128.404C83.53 128.584 82.59 128.954 81.61 129.304L81.36 129.464Z" fill="#002776"/>
    <path d="M102.91 163.574L103.98 163.684C104.49 163.744 105.01 163.774 105.53 163.804C106.51 163.844 107.5 163.824 108.47 163.734C108.64 163.724 108.77 163.484 108.74 163.214C108.72 162.944 108.57 162.724 108.41 162.724C107.48 162.744 106.55 162.664 105.63 162.534C105.15 162.454 104.67 162.384 104.19 162.284C103.86 162.214 103.52 162.134 103.19 162.034L102.96 161.964C101.52 161.854 100.1 161.424 98.75 160.964L98.0401 160.724L97.56 160.624L96.2401 160.314C96.0101 160.274 95.78 160.184 95.38 160.204C94.99 160.234 94.7101 160.404 94.4901 160.534C93.8701 160.944 93.42 161.354 92.9 161.654C92.27 162.034 91.6101 162.274 90.9101 162.244C90.7701 162.244 90.62 162.454 90.57 162.724C90.52 162.984 90.63 163.224 90.82 163.244C91.77 163.424 92.7601 163.064 93.4901 162.614C94.0801 162.264 94.6 161.814 95.08 161.564C95.48 161.374 95.37 161.434 95.89 161.584L97.13 162.054L97.57 162.234L98.31 162.434C99.73 162.794 101.21 163.134 102.65 163.574H102.91Z" fill="#005AA4"/>
    <path d="M132.5 134.214C133.04 128.584 135.28 119.784 139.14 119.784C142.08 119.784 144.37 125.804 144.37 131.624C144.37 133.904 144.02 136.154 143.22 137.994C144.21 141.094 144.79 142.944 148.04 145.624C146.86 153.734 143.45 164.614 138.32 170.344C138.63 168.684 138.83 167.004 138.84 165.254C138.84 165.204 138.84 165.164 138.84 165.114C138.84 158.514 137.93 159.314 132.5 134.214Z" fill="#AB7487"/>
    <path d="M92.7 188.034C89.75 183.594 81.29 182.634 81.29 178.344C81.29 176.574 83.03 175.084 84.94 175.084C84.99 175.084 85.03 175.084 85.08 175.084C88.9 175.224 91.72 177.914 94.66 180.014" fill="#002776"/>
    <path d="M102.51 201.804C105.42 208.194 110.63 214.134 116.2 214.134C116.74 214.134 117.32 213.954 117.92 213.654C121.37 205.424 124.03 202.094 124.03 193.964C124.03 186.324 122.15 180.094 116.76 179.934C116.78 179.484 116.79 179.044 116.79 178.594C116.79 174.994 115.93 171.174 112.34 171.174C111.08 171.174 110.17 171.974 109.51 173.214C109.5 170.544 109.34 168.984 106.96 168.984C104.36 168.984 102.8 169.734 101.84 171.014L101.88 170.744C102.5 166.544 98.79 162.824 94.64 163.724C92.9 164.104 92.2101 164.744 91.4901 166.684C90.8501 166.094 90.14 165.604 89.32 165.604C87.86 165.604 83.26 167.044 83.26 170.334C83.26 173.914 86.58 188.124 90.61 188.124C90.66 188.124 90.71 188.124 90.76 188.124C92.64 190.254 94.35 191.204 100.33 191.834C100.32 191.834 105.33 197.594 102.51 201.804Z" fill="#AB7487"/>
    <path d="M98.57 182.024L98.5501 182.884L98.4901 184.124L98.37 186.464C98.36 186.604 98.5801 186.734 98.8501 186.764C99.1201 186.794 99.35 186.704 99.37 186.574L99.7401 184.244L99.94 183.034C99.99 182.754 100.05 182.474 100.11 182.194L100.16 181.994C100.14 180.794 100.36 179.594 100.6 178.444L100.73 177.854L100.76 177.454C100.83 176.734 100.93 176.024 101.07 175.314C101.17 174.804 101.29 174.304 101.44 173.804C101.61 173.184 101.82 172.544 101.98 171.904C102.01 171.774 101.83 171.594 101.58 171.504C101.33 171.414 101.09 171.444 101.03 171.564C100.75 172.194 100.54 172.854 100.35 173.494C100.2 174.004 100.06 174.524 99.9101 175.034L99.31 177.184L99.2 177.564L99.12 178.194C98.97 179.384 98.87 180.624 98.56 181.804L98.57 182.024Z" fill="#873953"/>
    <path d="M88.56 180.704L88.69 181.724C88.75 182.214 88.82 182.704 88.9 183.194C89.05 184.114 89.24 185.024 89.45 185.934C89.49 186.094 89.74 186.174 90.01 186.124C90.28 186.074 90.47 185.904 90.45 185.744C90.31 184.844 90.22 183.944 90.17 183.034C90.14 182.564 90.12 182.094 90.11 181.624C90.1 181.294 90.11 180.964 90.13 180.634L90.15 180.404C89.94 179.034 90.03 177.614 90.19 176.264L90.28 175.564V175.104C90.32 174.264 90.38 173.424 90.51 172.584C90.59 171.984 90.72 171.394 90.87 170.804C91.06 170.074 91.26 169.314 91.45 168.564C91.49 168.414 91.31 168.224 91.06 168.134C90.81 168.044 90.56 168.094 90.5 168.254C90.2 168.994 89.97 169.774 89.78 170.544C89.64 171.154 89.49 171.764 89.35 172.374C89.16 173.224 88.97 174.084 88.82 174.954L88.73 175.414L88.69 176.154C88.63 177.574 88.65 179.034 88.55 180.484L88.56 180.704Z" fill="#873953"/>
    <path d="M99.27 173.804C99.32 173.954 99.36 174.094 99.4 174.244L99.53 174.894C99.61 175.304 99.69 175.714 99.75 176.124C99.76 176.194 100 176.244 100.27 176.234C100.54 176.224 100.76 176.144 100.76 176.074L100.8 174.774L100.81 174.094C100.81 173.934 100.82 173.774 100.83 173.614L100.84 173.504C100.6 172.864 100.56 172.204 100.51 171.554L100.48 171.214L100.4 171.004C100.27 170.624 100.14 170.234 100.05 169.854C99.97 169.574 99.91 169.294 99.85 169.014C99.78 168.664 99.7 168.304 99.57 167.964C99.54 167.894 99.31 167.884 99.05 167.944C98.79 168.004 98.59 168.104 98.59 168.174C98.61 168.534 98.69 168.894 98.75 169.244C98.81 169.524 98.86 169.794 98.88 170.074C98.93 170.464 98.94 170.864 98.95 171.254L98.94 171.464L99.02 171.784C99.17 172.394 99.3201 173.034 99.2401 173.694L99.27 173.804Z" fill="#873953"/>
    <path d="M115.45 174.784C115.65 175.354 115.79 175.964 115.9 176.584C116.04 177.474 116.13 178.384 116.14 179.304C116.18 181.044 116.04 182.794 115.77 184.534C115.72 184.844 115.91 185.134 116.18 185.184C116.45 185.234 116.71 185.024 116.77 184.704C117.11 182.924 117.36 181.114 117.41 179.274C117.45 178.324 117.4 177.354 117.3 176.394C117.22 175.714 117.13 175.034 116.96 174.354C116.93 174.194 116.88 174.034 116.84 173.874C116.56 173.184 116.25 172.504 115.71 171.834C115.37 171.454 115.09 171.274 114.75 171.044C114.43 170.824 114.07 170.644 113.7 170.494C112.96 170.204 112.04 170.074 111.19 170.374C110.33 170.664 109.71 171.294 109.27 171.924C108.95 172.364 108.73 172.834 108.52 173.294L108.22 174.254C107.92 175.914 107.62 177.574 107.32 179.244C107.12 180.444 106.93 181.654 106.83 182.874C106.7 184.404 106.72 186.024 107.06 187.574C107.13 187.894 107.41 188.084 107.67 188.024C107.93 187.964 108.09 187.684 108.05 187.394C107.84 185.934 107.82 184.424 107.95 182.964C108.05 181.794 108.23 180.634 108.48 179.464C108.65 178.654 108.84 177.844 109.04 177.034L109.64 174.654L109.95 173.914C110.12 173.524 110.28 173.124 110.51 172.794C110.82 172.314 111.2 171.914 111.66 171.754C112.11 171.584 112.64 171.624 113.18 171.824C113.45 171.934 113.71 172.074 113.96 172.244C114.19 172.404 114.48 172.634 114.59 172.784C114.9 173.204 115.15 173.814 115.3 174.424C115.36 174.524 115.41 174.644 115.45 174.784Z" fill="#873953"/>
    <path d="M108.3 193.194C108.42 193.144 108.53 193.114 108.64 193.104C108.8 193.104 108.97 193.114 109.15 193.144C109.65 193.234 110.18 193.434 110.74 193.654C111.27 193.864 111.83 194.094 112.47 194.224C113.1 194.354 113.82 194.334 114.44 194.104C114.67 194.024 114.73 193.724 114.61 193.484C114.49 193.244 114.27 193.104 114.11 193.144C113.19 193.434 112.24 193.014 111.22 192.494C110.69 192.234 110.11 191.944 109.44 191.774C109.2 191.714 108.96 191.664 108.71 191.634C108.41 191.604 108.09 191.644 107.82 191.714C107.69 191.744 107.56 191.784 107.45 191.824C106.5 192.364 105.92 192.994 105.26 193.214C104.69 193.434 104.01 193.204 103.34 192.804C103.11 192.664 102.88 192.514 102.65 192.344L102.16 192.064C101.28 191.524 100.31 190.804 99.1101 190.524C98.2801 190.334 97.48 190.284 96.72 190.214C95.77 190.134 94.8501 190.024 93.9901 189.744C93.8201 189.684 93.5901 189.834 93.4801 190.074C93.3701 190.314 93.43 190.584 93.63 190.674C94.6 191.124 95.68 191.254 96.64 191.334C97.41 191.404 98.15 191.454 98.81 191.664C99.72 191.914 100.46 192.584 101.32 193.264L101.77 193.634C102.03 193.804 102.32 193.974 102.61 194.124C103.04 194.344 103.51 194.534 104.04 194.644C104.55 194.754 105.2 194.734 105.72 194.534C106.75 194.154 107.46 193.474 108.11 193.294C108.19 193.244 108.25 193.224 108.3 193.194Z" fill="#873953"/>
</svg>