<svg width="142" height="118" fill="none" xmlns="http://www.w3.org/2000/svg"><path d="M56.992 69.236c-1.08 4.543-1.29 12.405-1.29 15.943 0 11.625 4.123 17.722 10.13 17.722 12.969 0 24.018-21.697 26.19-35.303" fill="#005AA4"/><path d="M172.718 117.361c-15.785-35.666-50.69-40.71-62.227-45.115-32.693 2.884-56.607 8.99-72.7 13.417-7.408-2.327-15.56-5.818-23.062-5.818-4.176 0-8.345 1.126-12.497 1.86.102.103.264.25.56.501h.372c3.54 0 7.03-.437 10.514-.437 7.031 0 11.872 2.407 18.938 5.387C14.069 92.75 5.769 98.1 1.286 100.158c.807.281 1.629.517 2.461.706 6.11-2.39 16.698-6.86 20.203-6.86 1.691 0 2.813.46 2.813 1.663a4.25 4.25 0 0 1-.63 1.935c.352.018 1.48 1.098 1.846 1.105 1.343-2.38 3.624-5.204 5.23-7.46 7.734-2.16 19.465-6.944 53.17-8.578 7.031-.353 14.101.187 21.093.318 13.576 5.493 41.038 19.038 49.461 34.374h15.785Z" fill="#002776"/><path d="M163.611 106.082c-11.506-4.558-42.689-28.546-54.227-32.952-32.693 2.885-55.5 7.29-71.594 11.717-7.407-2.326-15.559-5.818-23.06-5.818-4.177 0-8.346 1.127-12.498 1.86.102.103.264.252.56.502h.372c3.54 0 7.03-.438 10.514-.438 7.031 0 11.872 2.408 18.938 5.388-18.547 5.595-26.847 10.944-31.33 13.002a22.78 22.78 0 0 0 2.461.706c6.11-2.39 16.698-6.86 20.203-6.86 1.691 0 2.813.46 2.813 1.663a4.25 4.25 0 0 1-.63 1.935c.352.017 1.48 1.098 1.846 1.105 1.343-2.38 3.624-5.204 5.23-7.46 7.734-2.16 19.465-6.944 53.17-8.578 7.031-.353 14.101.187 21.093.317 13.576 5.493 40.683 18.026 49.106 33.361l7.033-9.45Z" fill="#002776"/><path d="M161.918 103.339c-.031 5.827.03 7.273 0 13.107l-5.365-4.211v1.518c0 .06 0 .025 0 0l-.151-.272c-.035-.06-.07-.12-.105-.173l-.317-.487c-.288-.455-.618-.879-.935-1.317-.316-.437-.65-.857-.991-1.27l-.506-.629c-.176-.205-.352-.402-.531-.604a53.797 53.797 0 0 0-4.971-4.942 85.969 85.969 0 0 0-10.918-7.929 199.669 199.669 0 0 0-23.789-12.306c-.988-.431-1.979-.862-2.981-1.282l-1.505-.628-.376-.156-.19-.077a.749.749 0 0 0-.351-.096l-.861-.02c-2.173-.054-4.356-.146-6.546-.223-4.377-.16-8.788-.283-13.158-.046-2.386.132-4.777.272-7.175.42-2.394.184-4.795.325-7.185.554-4.813.427-9.573.957-14.213 1.663-3.948.586-7.952 1.303-11.935 2.224-1.986.466-3.972.964-5.94 1.525a409.196 409.196 0 0 0-5.85 1.73l-1.709.494-.045.018-.025.035-.056.078-.11.155-.143.198-.236.325-.489.632-1.905 2.584a56.887 56.887 0 0 0-1.831 2.68l-.215.352-.07.12s0 .046-.035.04l-.05-.026-.467-.353-.278-.194a.13.13 0 0 0-.052-.028c-.029 0 0-.035 0-.05l.056-.127c.052-.127.102-.254.147-.388a3.77 3.77 0 0 0 .194-.847c.038-.33.003-.664-.102-.978a1.881 1.881 0 0 0-.605-.85 3.341 3.341 0 0 0-1.659-.612 6.954 6.954 0 0 0-1.603 0c-.373.029-.703.11-1.08.163l-1.054.236c-.682.184-1.364.371-2.035.586-1.343.42-2.675.88-3.994 1.367-2.647.967-5.273 2.015-7.895 3.06l-1.969.784-.984.392-.464.208-.123.046h-.074l-.506-.127-.173-.046a2.455 2.455 0 0 1-.228-.074h-.028l.056-.025.11-.053.375-.187c2.524-1.292 5.013-2.591 7.551-3.767.771-.36 1.547-.713 2.327-1.059 3.579-1.592 7.302-3.029 11.08-4.356a211.654 211.654 0 0 1 5.706-1.9l4.57-1.412H35.024h-.022l-.084-.038-.176-.075-.351-.144-.703-.293-1.382-.59-1.708-.724a75.267 75.267 0 0 0-7.572-2.877 32.49 32.49 0 0 0-3.973-1.01 28.795 28.795 0 0 0-4.081-.373c-3.547-.071-7.01.391-10.476.462H3.462l-.031-.032-.352-.31-.284.907c3.624-.66 7.2-1.582 10.81-1.808 3.61-.226 7.188.424 10.633 1.335 2.278.603 4.55 1.341 6.827 2.118l3.428 1.175 1.726.583 1.79.582.206.067c.036.022.07 0 .106 0l.105-.028.313-.084.44-.117.875-.236 1.758-.47 3.515-.893a331.265 331.265 0 0 1 7.063-1.684c8.254-1.85 16.771-3.294 25.036-4.484 8.904-1.26 18.143-2.33 27.262-3.269l5.083-.5h.028l.063.02.303.11.604.219 1.213.434 2.022 1.425c5.15 1.68 9.807 3.628 15.003 5.182 3.736 1.104 6.773 3.43 10.495 4.572 4.637 1.437 16.618 14.774 21.248 16.461 0 2.161 4.197 4.444 4.25 4.268.053-.177-1.859-4.268-4.25-7.926-4.658-1.765-12.704-13.5-19.422-15.802l-11.168-3.404c-5.185-1.588-10.363-3.195-15.468-4.942l-2.394-.85-1.184-.474-.594-.222-.296-.113-.256-.096a1.308 1.308 0 0 0-.288 0l-5.073.438c-9.168.802-18.42 1.96-27.336 3.305a456.52 456.52 0 0 0-25.06 4.543 250.546 250.546 0 0 0-7.137 1.592c-1.188.282-2.37.59-3.554.886l-3.248.858-1.666-.544-1.712-.547-3.442-1.158c-2.292-.762-4.595-1.49-6.918-2.086-3.516-.893-7.22-1.54-10.982-1.289-3.762.25-7.35 1.187-10.937 1.808l-1.079.183.795.706.4.353c.116.096.222.212.352.297h1.47c3.54-.05 7.03-.473 10.479-.353a28.08 28.08 0 0 1 3.867.402c1.284.237 2.553.552 3.8.943 2.507.83 4.97 1.785 7.382 2.863l.858.353.214.092-.2.063-1.23.385-2.461.816c-.816.264-1.625.558-2.433.847-.809.29-1.617.575-2.419.886a138.69 138.69 0 0 0-11.604 4.957c-2.548 1.214-5.058 2.545-7.561 3.837l-.679.353c-.27.138-.594.279-.84.413l-.77.403-.383.2a.597.597 0 0 0-.095.05l.109.035.21.078c.567.194 1.098.389 1.688.569.289.088.626.18.851.24l.52.13.211.05.113.028a.123.123 0 0 0 .056.015c.02 0 .039-.006.056-.015l.376-.148.492-.195.988-.391 1.972-.784c2.626-1.038 5.245-2.076 7.878-3.022a82.454 82.454 0 0 1 3.952-1.331 22.066 22.066 0 0 1 3.944-.918 5.817 5.817 0 0 1 1.357.018c.393.03.772.16 1.1.381a.866.866 0 0 1 .288.837 2.88 2.88 0 0 1-.144.596 4.342 4.342 0 0 1-.12.311l-.034.081-.074.156c-.046.102-.106.208-.158.31l.13.29.045.106c0 .038.029.042.05.074l.13.201c.02.046.035.11.056.162.021.053 0 .06.032.078l.077.05.151.095.077.053.155.113c.269.207.548.4.837.579.1.06.206.108.316.144l.306.064h.127l.024-.028.106-.13.203-.262.208-.261.148-.248.207-.331a42.722 42.722 0 0 1 1.796-2.606l1.906-2.57.822-1.122 1.357-.392c1.951-.583 3.892-1.18 5.846-1.73 1.955-.55 3.92-1.06 5.892-1.529 3.948-.935 7.92-1.673 11.843-2.284a222.047 222.047 0 0 1 14.11-1.705c2.374-.24 4.757-.385 7.134-.568 2.376-.184 4.749-.276 7.1-.392 4.36-.141 8.761 0 13.152.173 2.193.078 4.383.155 6.566.198H107.834l.19.074.376.151 1.501.615c.998.412 1.991.828 2.978 1.25 8.029 3.456 16.17 7.463 23.644 12.317a97.233 97.233 0 0 1 10.708 7.872 55.308 55.308 0 0 1 4.921 4.738c.176.194.352.385.531.579l.503.6c.351.399.678.798.984 1.221.306.424.643.823.928 1.261l.566.833.735 1.204 1.016 1.673.063.102v.029l1.147-.131h13.356c-.03-5.799-6.549-10.362-7.774-12.496 0-1.031-2.809-5.792-3.457-6.097-.648-.305 1.171 3.847 1.168 4.878Z" fill="#002776"/><path d="M99.735 23.88c3.832 4.373 8.876 14.826 8.876 24.743 0 13.959-11.488 26.64-20.097 26.64a15.499 15.499 0 0 1-3.217-.354M61.312 21.726C54.784 30.068 47.567 44.2 47.567 55.832c0 9.31 4.622 17.02 17.928 18.88" fill="#7EB5D2"/><path d="M103.746 15.77c1.55 4.455 1.49 10.072 1.49 15.18 0 10.083-8.022 48.926-22.99 49.382-1.667 0-3.42.035-5.21.035-18.473 0-22.418-5.087-22.418-20.987 0-16.868 5.572-40.27 6.957-46.886" fill="#7EB5D2"/><path d="M96.244 66.232a38.868 38.868 0 0 1-3.294 5.963c-.703 1.013-1.357 1.913-2.035 2.715l-.556.66-.594.639c-.351.406-.763.748-1.146 1.115-.288.258-.6.48-.9.706a3.917 3.917 0 0 1-.47.332l-.486.31a9.485 9.485 0 0 1-4.064 1.413c-.253.025-.453.13-.453.226 0 .095.218.152.485.13a10.032 10.032 0 0 0 4.282-1.387l.502-.31c.17-.1.333-.209.489-.329.31-.24.636-.462.935-.706.404-.353.844-.706 1.216-1.108l.637-.636c.193-.226.393-.452.59-.678a26.572 26.572 0 0 0 2.046-2.8 62.255 62.255 0 0 0 3.298-6.04l.495-1.059c.862-2.001 1.688-4.07 2.419-6.093a76.272 76.272 0 0 0 2.109-6.75c.232-.847.436-1.701.647-2.556.319-1.35.625-2.707.917-4.07.208-.982.408-1.96.602-2.944.235-1.225.467-2.496.646-3.757.039-.257 0-.473-.102-.487-.101-.014-.2.177-.246.43-.218 1.254-.453 2.521-.703 3.746a84.506 84.506 0 0 1-.622 2.924c-.306 1.355-.65 2.7-1.012 4.042-.232.84-.464 1.68-.703 2.51-.665 2.256-1.354 4.536-2.11 6.707a64.238 64.238 0 0 1-2.373 6.055l-.446 1.087ZM54.875 59.945a76.205 76.205 0 0 1 .351-8.561c.145-1.554.289-2.948.426-4.269l.225-2.202c.077-.675.147-1.352.232-2.023a222.972 222.972 0 0 1 1.21-8.413c.052-.325.017-.596-.078-.614-.095-.018-.215.23-.27.554-.328 1.84-.64 3.679-.925 5.525l-.43 2.88-.284 2.023c-.099.735-.197 1.47-.285 2.21a94.447 94.447 0 0 0-.386 4.297c-.17 2.852-.352 5.768-.328 8.596v1.469c.092 2.729.282 5.532.918 8.183.336 1.458.88 2.86 1.617 4.162a10.844 10.844 0 0 0 3.04 3.347 13.796 13.796 0 0 0 2.95 1.574 24.33 24.33 0 0 0 5.073 1.296c1.24.176 2.485.328 3.733.406 1.554.11 3.164.17 4.757.152.323 0 .576-.078.576-.173 0-.096-.253-.177-.576-.18a86.984 86.984 0 0 1-4.74-.194 40.725 40.725 0 0 1-3.69-.428 22.335 22.335 0 0 1-4.957-1.37 13.45 13.45 0 0 1-2.774-1.56 10.885 10.885 0 0 1-2.85-3.177 15.483 15.483 0 0 1-1.6-3.982 35.227 35.227 0 0 1-.928-8.042c.007-.505 0-.996-.007-1.486ZM91.86.872a29.22 29.22 0 0 0-1.652-.124L74.712.042A35.39 35.39 0 0 0 73.37.007L82.615 11.1 91.86.872Z" fill="#005AA4"/><path d="M92.363 32.419c2.138-.495 3.597-1.472 5.217-2.892-.104.345-.172.7-.204 1.06-.013.257.02.516.099.762 2.334-.77 3.29-3.28 4.345-5.267-.137 1.348-.475 2.665-.703 4.003 2.109-2.273 2.344-4.71 2.791-7.668.187 1.066.291 2.145.309 3.227.536-1.862.85-3.782.935-5.72.032-.705.039-1.443.021-2.216.223.3.475.577.753.826C104.477 7.611 101.588 1.86 91.864.861c-4.943.163-7.59 2.436-8.985 7.414a.314.314 0 0 1-.304.24.312.312 0 0 1-.304-.24C81.18 3.781 77.964.939 73.373 0 63.347 0 59.895 5.444 57.427 16.3c.3-.221.576-.473.823-.753a31.608 31.608 0 0 0-.18 2.21 24.676 24.676 0 0 0 .405 5.78c.12-1.074.323-2.136.605-3.178.172 2.987.186 5.437 2.074 7.897-.095-1.352-.31-2.697-.324-4.052.869 2.079 1.59 4.663 3.843 5.648.102-.237.159-.49.168-.748a5.365 5.365 0 0 0-.105-1.084c1.483 1.564 2.847 2.672 4.921 3.36l22.706 1.039Z" fill="#7EB5D2"/><path d="M104.973 20.084c-.039.487-.092.978-.162 1.462a17.826 17.826 0 0 1-.228 1.278c-.039.172-.088.374-.13.564-.067.353-.141.706-.222 1.109-.06.368-.141.732-.242 1.09l.481.05c-.021-.381-.028-.762-.042-1.14 0-.714-.086-1.425-.257-2.118l-.393-1.412-.12 1.412v.127a34.15 34.15 0 0 1-.401 2.393c-.135.661-.31 1.313-.523 1.953-.172.498-.383.982-.63 1.447-.144.272-.4.664-.379.632a.798.798 0 0 1-.144.173c0-.067.031-.138.049-.194l.021-.046V28.762l.031-.124.116-.498c.074-.353.145-.678.19-1.02.046-.343.092-.664.113-1l.119-1.627-.703 1.448-.165.353-.38.805c-.28.609-.61 1.193-.987 1.747a8.024 8.024 0 0 1-1.579 1.727 3.036 3.036 0 0 1-.429.271l-.221.113-.07.029c-.064.038-.046-.04-.053-.06v-.191c0-.08.006-.158.017-.237.046-.295.111-.586.197-.872.088-.32.176-.642.264-.97l-1.803 1.532c-.219.183-.444.353-.669.53a9.283 9.283 0 0 1-1.138.705c-.285.153-.58.286-.883.4-.376.144-.773.268-1.174.384a.175.175 0 0 0-.105.208.166.166 0 0 0 .19.135 7.15 7.15 0 0 0 1.23-.353c.316-.117.626-.255.931-.396.425-.201.84-.424 1.241-.667.25-.155.496-.318.735-.487a8.71 8.71 0 0 0 .292-.216l.063-.046s.021-.02.035-.031a.298.298 0 0 1 0 .08c-.005.1-.005.201 0 .3v.15c0 .049 0 .095.025.186.026.156.065.31.116.46l.035.109.018.053a.107.107 0 0 0 .052 0l.211-.075.422-.151c.105-.046.176-.089.267-.13.176-.082.33-.192.496-.287a5.522 5.522 0 0 0 1.74-1.875c.352-.585.671-1.214 1.002-1.81l.425-.784.183-.321-.58-.177c-.042.318-.095.639-.151.957l-.053.307c-.112.663-.221 1.33-.33 1.977l-.057.353c-.066.43-.137.865-.203 1.292.172-.187.376-.43.562-.64l.545-.649c.165-.2.32-.408.464-.624.102-.145.186-.304.281-.452.281-.485.516-.994.703-1.522.225-.668.393-1.354.503-2.051.119-.79.242-1.613.351-2.411l.029-.13-.514.017c.106.67.18 1.359.236 2.04.028.378.056.76.081 1.144l.102 1.412.383-1.377c.102-.353.207-.73.323-1.094a8.997 8.997 0 0 0 .338-1.712l.056-.544c.028-.258.056-.519.074-.78.038-.498.06-.992.074-1.486a.18.18 0 0 0-.285-.12.182.182 0 0 0-.067.102l.06-.007Z" fill="#005AA4"/><path d="M72.002 15.858c2.78 0 5.034-2.263 5.034-5.055s-2.254-5.055-5.034-5.055-5.034 2.263-5.034 5.055 2.254 5.055 5.034 5.055Z" fill="#fff"/><path d="M72.002 13.479a2.67 2.67 0 0 0 2.665-2.676 2.67 2.67 0 0 0-2.665-2.676 2.67 2.67 0 0 0-2.665 2.676 2.67 2.67 0 0 0 2.665 2.676Z" fill="#002776"/><path d="M93.724 17.574c2.78 0 5.033-2.264 5.033-5.056 0-2.792-2.253-5.055-5.034-5.055-2.78 0-5.034 2.263-5.034 5.055s2.254 5.056 5.035 5.056Z" fill="#fff"/><path d="M93.724 15.195a2.67 2.67 0 0 0 2.664-2.676 2.67 2.67 0 0 0-2.665-2.676 2.67 2.67 0 0 0-2.664 2.676 2.67 2.67 0 0 0 2.665 2.676Z" fill="#002776"/><path d="M83.378 16.857c-.327 1.811-.918 3.884-1.839 3.83-.72-.031-.907-1.994-.938-3.61.618-.538 1.434-2.292 1.775-3.157.263 1.02.457 1.988 1.002 2.937Z" fill="#D8E9F1"/><path d="M84.12 16.515v-.247l.066.159.176.413c.36.915.915 1.74 1.624 2.418.141.113.306.127.352.05.046-.078 0-.223-.123-.322a6.32 6.32 0 0 1-1.452-2.337l-.151-.392c-.07-.198-.137-.413-.207-.621l-.412-1.391-.01-.102-.032-.096-.056-.155-.074.907c-.032.325-.056.706-.091.996-.018.158-.051.314-.099.466 0 .021 0 .039-.021.067v.021l-.017.046c-.018.039 0 .028 0 .039a.159.159 0 0 1-.029.039s-.028.035-.038.028l-.028-.043c0 .018-.102-.194-.159-.32a6.775 6.775 0 0 1-.32-.898l-.066-.232-.07-.262c-.138-.554-.278-1.108-.419-1.655l-.334.815c-.091.212-.18.43-.274.632l-.113.236-.08.167-.197.434a9.96 9.96 0 0 1-.535.974 3.644 3.644 0 0 1-.313.43c-.052.061-.11.117-.172.167-.07.045-.067.05-.112.056-.046.007-.078-.025-.113-.095a2.124 2.124 0 0 1-.12-.55l-.073-.615a.846.846 0 0 0-.13.18l-.144.222c-.102.145-.2.304-.303.434l-.15.205-.096.12c-.063.082-.133.156-.2.233a8.717 8.717 0 0 1-1.814 1.529c-.137.088-.211.219-.165.303.045.085.197.085.351 0a7.923 7.923 0 0 0 1.927-1.57c.07-.085.144-.163.21-.248l.145-.176.074-.099.035-.053s.024-.05.024 0a.784.784 0 0 0 .057.268.544.544 0 0 0 .45.353c.076-.01.15-.024.224-.046.064-.027.125-.06.183-.098.088-.066.17-.14.243-.223.136-.148.262-.306.376-.473.22-.322.423-.656.608-.999l.225-.42.081-.173.05-.11.024-.073.038-.106c.028.066.05.135.067.204l.13.452a8.382 8.382 0 0 0 .338.953c.079.193.168.382.267.565l.053.1.056.07.112.148s.018.028.032.028l.042-.021.088-.046.169-.088c.053-.035.105-.081.158-.12.053-.039.099-.106.144-.163.023-.03.044-.062.063-.095a.403.403 0 0 0 .043-.07.968.968 0 0 1 .045-.089l-.038-.035ZM62.58 28.476c.287.371.62.703.992.988.133.107.274.203.422.286.192.117.393.217.601.3l.172.078c.036.032.043 0 .057-.046l.035-.092c.052-.121.095-.247.13-.374.027-.102.046-.206.056-.31.011-.089.017-.177.018-.266v-.25l-.064-.173c0-.018 0 0 0 0l.022.021.042.039.088.085.351.32c.33.3.672.594 1.034.862.175.13.351.166.418.085s-.035-.24-.204-.37a12.709 12.709 0 0 1-.984-.859l-.243-.236-.351-.374-.38-.403-.193-.205-.095-.102a.474.474 0 0 0-.085-.078l.138.89c.024.152.042.3.056.445V29.072c0 .07 0 .145-.021.216l-.018.102v.05c-.017.035-.017.12-.084.06l-.078-.043h-.017l-.046-.032-.095-.06a3.324 3.324 0 0 1-.351-.264c-.33-.268-.62-.58-.862-.929-.056-.081-.116-.162-.165-.25-.805-1.11-1.258-2.472-1.79-3.8l-.491-1.21v1.31c0 .476.024.942.06 1.412l.08.963.043.311V27.01c0 .082.031.184.049.304a1.024 1.024 0 0 1-.187-.23l-.073-.126c-.046-.085-.099-.166-.138-.255-.08-.173-.172-.353-.242-.522a9.635 9.635 0 0 1-.63-2.33c-.15-1.003-.2-2.058-.28-3.107 0-.212-.106-.374-.2-.37-.096.003-.163.18-.152.392.022 1.053.103 2.104.242 3.149.119.831.332 1.646.637 2.428.067.19.161.371.242.555.039.091.092.18.137.271l.095.177c.039.074.081.138.12.208l.513.77.278.392.137.197c.04.063.085.123.133.18-.038-.582-.073-1.143-.126-1.765l-.067-.78-.102-.964a18.93 18.93 0 0 1-.08-1.355l-.486.102c.549 1.282.995 2.68 1.793 3.933.056.046.123.13.19.212Z" fill="#005AA4"/><path d="M80.843 85.98a.453.453 0 0 1-.204 0c-1.589-.219-2.014-5.207-1.648-7.876.351-2.602 1.265-4.547 1.961-4.451 1.382.19.823 8.755.654 9.99a5.164 5.164 0 0 1-.763 2.337ZM83.888 85.539c0-.056-1.266-8.12-.943-10.481.067-.332.25-.63.515-.837.266-.208.597-.313.934-.297 1.638.226 2.432 4.664 1.979 7.99-.281 2.128-1.083 3.777-2.485 3.625Z" fill="#D8E9F1"/><path d="M84.773 76.784c.735-2.348 1.537-3.178 2.264-3.09 1.558.216 2.781 4.728 2.338 7.976-.32 2.34-1.445 3.209-2.039 3.127a1.072 1.072 0 0 1-.671-.43c-1.505-1.967-.268-5.744-1.892-7.583ZM73 81.162c-.214-1.06-.07-5.896-1.806-5.949-1.568-.05-2.029 2.288-2.082 4.032-.031 1.105.099 7.117 1.639 7.163 1.009.031 2.288-1.808 2.351-3.983A5.541 5.541 0 0 0 73 81.162Z" fill="#D8E9F1"/><path d="M69.854 80.61c-.077-1.284-.429-5.63-1.589-5.648-1.1-.035-2.323 3.884-2.425 7.18-.057 1.925.274 4.393 2 4.446 1.835.038 1.92-4.495 2.014-5.977ZM65.175 76.833a1.774 1.774 0 0 0-.488-.091c-1.821-.053-2.77 3.272-2.851 5.973-.067 2.249.65 4.024 1.22 4.042 1.012.028 1.694-4.942 1.757-5.73.106-1.394.186-2.806.362-4.194Z" fill="#D8E9F1"/><path d="M85.642 83.876c-.079.194-.174.38-.285.558-.169.25-.37.477-.598.674-.447.377-.97.653-1.532.809a.204.204 0 0 0-.14.23.183.183 0 0 0 .235.116 4.562 4.562 0 0 0 1.715-.809c.266-.21.502-.454.703-.727.14-.193.267-.396.38-.607.024-.053.056-.1.077-.152a8.109 8.109 0 0 0 .4-2.902l-.017-.487-.031-.31c-.056-.573-.116-1.145-.173-1.72l-.13-1.236c-.056-.515-.13-1.059-.232-1.567a.19.19 0 0 0-.207-.159.183.183 0 0 0-.114.079c-.027.04-.036.09-.027.136.064.523.127 1.06.187 1.557.045.406.084.816.109 1.225.038.572.056 1.148.066 1.72v.303l.036.484a5.227 5.227 0 0 1-.394 2.662c.01.038-.01.08-.028.123ZM69.095 84.568c-.036.167-.083.33-.14.49-.04.117-.092.227-.138.354-.045.127-.112.215-.172.317a1.988 1.988 0 0 1-1.009.844.183.183 0 0 0-.088.223.16.16 0 0 0 .076.103.157.157 0 0 0 .128.013 2.479 2.479 0 0 0 1.266-.939c.077-.113.15-.23.221-.353.07-.124.123-.244.176-.353.053-.11.151-.353.207-.526l.046-.127a20.32 20.32 0 0 0 .285-2.305l.02-.392v-.254c-.017-.466-.052-.929-.08-1.391l-.063-.992c-.025-.413-.053-.84-.088-1.254a.177.177 0 0 0-.183-.148.168.168 0 0 0-.172.159c0 .427.025.854.05 1.267.017.329.034.657.038.989 0 .459 0 .914-.021 1.37l-.018.24v.374c.014.74-.09 1.477-.306 2.185l-.035.106Z" fill="#005AA4"/></svg>