<svg width="135" height="159" viewBox="0 0 135 159" fill="none" xmlns="http://www.w3.org/2000/svg">
<g clip-path="url(#clip0_414_31349)">
<path d="M114.31 79.29C109.757 80.4806 105.211 82.3637 101.861 83.7513C89.0598 89.0538 70.0469 103.048 56.0261 121.649C33.131 103.598 36.6202 104.239 25.0252 94.8577L24.5221 89.9208L110.051 73.406L114.32 75.2532L114.31 79.29Z" fill="#002776"/>
<path d="M24.5221 89.9209C35.2239 98.8379 43.4494 107.529 54.7216 115.793C67.4034 100.388 84.2349 86.8806 103.018 79.1003C106.727 77.564 110.534 76.2652 114.271 75.1346C106.285 56.1928 101.788 48.0431 97.6922 39.1709C94.4341 40.1033 90.9859 41.2535 87.5164 42.6906C65.1439 51.9576 43.3137 70.317 30.1272 83.1493C28.1769 85.2087 26.3741 87.6242 24.5221 89.9209Z" fill="#7EB5D2"/>
<path d="M57.7262 55.03C58.3965 52.2493 58.6096 49.3798 57.7673 46.6694C53.7734 33.3051 18.2621 27.4333 13.1602 28.9904C12.0343 29.3177 11.7377 30.9702 12.7292 31.672C17.3279 35.3296 24.8323 38.8961 32.1335 41.2952C28.7 41.4659 24.4783 42.1021 19.3764 43.6591C17.7719 44.1846 16.0478 44.7597 14.5417 45.5226C13.2748 46.1865 13.2453 48.1455 14.5957 48.6987C22.1428 51.6913 29.952 51.9331 37.7974 50.9084C32.2235 53.3562 27.0643 56.4667 22.5163 60.7145C22.2066 60.9819 22.1148 61.4371 22.1427 61.8427C22.2197 62.3671 22.7048 62.8614 23.4013 62.8511C28.3753 63.0157 43.0811 60.9572 48.4222 59.3011C51.3919 58.3491 54.3337 56.9915 57.7262 55.03Z" fill="#F8E9DD"/>
<path d="M86.4866 96.3774C92.2407 97.7486 108.672 102.902 113.835 115.365C117.178 123.436 113.851 132.324 109.663 134.058C107.63 134.9 105.864 133.685 104.684 130.836C102.964 126.682 102.657 122.22 102.449 117.995C100.912 123.082 97.9241 129.743 92.9189 133.902C92.0601 134.536 91.0538 134.813 90.041 134.398C89.5346 134.191 89.1478 133.934 88.8528 133.222C88.017 131.204 89.2282 119.577 89.8002 116.559C88.4695 118.084 85.2375 121.787 82.3514 123.956C81.373 124.639 79.8538 124.017 79.7702 122.8C79.1852 114.281 82.2746 103.128 86.4866 96.3774Z" fill="#F8E9DD"/>
<path d="M45.6063 81.6046C45.3884 81.4167 45.1704 81.2289 44.9524 81.0411C44.6853 80.7345 44.4182 80.428 44.2707 80.0719C43.9757 79.3597 43.8495 78.7167 44.1314 78.0437C44.251 77.9941 43.9839 77.6876 43.7659 77.4998C43.5479 77.3119 43.2103 77.1736 43.0202 77.3915C42.3089 78.3814 42.2729 79.6479 42.7154 80.7161C42.912 81.1909 43.1578 81.7844 43.4741 82.2096C43.7413 82.5162 44.0084 82.8227 44.2756 83.1292L44.4935 83.3171C45.2179 83.7123 46.1111 84.1767 47.1665 84.0176C47.6943 83.9381 48.222 83.8586 48.6514 83.5417C49.0808 83.2247 49.3905 82.9574 49.7707 82.5218C49.9117 82.1853 50.1723 81.7992 50.1936 81.5123C50.2149 81.2253 50.1166 80.9879 50.187 80.8197C49.9347 79.5336 49.1119 78.9009 48.5285 78.1692C48.0434 77.6748 47.4878 77.3487 46.8831 76.9039C46.4963 76.6469 46.1587 76.5086 45.5818 76.4695C45.1246 76.3807 44.5477 76.3416 43.879 76.7576C43.6889 76.9754 43.6676 77.2624 44.0544 77.5193C44.2723 77.7072 44.6099 77.8455 44.6099 77.8455C44.8492 77.7463 45.6441 77.9733 46.1997 78.2995C46.7061 78.5069 47.142 78.8826 47.4583 79.3078C47.9926 79.9208 48.4072 80.5835 48.3154 81.0387C48.3646 81.1574 48.245 81.2069 48.245 81.2069C48.2941 81.3256 48.1745 81.3752 48.2236 81.4939C48.1532 81.6621 47.9631 81.8799 47.8434 81.9295C47.6041 82.0286 47.4845 82.0782 47.2452 82.1773C46.8371 82.2072 46.3307 81.9998 46.0144 81.5746L45.6063 81.6046Z" fill="#005AA4"/>
<path d="M40.0866 87.2285C39.8686 87.0406 39.6506 86.8528 39.4327 86.665C39.1655 86.3584 38.8984 86.0519 38.7509 85.6958C38.4559 84.9836 38.3297 84.3406 38.6116 83.6676C38.7312 83.618 38.4641 83.3115 38.2461 83.1237C38.0282 82.9358 37.6906 82.7975 37.5004 83.0154C36.7892 84.0053 36.7531 85.2718 37.1956 86.34C37.3922 86.8148 37.6381 87.4083 37.9544 87.8335C38.2215 88.1401 38.4886 88.4466 38.7558 88.7531L38.9737 88.941C39.6981 89.3362 40.5913 89.8006 41.6468 89.6415C42.1745 89.562 42.7022 89.4825 43.1316 89.1656C43.561 88.8486 43.8707 88.5813 44.251 88.1457C44.3919 87.8092 44.6525 87.4231 44.6738 87.1362C44.6951 86.8492 44.5968 86.6118 44.6673 86.4436C44.4149 85.1575 43.5922 84.5248 43.0087 83.7931C42.5236 83.2987 41.968 82.9726 41.3633 82.5278C40.9765 82.2708 40.6389 82.1325 40.062 82.0934C39.6048 82.0046 39.0279 81.9655 38.3592 82.3815C38.1691 82.5993 38.1478 82.8863 38.5346 83.1432C38.7526 83.3311 39.0902 83.4694 39.0902 83.4694C39.3294 83.3702 40.1243 83.5972 40.6799 83.9234C41.1863 84.1308 41.6222 84.5065 41.9385 84.9317C42.4728 85.5447 42.8874 86.2074 42.7956 86.6626C42.8448 86.7813 42.7252 86.8308 42.7252 86.8308C42.7743 86.9495 42.6547 86.9991 42.7039 87.1178C42.6334 87.286 42.4433 87.5038 42.3236 87.5534C42.0844 87.6525 41.9647 87.702 41.7254 87.8012C41.3174 87.8311 40.811 87.6237 40.4947 87.1985L40.0866 87.2285Z" fill="#005AA4"/>
<path d="M35.2387 87.7068C34.9011 87.5685 34.3946 87.3611 33.9374 87.2724C33.2409 87.2828 32.6427 87.5306 32.2624 87.9662C31.9314 88.5205 31.72 89.0252 31.797 89.5496C31.8248 89.9552 31.9019 90.4796 32.0494 90.8357C32.0985 90.9543 32.387 90.9739 32.7459 90.8253C33.1048 90.6766 33.3441 90.5775 33.2949 90.4588C33.1687 89.8158 33.331 89.1923 33.4506 89.1427C33.5703 89.0932 33.6899 89.0436 33.7391 89.1623C33.7391 89.1623 33.7882 89.281 33.957 89.3502L34.0062 89.4689C34.7306 89.8641 35.0043 90.8632 35.1092 91.7932L35.2845 92.555L35.4107 93.198L35.7958 95.8197L36.2957 95.3345C36.7955 94.8493 37.415 94.3146 38.0346 93.7799C38.8442 93.0274 39.1539 92.76 39.6538 92.2748C39.7734 92.2253 39.6259 91.8692 39.408 91.6813C39.19 91.4935 38.972 91.3057 38.8524 91.3552C38.423 91.6721 37.6838 92.2564 37.6838 92.2564C37.5642 92.306 37.3741 92.5238 37.2545 92.5733L37.1348 92.6229C37.1561 92.336 37.1774 92.049 37.2479 91.8808C37.2479 91.8808 37.2479 91.8808 37.3184 91.7125L37.22 91.4751C37.0168 90.3077 36.5957 88.9525 35.5763 87.8451L35.2387 87.7068Z" fill="#005AA4"/>
<path d="M76.2895 100.184C75.9388 98.6606 75.7077 97.0875 75.4062 95.6828C70.4224 89.4035 56.651 73.4143 50.0922 65.7014C54.4075 62.2453 59.0603 58.9274 63.8819 55.6787C67.3121 60.2375 72.9154 65.982 87.6684 86.7099C87.97 88.1147 88.2715 89.5194 88.573 90.9242C84.6102 93.5391 80.4359 96.6587 76.2895 100.184Z" fill="#F8E9DD"/>
</g>
<defs>
<clipPath id="clip0_414_31349">
<rect width="90" height="134" fill="white" transform="translate(0 34.4415) rotate(-22.5)"/>
</clipPath>
</defs>
</svg>
